<?xml version='1.0' encoding='utf-8'?>
<svg
  preserveAspectRatio='xMidYMid meet'
  version='1.1'
  viewBox='0 0 1024 1024'
  xml:space='default'
  xmlns='http://www.w3.org/2000/svg'
  xmlns:svgjs='http://svgjs.dev/svgjs'
  xmlns:xlink='http://www.w3.org/1999/xlink'
  >
  <g
    clip-rule='evenodd'
    fill-rule='evenodd'
    image-rendering='geometricPrecision'
    shape-rendering='crispEdges'
    transform='translate(1024, 0) scale(-1, 1)'
    >
    <path fill="#161615" d="M648.5 285.5c4.426.211 7.426 2.378 9 6.5-.601 1.605-1.601 2.938-3 4 3.767 5.041 3.934 10.208.5 15.5a78.988 78.988 0 0 1-11 10c-2.009 7.548-5.009 7.882-9 1 .008 8.915-4.159 11.748-12.5 8.5-2.75-3.864-2.416-7.531 1-11 2.599-.769 5.099-.602 7.5.5.408-1.91 1.575-2.91 3.5-3 1.723 1.052 3.39 1.052 5 0l3 2c4.887-3.019 8.721-7.019 11.5-12 1.693-6.793-.807-10.959-7.5-12.5-2.751-3.833-2.085-7 2-9.5z"/>
    <path fill="#d9d9d9" d="M649.5 288.5c2.412-.256 4.079.744 5 3-2.01 1.671-4.343 2.338-7 2-.135-2.054.532-3.721 2-5z"/>
    <path fill="#171717" d="M726.5 637.5c0-.667-.333-1-1-1a303.44 303.44 0 0 1 20-13.5c3.487-2.24 3.821-4.74 1-7.5-1.892-3.668-4.892-4.835-9-3.5a179.617 179.617 0 0 0-15 10c-3.597 1.277-7.264 1.61-11 1a9458.556 9458.556 0 0 0-110-59.5c-.172-.992.162-1.658 1-2a9417.425 9417.425 0 0 1 109 58.5c3.795.837 7.461.504 11-1a49.189 49.189 0 0 1 11-7.5c1.652-5.488 4.985-9.654 10-12.5 4.549-3.146 9.216-3.313 14-.5a202.205 202.205 0 0 1 21-13c.992-.172 1.658.162 2 1-6.638 4.323-13.305 8.656-20 13 1.69 2.019 3.356 4.019 5 6 .457 3.773 2.124 4.607 5 2.5a664.408 664.408 0 0 1 29-19c1.964-1.451 3.297-3.284 4-5.5 1.217-4.461-.116-8.295-4-11.5a6880.424 6880.424 0 0 1-170-91.5c.838-.342 1.172-1.008 1-2a129.747 129.747 0 0 1 9.5 5c.454-28.345.787-56.678 1-85A7666.684 7666.684 0 0 0 515.5 477c-1.333.667-2.667.667-4 0a28.53 28.53 0 0 0-9-4.5 117.923 117.923 0 0 0-18-10c-1.836-2.088-4.169-3.421-7-4-.342-.838-1.008-1.172-2-1-5.184-3.76-10.85-6.76-17-9-.342-.838-1.008-1.172-2-1-1.836-2.088-4.169-3.421-7-4-16-9.136-32.167-18.136-48.5-27-.5 6.325-.666 12.658-.5 19-.826-4.816-1.326-9.816-1.5-15-.383-.556-.883-.889-1.5-1 .17-1.322-.163-2.489-1-3.5a1138.36 1138.36 0 0 1-56-31c-3.239-1.736-5.573-4.236-7-7.5 1.776.159 3.776-.175 6-1 1.306-3.48 1.306-6.813 0-10-.749-1.746-2.083-2.746-4-3-4.683 1.335-8.683 3.669-12 7h-1c-1.673.843-2.84 2.176-3.5 4-.667 3-.667 6 0 9 .278.916.778 1.582 1.5 2a25.619 25.619 0 0 0 6 6c-1 .333-1.667 1-2 2-8.343-4.86-10.843-11.86-7.5-21 3.117-3.954 6.95-6.954 11.5-9 .988-3.653 3.155-6.32 6.5-8a1352.356 1352.356 0 0 0 1-97l-3-3a380.405 380.405 0 0 0-1.5-23c.208-2.35 1.375-4.016 3.5-5-2.553-12.116 1.947-16.616 13.5-13.5l1.5 1.5 1 12 2 2c.667 8.667.667 17.333 0 26l-2 2c-.458 28.669-.291 57.336.5 86 2.854.424 5.521 1.424 8 3l23-11.5c3-.667 6-.667 9 0a1060.476 1060.476 0 0 0 36 17.5c.167-21.669 0-43.336-.5-65l-3-5c-6.298-2.16-8.131-6.327-5.5-12.5 6.301-3.275 10.301-1.609 12 5-.49 2.503-1.823 4.503-4 6 .829 1.816 1.663 3.649 2.5 5.5a1054.22 1054.22 0 0 1 1.5 66h3c-.048 2.792 1.285 4.625 4 5.5 7.905 4.292 15.905 7.959 24 11a2834 2834 0 0 0 42.5-27.5l1-34c4.01-6.476 9.843-8.809 17.5-7-.301-3.747.366-7.247 2-10.5a213.682 213.682 0 0 0-5-7.5c.305-3.911 1.805-7.244 4.5-10 .667-30 .667-60 0-90-3.209-2.232-4.209-5.232-3-9 2.288-3.278 5.121-3.778 8.5-1.5 2.744 3.457 2.411 6.624-1 9.5a1411.062 1411.062 0 0 0-.5 92c5.288 2.355 6.788 6.188 4.5 11.5-1.525 1.009-3.192 1.509-5 1.5a67.98 67.98 0 0 1 2 14c6.009.166 12.009-.001 18-.5a175.268 175.268 0 0 1 11-14l14-8 4-6c4.617-2.244 7.283-.744 8 4.5-1.537 6.216-5.037 7.549-10.5 4-10.13 3.132-17.463 9.465-22 19a11.532 11.532 0 0 1-4.5 3.5c-9.01.6-18.01.433-27-.5-6.244-.962-10.744 1.372-13.5 7a150.545 150.545 0 0 0 .5 30 72.496 72.496 0 0 1 10-5.5 16.242 16.242 0 0 1 8 0 1764.9 1764.9 0 0 0 109 58 8.43 8.43 0 0 0 4 .5c1.263-10.358 5.596-19.191 13-26.5a774.989 774.989 0 0 1 46-26c3.114-8.916 9.447-14.083 19-15.5 2.261 1.148 4.595 1.648 7 1.5l20-11c2-1.333 3.667-3 5-5l32-17c5.874-.301 9.207 2.533 10 8.5.094 2.412-.906 4.245-3 5.5a202972.735 202972.735 0 0 0-58 33c-4.46 10.064-12.127 14.064-23 12l-45 27a17.842 17.842 0 0 0-4.5 5.5 180.107 180.107 0 0 1-6 26 41.348 41.348 0 0 1-7 10c-.5 6.325-.666 12.658-.5 19a59.44 59.44 0 0 0 10-3.5 731.46 731.46 0 0 1 31-19c1.345-10.017 7.012-15.017 17-15a40.79 40.79 0 0 0 5.5 2.5 667.059 667.059 0 0 0 21.5-11.5c4.07-2.764 4.737-6.097 2-10 3.553-4.781 6.886-4.615 10 .5l9-6c4.348 1.56 5.015 4.06 2 7.5-3.387-.709-6.387.291-9 3l7 1c1.333 2 1.333 4 0 6a42.015 42.015 0 0 0-12.5 5.5l-1.5-1c2.078-1.928 2.745-4.095 2-6.5-1.333-.667-2.667-.667-4 0a456.087 456.087 0 0 0-25 14c5.269 6.283 5.269 12.616 0 19a52.435 52.435 0 0 0 5.5 10.5v18c.5 1.833 1.667 3 3.5 3.5 5.636-.332 10.636 1.168 15 4.5a97.502 97.502 0 0 1 3 16.5c1.04 2.131 2.54 3.964 4.5 5.5 1.167 6.833-1.667 9.667-8.5 8.5-6.634-4.263-6.634-8.429 0-12.5.922-4.993.755-9.993-.5-15-.5-1.833-1.667-3-3.5-3.5a304.77 304.77 0 0 0-13-2l-1.5-1.5a134.971 134.971 0 0 1-2-22 48.299 48.299 0 0 0-7.5-11c-1.563 1.902-3.563 2.902-6 3-2.785-1.589-5.785-2.089-9-1.5l-31 19.5a168.028 168.028 0 0 0-2 6.5c-3.417 2.595-7.251 4.095-11.5 4.5a131.26 131.26 0 0 0 .5 28 7063.003 7063.003 0 0 0 157 84.5c5.107 4.998 6.273 10.832 3.5 17.5a427.124 427.124 0 0 1-36.5 24.5c-.995 3.654-2.995 6.654-6 9l-12 8a77.6 77.6 0 0 1-10 0 153.674 153.674 0 0 1-14 8.5z"/>
    <path fill="#dedede" d="M709.5 329.5c7.397 1.089 11.397 5.422 12 13a10.413 10.413 0 0 1-1.5 5c-1.162-7.844-5.329-13.344-12.5-16.5.916-.278 1.582-.778 2-1.5z"/>
    <path fill="#6f6f6e" d="M340.5 260.5h3c-.167 31.002 0 62.002.5 93 .909 2.158 1.075 4.158.5 6l-7-3.5a130.161 130.161 0 0 0 1-22.5l2-73z"/>
    <path fill="#b9baba" d="M753.5 316.5c.968 2.107 1.302 4.441 1 7-2.516.255-4.85 1.089-7 2.5a175.255 175.255 0 0 1-18.5 11.5 28.208 28.208 0 0 0-1.5-4 307.161 307.161 0 0 0 26-14v-3z"/>
    <path fill="#d9d8d9" d="M714.5 328.5c3.155-1.465 5.989-.799 8.5 2 2.793 4.908 3.126 9.908 1 15 .772-8.05-2.394-13.717-9.5-17z"/>
    <path fill="#e2dfb9" d="M625.5 321.5c5.484-.019 7.15 2.481 5 7.5-6.702.802-8.368-1.698-5-7.5z"/>
    <path fill="#d3d3d2" d="M344.5 359.5c.575-1.842.409-3.842-.5-6-.5-30.998-.667-61.998-.5-93 1.068-.934 2.401-1.268 4-1a964.55 964.55 0 0 0 3 92.5 40.831 40.831 0 0 1-1.5 11.5 25.14 25.14 0 0 0-4.5-4z"/>
    <path fill="#f5f5f5" d="M753.5 316.5v3a307.161 307.161 0 0 1-26 14 24.257 24.257 0 0 0-3-5.5l24-13c2.174-.877 3.841-.377 5 1.5z"/>
    <path fill="#bebebe" d="M787.5 303.5c-9.27 5.641-18.603 11.308-28 17-.929-1.189-1.262-2.522-1-4a440.295 440.295 0 0 0 25-14.5c1.693-.484 3.027.016 4 1.5z"/>
    <path fill="white" d="M787.5 303.5c-.973-1.484-2.307-1.984-4-1.5a440.295 440.295 0 0 1-25 14.5c-1.571-2.731-3.905-4.565-7-5.5a281.822 281.822 0 0 0 28-15c5.346-.49 8.012 2.01 8 7.5z"/>
    <path fill="#2d2d2d" d="m340.5 260.5-2 73c-.333-24.676 0-49.342 1-74 .607.124.94.457 1 1z"/>
    <path fill="#e6e2c0" d="M524.5 277.5c6.055-.558 7.388 1.609 4 6.5-4.93.427-6.263-1.74-4-6.5z"/>
    <path fill="#ece9b5" d="M421.5 271.5c4.623-1.092 6.456.575 5.5 5-3.251 2.96-5.418 2.293-6.5-2a10.014 10.014 0 0 1 1-3z"/>
    <path fill="#dedede" d="M579.5 273.5c2.483.23 2.983.897 1.5 2-1.03-.336-1.53-1.003-1.5-2z"/>
    <path fill="#898989" d="M345.5 249.5c.256 2.292-.077 4.459-1 6.5a2.428 2.428 0 0 0 2 .5c-5.534 2.358-9.2.692-11-5l1-3a23.832 23.832 0 0 0 9 1z"/>
    <path fill="white" d="M346.5 256.5a2.428 2.428 0 0 1-2-.5c.923-2.041 1.256-4.208 1-6.5a9.175 9.175 0 0 0 4.5-2 12.494 12.494 0 0 1 0 7c-.816 1.323-1.983 1.989-3.5 2z"/>
    <path fill="#8d8d8d" d="M346.5 240.5a343.58 343.58 0 0 1-1 4c.247 1.213.914 1.88 2 2-6.174 2.52-10.508.686-13-5.5l.5-2.5c3.563 2.681 7.396 3.348 11.5 2z"/>
    <path fill="#f0f0f0" d="M347.5 246.5c-1.086-.12-1.753-.787-2-2a343.58 343.58 0 0 0 1-4 20.69 20.69 0 0 1 5-1c.351 3.312-.982 5.645-4 7z"/>
    <path fill="#6e6e6e" d="M343.5 220.5a53.805 53.805 0 0 0-1 14h-3c-.986-4.47-1.319-9.137-1-14h5z"/>
    <path fill="#a0a0a0" d="M343.5 220.5h1a55.155 55.155 0 0 1-1 14.5 4.934 4.934 0 0 0 3 .5c-2.453 1.145-4.787.812-7-1h3a53.805 53.805 0 0 1 1-14z"/>
    <path fill="#e5e5e5" d="M347.5 218.5c1.151 5.15 1.317 10.484.5 16-.383.556-.883.889-1.5 1a4.934 4.934 0 0 1-3-.5 55.155 55.155 0 0 0 1-14.5c1.527.073 2.527-.594 3-2z"/>
    <path fill="white" d="M347.5 218.5c-2.613.935-5.279 1.102-8 .5-1.666-3.131-.666-4.631 3-4.5 2.877-.119 4.544 1.214 5 4z"/>
    <path fill="#939393" d="M525.5 175.5c.886-1.276 1.886-1.276 3 0-.925 1.062-1.925 1.062-3 0z"/>
    <path fill="white" d="M420.5 361.5c.17-1.322-.163-2.489-1-3.5a133.174 133.174 0 0 1-24-14c-4.265-1.245-7.598-.078-10 3.5a412.601 412.601 0 0 1-25 10c-.39-4.893-2.89-8.226-7.5-10-.688-.832-.521-1.498.5-2 1.695 1.844 3.695 3.177 6 4l23-11.5c4.426-.791 8.759-.457 13 1a666.01 666.01 0 0 0 28 15.5c1.4 3.332.4 5.665-3 7z"/>
    <path fill="white" d="M518.5 335.5c4.692.341 9.026 1.841 13 4.5a1361.394 1361.394 0 0 0 107 56.5c1.333.667 1.333 1.333 0 2a11652.54 11652.54 0 0 0-125 77 3135.307 3135.307 0 0 1-114-62.5c.259-1.261.926-2.261 2-3 39.065-24.858 78.065-49.691 117-74.5z"/>
    <path fill="#f8f8f8" d="M710.5 340.5c.262 1.478-.071 2.811-1 4a615.509 615.509 0 0 0-50 28.5l-9.5 9.5c-1.073.299-2.24.299-3.5 0v-5c2.376-5.215 6.043-9.382 11-12.5a1604.2 1604.2 0 0 0 47-26c2.489-.941 4.489-.441 6 1.5z"/>
    <path fill="#2b2b2b" d="M525.5 342.5a12.93 12.93 0 0 0-5 .5c1.238.69 1.238 1.19 0 1.5-2.147-1.432-2.48-3.265-1-5.5 3.455-1.111 5.455.056 6 3.5z"/>
    <path fill="#8f8f8f" d="M525.5 342.5c-1.323 2.182-2.99 2.849-5 2 1.238-.31 1.238-.81 0-1.5a12.93 12.93 0 0 1 5-.5z"/>
    <path fill="#bababa" d="M420.5 361.5v1a233.285 233.285 0 0 1-25-14.5 50.464 50.464 0 0 0-10-.5c2.402-3.578 5.735-4.745 10-3.5a133.174 133.174 0 0 0 24 14c.837 1.011 1.17 2.178 1 3.5z"/>
    <path fill="#bebebe" d="M385.5 347.5c.086.996-.248 1.829-1 2.5l5 1c-2.208.191-4.208.691-6 1.5a169.305 169.305 0 0 0-22 11 9.86 9.86 0 0 1-1-6 412.601 412.601 0 0 0 25-10zM427.5 353.5c2.26.738 2.427 1.738.5 3a4.934 4.934 0 0 1-.5-3z"/>
    <path fill="#f9fafa" d="M382.5 354.5a33.724 33.724 0 0 1 11 1.5c11.53 5.751 22.53 11.918 33 18.5-5.808 5.659-5.141 10.493 2 14.5a358.988 358.988 0 0 1-30 20 23.65 23.65 0 0 0-3 3.5 557.779 557.779 0 0 1-55-31.5c4.876-4.607 10.543-7.941 17-10a14.506 14.506 0 0 0 4-5 158.263 158.263 0 0 0 21-11.5z"/>
    <path fill="#717171" d="M385.5 347.5c3.35-.165 6.683.002 10 .5a233.285 233.285 0 0 0 25 14.5 12.93 12.93 0 0 1-.5 5 852.33 852.33 0 0 0-24.5-13.5 31.818 31.818 0 0 0-12-1.5c1.792-.809 3.792-1.309 6-1.5l-5-1c.752-.671 1.086-1.504 1-2.5z"/>
    <path fill="white" d="M352.5 350.5c4.074 2.487 5.741 6.153 5 11 .916 4.306-.584 7.306-4.5 9-.5-6.658-.666-13.325-.5-20z"/>
    <path fill="white" d="M339.5 366.5v5c-4.607-.067-6.607 1.933-6 6 1.427 3.264 3.761 5.764 7 7.5a1138.36 1138.36 0 0 0 56 31c.837 1.011 1.17 2.178 1 3.5v2a1112.556 1112.556 0 0 1-68-36.5 74.599 74.599 0 0 1-6-14.5c3.317-3.331 7.317-5.665 12-7 1.917.254 3.251 1.254 4 3z"/>
    <path fill="#f0f0f0" d="M453.5 373.5a157.785 157.785 0 0 1-18.5-9c-1.567 1.356-3.4 2.023-5.5 2-1.459.067-2.792-.266-4-1-1.604-.787-2.271-2.12-2-4a29.2 29.2 0 0 1 7.5 1c2.076-1.112 4.243-1.612 6.5-1.5l20 10c-.971 1.481-2.304 2.315-4 2.5z"/>
    <path fill="#191919" d="M502.5 364.5c1.256-.039 2.256.461 3 1.5a6430.852 6430.852 0 0 1-63.5 40.5l-1.5-1a76518.545 76518.545 0 0 1 62-41z"/>
    <path fill="#c7c7c7" d="M339.5 362.5c1.101-1.098 2.434-1.265 4-.5a55.747 55.747 0 0 0 5.5 4.5c1.31 4.2-.19 6.867-4.5 8a42.769 42.769 0 0 1-1.5-9 14.698 14.698 0 0 0-3.5-3z"/>
    <path fill="#626262" d="M425.5 365.5c1.208.734 2.541 1.067 4 1a89.212 89.212 0 0 1 19 10c-.874 1.025-2.041 1.692-3.5 2a617.444 617.444 0 0 0-21.5-10c1.112-.765 1.779-1.765 2-3z"/>
    <path fill="#c0bfc0" d="M453.5 373.5c-1.465 1.237-3.132 2.237-5 3a89.212 89.212 0 0 0-19-10c2.1.023 3.933-.644 5.5-2a157.785 157.785 0 0 0 18.5 9z"/>
    <path fill="#999" d="M339.5 366.5c1.306 3.187 1.306 6.52 0 10-2.224.825-4.224 1.159-6 1-.607-4.067 1.393-6.067 6-6v-5z"/>
    <path fill="#3f3f3f" d="M516.5 373.5c5.948.126 6.281 1.126 1 3-2.303-.376-2.637-1.376-1-3z"/>
    <path fill="#efefef" d="M432.5 380.5c-.432-1.21-1.099-2.21-2-3-1.062-1.075-1.062-2.075 0-3a45.457 45.457 0 0 1 11 6.5l-9 5.5c-.246-1.72-.246-3.72 0-6z"/>
    <path fill="#737373" d="M582.5 373.5c2.666-.434 3.833.566 3.5 3-2.044 1.272-3.878.939-5.5-1a31.147 31.147 0 0 0 2-2z"/>
    <path fill="#959595" d="M322.5 370.5c.986 4.649 1.986 9.316 3 14-1.792-.134-3.458.199-5 1-.722-.418-1.222-1.084-1.5-2-.667-3-.667-6 0-9 .66-1.824 1.827-3.157 3.5-4z"/>
    <path fill="#9c9c9c" d="M430.5 377.5c.901.79 1.568 1.79 2 3-1.643-.02-2.976.647-4 2-5.528-3.065-5.194-4.065 1-3 .798-.457 1.131-1.124 1-2z"/>
    <path fill="#040404" d="M532.5 382.5c.876-.131 1.543.202 2 1-2.308 1.373-2.975 1.04-2-1z"/>
    <path fill="#353535" d="M528.5 385.5a4.934 4.934 0 0 1 3 .5c-1.795 1.488-3.795 2.154-6 2a81.316 81.316 0 0 0 3-2.5z"/>
    <path fill="#9d9c9c" d="M646.5 377.5v5a11.637 11.637 0 0 0 2 5c.896-1.006 1.562-1.006 2 0a143.695 143.695 0 0 0-4.5 18l-1-9c-.5 6.325-.666 12.658-.5 19-.52-6.864-1.52-14.364-3-22.5a226.481 226.481 0 0 0 1.5-8.5c.522-2.781 1.689-5.115 3.5-7z"/>
    <path fill="#c8c8b8" d="M733.5 382.5c1.929-.269 3.595.231 5 1.5-3.443.221-3.776 1.221-1 3a41.147 41.147 0 0 0 9 4l-1.5 1.5c-4.349-.668-8.016-2.668-11-6a8.43 8.43 0 0 1-.5-4z"/>
    <path fill="#1d1d1d" d="M602.5 389.5c3.096-.593 5.429.407 7 3-2.027 1.839-4.36 2.339-7 1.5-1.228-1.49-1.228-2.99 0-4.5z"/>
    <path fill="#c7c8c8" d="M710.5 340.5c.839 1.141 1.506 2.474 2 4a308.434 308.434 0 0 1-40 24.5 446.332 446.332 0 0 0-16.5 11.5 382.256 382.256 0 0 0-5 22c-1.33 4.868-3.496 9.201-6.5 13-.166-6.342 0-12.675.5-19l1 9a143.695 143.695 0 0 1 4.5-18c-.438-1.006-1.104-1.006-2 0a11.637 11.637 0 0 1-2-5c1.26.299 2.427.299 3.5 0l9.5-9.5a615.509 615.509 0 0 1 50-28.5c.929-1.189 1.262-2.522 1-4z"/>
    <path fill="#d6d6d6" d="M603.5 392.5c1.101-1.098 2.434-1.265 4-.5-1.182 1.768-2.515 1.935-4 .5z"/>
    <path fill="#1c1c1c" d="M556.5 391.5a18.453 18.453 0 0 1 6 .5c1.227 1.587.894 2.921-1 4-2.863.965-5.196.298-7-2 .556-1.011 1.222-1.844 2-2.5z"/>
    <path fill="#ccc" d="M557.5 392.5h3v3c-2.994.354-3.994-.646-3-3z"/>
    <path fill="#202020" d="M622.5 391.5c9.486 3.358 9.153 4.858-1 4.5-1.243-1.816-.91-3.316 1-4.5z"/>
    <path fill="#9e9e9e" d="M621.5 394.5c2.017-1.374 4.017-1.207 6 .5-2.045.49-4.045.323-6-.5z"/>
    <path fill="#d2d1cd" d="M741.5 392.5c1.879-.107 2.212.393 1 1.5-3.375.632-3.709.132-1-1.5z"/>
    <path fill="#b5b5b5" d="M322.5 370.5h1a74.599 74.599 0 0 0 6 14.5 1112.556 1112.556 0 0 0 68 36.5v3c-25.509-10.752-49.509-24.085-72-40a3408.994 3408.994 0 0 1-3-14z"/>
    <path fill="#ebebec" d="M695.5 404.5c8.277-.035 13.277 3.965 15 12-.467 2.648-1.634 4.981-3.5 7-2.596-7.719-7.763-12.886-15.5-15.5 1.231-1.405 2.564-2.571 4-3.5z"/>
    <path fill="#242424" d="M412.5 407.5c3.529-.611 5.362.723 5.5 4-2.901 2.818-5.401 2.484-7.5-1a185.977 185.977 0 0 0 2-3z"/>
    <path fill="#fbfbfb" d="M412.5 410.5c1.101-1.098 2.434-1.265 4-.5-1.182 1.768-2.515 1.935-4 .5z"/>
    <path fill="#e0e0e0" d="M630.5 478.5a2.428 2.428 0 0 1-2-.5 32.367 32.367 0 0 0-3-4.5 1217.9 1217.9 0 0 1-29.5-15c-8.644 2.821-12.81 8.821-12.5 18a102.616 102.616 0 0 0-4 15.5c.556.383.889.883 1 1.5-6.121 3.555-9.788 8.888-11 16-.934-1.068-1.268-2.401-1-4a100.276 100.276 0 0 1 8-21c3.903-2.85 3.403-3.517-1.5-2-6.756 10.693-10.256 22.359-10.5 35-.427 4.251-1.593 8.251-3.5 12-2.045 1.426-4.212 2.426-6.5 3-9.623 3.555-13.956 10.555-13 21v1c-1.951 1.216-3.451 2.882-4.5 5-5.269 12.332-9.436 24.332-12.5 36-2.344.479-3.678 1.979-4 4.5.07.765.403 1.265 1 1.5 1.395 1.148 1.228 2.148-.5 3-1.646-1.279-2.813-2.945-3.5-5a498.402 498.402 0 0 1-3 8 2177.116 2177.116 0 0 0 0-127c-.342-.838-1.008-1.172-2-1-.342-.838-1.008-1.172-2-1l-8-6a28.53 28.53 0 0 1 9 4.5c1.333.667 2.667.667 4 0A7666.684 7666.684 0 0 1 641 398.5c-.213 28.322-.546 56.655-1 85a129.747 129.747 0 0 0-9.5-5z"/>
    <path fill="#242424" d="M631.5 412.5h4c.672 3.408-.328 6.075-3 8-1.446-.671-2.112-1.838-2-3.5a53.508 53.508 0 0 1 1-4.5z"/>
    <path fill="#ddd" d="M633.5 413.5c1.282 1.208 1.282 2.542 0 4-1.126-1.308-1.126-2.642 0-4z"/>
    <path fill="#171717" d="M443.5 416.5a18.453 18.453 0 0 1 6 .5c.844 3.01-.489 4.51-4 4.5-3.885-.739-4.552-2.406-2-5z"/>
    <path fill="#d0d0d0" d="M444.5 417.5c1.603-.188 2.937.312 4 1.5-1.963.844-3.296.344-4-1.5z"/>
    <path fill="#6e6e6e" d="M325.5 384.5c22.491 15.915 46.491 29.248 72 40a24.935 24.935 0 0 1-.5 7 7518.178 7518.178 0 0 1-70.5-40 25.619 25.619 0 0 1-6-6c1.542-.801 3.208-1.134 5-1z"/>
    <path fill="#373737" d="M483.5 420.5a8.43 8.43 0 0 1 4 .5c.951.718 1.117 1.551.5 2.5-3.994 1.853-5.494.853-4.5-3z"/>
    <path fill="#9d9d9d" d="M693.5 421.5c.091-2.198-.575-2.531-2-1v-1c1.414-2.098.748-3.098-2-3-.203-1.544-.87-2.878-2-4 6.335-1.663 10.668.67 13 7a16.635 16.635 0 0 1-5 6 71.254 71.254 0 0 0-2-4z"/>
    <path fill="#1b1b1b" d="M586.5 405.5a4.934 4.934 0 0 1 3 .5c1.333.667 1.333 1.333 0 2a810.393 810.393 0 0 0-46 28 76.643 76.643 0 0 1-7.5 3.5l-1.5-1a46992.588 46992.588 0 0 0 52-33z"/>
    <path fill="#646464" d="M449.5 443.5c1.836 2.088 4.169 3.421 7 4 .992-.172 1.658.162 2 1 5.184 3.76 10.85 6.76 17 9 .992-.172 1.658.162 2 1 1.836 2.088 4.169 3.421 7 4 5.39 4.363 11.39 7.697 18 10l8 6c1.327 43.266 1.327 86.6 0 130l-47-28.5c-1.621-2.166-2.455-4.666-2.5-7.5-1.264-2.107-3.097-3.107-5.5-3a12.93 12.93 0 0 1-.5 5 2030.999 2030.999 0 0 0-52-31c-1.57-5.553-1.903-11.219-1-17l5-3c1.678 4.589 4.178 5.089 7.5 1.5a32.97 32.97 0 0 1 6-7.5 64.097 64.097 0 0 0-7-8.5 21.438 21.438 0 0 1 5 0l-2-3c-2.351.14-4.684.64-7 1.5a26.707 26.707 0 0 1-7-5c-.722-.418-1.222-1.084-1.5-2a132.434 132.434 0 0 1 0-23 90.996 90.996 0 0 1 17.5-10 17.354 17.354 0 0 1 7 3.5c7.177 1.926 10.844-.741 11-8-.91-9.578-6.077-15.412-15.5-17.5a325.553 325.553 0 0 0-19.5 12 121.862 121.862 0 0 1-1-22c-.166-6.342 0-12.675.5-19a2570.156 2570.156 0 0 1 48.5 27z"/>
    <path fill="#eaeaea" d="M689.5 416.5c2.748-.098 3.414.902 2 3a42.302 42.302 0 0 0-8 3.5 303.44 303.44 0 0 0-20 13.5c-2.174.25-3.841 1.25-5 3a12.93 12.93 0 0 1-5-.5 1035.826 1035.826 0 0 1 36-22.5z"/>
    <path fill="#4e4e4e" d="M691.5 419.5v1a241.704 241.704 0 0 0-25 15.5 4.934 4.934 0 0 1-3 .5 303.44 303.44 0 0 1 20-13.5 42.302 42.302 0 0 1 8-3.5z"/>
    <path fill="#c3c3c3" d="M693.5 421.5a63916.6 63916.6 0 0 1-37 22.5c-2.671.833-5.004.333-7-1.5-.219-1.175.114-2.175 1-3l4 4c1.688-1.021 3.021-2.355 4-4 1.159-1.75 2.826-2.75 5-3a4.934 4.934 0 0 0 3-.5 241.704 241.704 0 0 1 25-15.5c1.425-1.531 2.091-1.198 2 1z"/>
    <path fill="#151515" d="M407.5 430.5c6.012.343 8.012 3.343 6 9-4.851 1.677-7.518-.156-8-5.5a11.803 11.803 0 0 1 2-3.5z"/>
    <path fill="#8f8f8f" d="M408.5 432.5c3.279.531 4.613 2.531 4 6-3.568-.259-4.901-2.259-4-6z"/>
    <path fill="#3c3c3c" d="M451.5 436.5h4v3c-1.788.285-3.455-.048-5-1 .363-.683.696-1.35 1-2z"/>
    <path fill="#1d1d1d" d="M605.5 430.5c1.042-1.291 2.208-1.291 3.5 0 .127 5.207-2.373 7.707-7.5 7.5-1.2-3.765.134-6.265 4-7.5z"/>
    <path fill="#e0e0e0" d="M605.5 430.5c2.766 2.567 2.266 4.567-1.5 6l-1.5-1a18.67 18.67 0 0 1 3-5z"/>
    <path fill="#b9b9b9" d="M449.5 443.5c2.831.579 5.164 1.912 7 4-2.831-.579-5.164-1.912-7-4z"/>
    <path fill="#ededed" d="M649.5 442.5c1.316 2.322 2.649 4.656 4 7-2.961 5.407-4.794 5.073-5.5-1a55.747 55.747 0 0 1-4.5-5.5 18.453 18.453 0 0 1 6-.5z"/>
    <path fill="#181818" d="M636.5 452.5c-.712-1.239-1.712-1.739-3-1.5-1.36 2.808-.693 3.641 2 2.5-.683 1.676-2.017 2.343-4 2-1.075-4.438.592-6.438 5-6v3z"/>
    <path fill="#757575" d="M636.5 452.5c0 .667-.333 1-1 1-2.693 1.141-3.36.308-2-2.5 1.288-.239 2.288.261 3 1.5z"/>
    <path fill="#c5c5c5" d="M458.5 448.5c6.15 2.24 11.816 5.24 17 9-6.15-2.24-11.816-5.24-17-9z"/>
    <path fill="#161616" d="M440.5 451.5c5.54.028 7.207 2.528 5 7.5-5.034-.206-6.7-2.706-5-7.5z"/>
    <path fill="#7a7a7a" d="M441.5 453.5h3c.262 1.478-.071 2.811-1 4-1.611-.82-2.278-2.154-2-4z"/>
    <path fill="#0e0e0e" d="M491.5 455.5c1.478-.262 2.811.071 4 1l-2 1c-1.213-.247-1.88-.914-2-2z"/>
    <path fill="#101010" d="M455.5 454.5c4.022-.482 6.022 1.352 6 5.5-1.975 4.337-4.141 4.504-6.5.5-.678-2.098-.511-4.098.5-6z"/>
    <path fill="#939393" d="M456.5 455.5c2.475 1.187 3.475 3.187 3 6-3.657-.647-4.657-2.647-3-6z"/>
    <path fill="#e4e0c4" d="M731.5 483.5c5.516-.027 6.849 2.14 4 6.5-4.93.427-6.263-1.74-4-6.5z"/>
    <path fill="#121212" d="M326.5 391.5a7518.178 7518.178 0 0 0 70.5 40c.497-2.31.663-4.643.5-7v-5c.617.111 1.117.444 1.5 1 .174 5.184.674 10.184 1.5 15a121.862 121.862 0 0 0 1 22 325.553 325.553 0 0 1 19.5-12c9.423 2.088 14.59 7.922 15.5 17.5-.156 7.259-3.823 9.926-11 8a17.354 17.354 0 0 0-7-3.5 90.996 90.996 0 0 0-17.5 10 132.434 132.434 0 0 0 0 23c.278.916.778 1.582 1.5 2a18.473 18.473 0 0 0 2 3.5c-2.903.569-4.903 2.235-6 5a123.713 123.713 0 0 1 4.5 12.5c2.164-2.303 4.831-3.637 8-4-.202-3.374-1.202-6.374-3-9 5.245 2.139 6.745 5.806 4.5 11 .774 1.211 1.607 1.211 2.5 0 .683-5.637-1.15-10.303-5.5-14 2.316-.86 4.649-1.36 7-1.5l2 3a21.438 21.438 0 0 0-5 0 64.097 64.097 0 0 1 7 8.5 32.97 32.97 0 0 0-6 7.5c-3.322 3.589-5.822 3.089-7.5-1.5l-5 3c-.903 5.781-.57 11.447 1 17a2030.999 2030.999 0 0 1 52 31 12.93 12.93 0 0 0 .5-5c2.403-.107 4.236.893 5.5 3 .045 2.834.879 5.334 2.5 7.5l47 28.5c1.327-43.4 1.327-86.734 0-130 .992-.172 1.658.162 2 1-.331 28.505.002 56.838 1 85v43c.343 1.725 1.343 2.225 3 1.5a237.474 237.474 0 0 0 18-10.5 62.722 62.722 0 0 0 9-6 1088.812 1088.812 0 0 0 37-23 64.735 64.735 0 0 1-9-6l-4 2a4806.052 4806.052 0 0 1-10-6c-.235-.597-.735-.93-1.5-1-6.706 3.557-11.54 1.891-14.5-5-.956-10.445 3.377-17.445 13-21 4.771-.408 7.771 1.759 9 6.5a288.477 288.477 0 0 1 20 11.5 7900.78 7900.78 0 0 0 16 9 2243.86 2243.86 0 0 0 37.5-25 7.293 7.293 0 0 1 2-3c.181-9.244.681-18.411 1.5-27.5a55.747 55.747 0 0 0-5.5-4.5c-1.191 3.034-3.358 4.701-6.5 5-.396-2.544.271-4.711 2-6.5-4.77-4.894-10.437-6.561-17-5a83.533 83.533 0 0 0-15-8.5c-.342-.838-1.008-1.172-2-1-1.48-2.103-2.647-2.103-3.5 0-1.98-4.415-1.813-8.749.5-13 2.006-2.855 4.672-5.021 8-6.5-3.849-3.462-7.515-3.295-11 .5-1.452 1.44-2.452 3.106-3 5-1.145 3.811-1.312 7.811-.5 12 1.767 3.272 4.267 5.605 7.5 7-.704 1.844-2.037 2.344-4 1.5-4.339-3.494-6.672-7.994-7-13.5-.31-9.179 3.856-15.179 12.5-18a1217.9 1217.9 0 0 0 29.5 15 32.367 32.367 0 0 1 3 4.5 2.428 2.428 0 0 0 2 .5c.172.992-.162 1.658-1 2a19.209 19.209 0 0 1-6.5-3c-1.72.884-2.886 2.217-3.5 4-.838.342-1.172 1.008-1 2-.913 1.586-.913 3.086 0 4.5 56.6 31.13 113.267 61.964 170 92.5a35.061 35.061 0 0 1-8 6c-.342-.838-1.008-1.172-2-1a208.311 208.311 0 0 1 5-4.5A5695.33 5695.33 0 0 1 643 504.5a308.517 308.517 0 0 1-3 30 384.97 384.97 0 0 1-34.5 23.5c-1.563.759-2.563 1.926-3 3.5-.838.342-1.172 1.008-1 2a619.261 619.261 0 0 1-29-16c-1.761.535-3.094 1.535-4 3-.901.79-1.568 1.79-2 3-1.098 1.101-1.265 2.434-.5 4A31362.247 31362.247 0 0 1 707.5 637a8.43 8.43 0 0 0 4 .5c4.738 1.327 9.405.993 14-1 .667 0 1 .333 1 1-3.292 2.136-6.958 3.469-11 4-5.713-.527-11.046-2.194-16-5a4969.309 4969.309 0 0 0-101.5-58l-1 11-11 24c-1.33 6.845.836 12.345 6.5 16.5l13.5 7.5c2.612-3.076 5.779-3.743 9.5-2a22.136 22.136 0 0 1 3 6 326.3 326.3 0 0 1 26 16c4.334-3.754 8.667-3.588 13 .5a207.984 207.984 0 0 1 12 12.5c-.131.876.202 1.543 1 2a231.648 231.648 0 0 1 27.5 17c.591 3.663 2.258 6.663 5 9 .333 4.798-.167 9.464-1.5 14a1233.296 1233.296 0 0 0 2 33c2.217.717 3.551 2.217 4 4.5a123.589 123.589 0 0 1-6 8.5c3.672.994 6.338 3.16 8 6.5-1.02 2.859-3.02 4.359-6 4.5a176.147 176.147 0 0 0 1 20c1.322-.17 2.489.163 3.5 1 .652 3.094.318 6.094-1 9-4.291 2.065-6.957.732-8-4a213.823 213.823 0 0 0 2.5-12 51.175 51.175 0 0 0-2-13c-3.193-.728-5.193-2.561-6-5.5l.5-2.5a145.713 145.713 0 0 0 6.5-5.5 54.737 54.737 0 0 1-5-7.5c.6-2.436 2.1-4.102 4.5-5a1064.29 1064.29 0 0 0-1-37c-2.016-1.339-3.183-3.172-3.5-5.5 3.177-4.952 2.51-9.285-2-13l-25-14.5a13.049 13.049 0 0 1-4 3c-1.239-.442-2.239-1.109-3-2a171.025 171.025 0 0 0-14-2c-3.568-1.91-5.568-4.91-6-9a9.175 9.175 0 0 1 2-4.5 360.237 360.237 0 0 0-27.5-16.5c-5.286 3.115-9.12 1.781-11.5-4a140.729 140.729 0 0 0-14-7.5c-5.978-4.786-8.478-10.952-7.5-18.5a302.632 302.632 0 0 1 10-21c1.841-4.866 2.508-9.866 2-15-3.953-3.4-8.453-5.233-13.5-5.5l-54 34a132.82 132.82 0 0 1-14 6.5 525508.182 525508.182 0 0 0-113-67.5c-1.658-5.654-2.491-11.487-2.5-17.5a67.96 67.96 0 0 0-13 9 398.935 398.935 0 0 0-5 32c-1.446 5.395-4.279 9.895-8.5 13.5a337.406 337.406 0 0 1-21 13c-3.397 5.699-8.063 10.032-14 13-3.407.482-6.74.482-10 0a474.485 474.485 0 0 1-49 31.5 62.902 62.902 0 0 1-11.5 6c-3.247-1.082-5.747-3.082-7.5-6-.506-3.507.16-6.674 2-9.5a1243.043 1243.043 0 0 0 58-34c.334-3.987 2-7.32 5-10l9-5a45.304 45.304 0 0 1 10 0l16-9c3.262-2.592 5.762-5.759 7.5-9.5a206.658 206.658 0 0 0 5-28c.839-6.168 4.006-10.668 9.5-13.5a87.45 87.45 0 0 1 11-6 143.68 143.68 0 0 0 7-12 193.033 193.033 0 0 0-18.5-13.5 263.804 263.804 0 0 0-15.5 5.5c-5.926 1.11-11.592.444-17-2l-4-5a1448.134 1448.134 0 0 1-30.5-19.5c-.166 17.01.334 34.01 1.5 51 2.72 3.061 2.553 6.061-.5 9a61.981 61.981 0 0 1-2 13l-3.5 3.5a387.056 387.056 0 0 0-23 13c-6.521 4.194-11.855 3.194-16-3l-10-6c-3.206.801-6.539 1.135-10 1-2.926-2.396-5.26-5.23-7-8.5.996-.086 1.829.248 2.5 1 3.451-5.853 7.785-6.519 13-2 .093 2.507.926 4.674 2.5 6.5a103.59 103.59 0 0 1 12 6.5c4.117-2.788 7.117-1.788 9 3a174.66 174.66 0 0 0 28.5-17c.85-5.482.35-10.816-1.5-16-.023-1.567.477-2.9 1.5-4a468.796 468.796 0 0 0-.5-53 1378.295 1378.295 0 0 1-83-54.5c-2.633.253-5.3.253-8 0-4-3.333-4-6.667 0-10 5.559-.782 8.392 1.718 8.5 7.5a2737.594 2737.594 0 0 0 83 55c.59-5.847 3.257-10.514 8-14-.753-7.906 2.747-10.739 10.5-8.5 2.35 2.373 2.517 4.873.5 7.5a49.325 49.325 0 0 0-12 5c-2.846 3.538-3.846 7.538-3 12a1425.876 1425.876 0 0 1 30.5 19c3.705-6.235 8.705-7.569 15-4 4.872.392 8.206-1.608 10-6a398.602 398.602 0 0 0 28.5-16c.563-8.936.063-17.769-1.5-26.5a1247.263 1247.263 0 0 1-72-39.5c.333-1 1-1.667 2-2z"/>
    <path fill="#0c0c0c" d="M445.5 497.5c8.192.671 13.692 5.004 16.5 13 1.476 4.576 1.81 9.243 1 14a11.532 11.532 0 0 1-3.5 4.5c-4.153.884-7.986 2.384-11.5 4.5-1.895-.115-3.562-.782-5-2a134.694 134.694 0 0 1-6.5-14c-.158-1.819.509-3.152 2-4a34.251 34.251 0 0 1 1.5 8c3.384 5.309 6.717 5.309 10 0 .271-8.109-3.563-11.442-11.5-10-1.381-.5-2.047-1.5-2-3 1.223-5.214 4.223-8.881 9-11z"/>
    <path fill="#141414" d="M424.5 481.5c6.594.021 8.928 3.188 7 9.5-6.138-.002-8.471-3.169-7-9.5z"/>
    <path fill="#767676" d="M583.5 476.5c.328 5.506 2.661 10.006 7 13.5 1.963.844 3.296.344 4-1.5 1.037-1.43 1.704-3.097 2-5 .992-.172 1.658.162 2 1-1.077 4.215-1.744 8.215-2 12-4.663-4.043-9.997-5.043-16-3-.111-.617-.444-1.117-1-1.5a102.616 102.616 0 0 1 4-15.5z"/>
    <path fill="#171717" d="M406.5 487.5c5.783 1.403 7.783 4.903 6 10.5-4.539.305-7.206-1.861-8-6.5.252-1.573.918-2.906 2-4z"/>
    <path fill="#abaaab" d="M406.5 490.5c3.651-.338 5.317 1.328 5 5-3.333 0-5-1.667-5-5z"/>
    <path fill="#9a9a9a" d="M375.5 482.5c1.113 1.446 1.28 3.113.5 5-7.518 4.708-15.684 6.208-24.5 4.5-3.652-1.208-4.652-3.375-3-6.5 8.662 2.871 17.329 2.537 26-1 .798-.457 1.131-1.124 1-2z"/>
    <path fill="#9b9b9b" d="M426.5 483.5c3.154.974 4.154 2.974 3 6-2.478-1.222-3.478-3.222-3-6z"/>
    <path fill="#121212" d="M470.5 485.5c5.484-.019 7.15 2.481 5 7.5-5.207.117-6.874-2.383-5-7.5z"/>
    <path fill="#8d8d8d" d="M471.5 486.5c2.584.548 3.584 2.215 3 5h-3v-5z"/>
    <path fill="#646464" d="M601.5 476.5a40.983 40.983 0 0 0 13 7c.176 2.948.176 5.614 0 8a255.756 255.756 0 0 0-12.5-10 12.93 12.93 0 0 1-.5-5z"/>
    <path fill="#101010" d="M496.5 478.5c3.959-.922 6.292.578 7 4.5-.609 2.803-2.275 3.803-5 3 2.532-.612 3.365-2.112 2.5-4.5-1.011-.837-2.178-1.17-3.5-1 .174 4.521-.493 4.855-2 1a5.576 5.576 0 0 0 1-3z"/>
    <path fill="#f4f4f4" d="M397.5 478.5c1.155 6.821 1.321 13.821.5 21L382.5 488a251.658 251.658 0 0 0 15-9.5z"/>
    <path fill="#f3f3f3" d="M375.5 482.5c.131.876-.202 1.543-1 2-8.671 3.537-17.338 3.871-26 1 .453-.958 1.119-1.792 2-2.5 4.632.393 9.299.393 14 0 2.49-1.149 4.99-2.316 7.5-3.5 1.642.478 2.809 1.478 3.5 3z"/>
    <path fill="#595959" d="m587.5 469.5 6 1c-2.313 4.251-2.48 8.585-.5 13 .853-2.103 2.02-2.103 3.5 0-.296 1.903-.963 3.57-2 5-3.233-1.395-5.733-3.728-7.5-7-.812-4.189-.645-8.189.5-12z"/>
    <path fill="#333" d="M526.5 477.5c3.976 1.998 3.809 3.998-.5 6-1.28-.113-2.113-.78-2.5-2a514.367 514.367 0 0 0 3-4z"/>
    <path fill="#adadad" d="M603.5 472.5a310.536 310.536 0 0 0 11 5.5c.566.995 1.233 1.828 2 2.5l-2 3a40.983 40.983 0 0 1-13-7c.16-1.653.826-2.986 2-4z"/>
    <path fill="#888" d="M597.5 470.5c-.237 1.291.096 2.291 1 3a20.81 20.81 0 0 1-2 6c-1.43-3.309-1.096-6.309 1-9z"/>
    <path fill="#eee" d="M616.5 480.5c-.767-.672-1.434-1.505-2-2.5a310.536 310.536 0 0 1-11-5.5c.892-2.214 2.558-3.214 5-3a124.6 124.6 0 0 1 14 5.5c-2.496 1.331-4.496 3.164-6 5.5z"/>
    <path fill="#e1e1e1" d="M598.5 473.5c-.904-.709-1.237-1.709-1-3 2.264-4.136 5.598-5.469 10-4-3.876 1.209-6.876 3.543-9 7z"/>
    <path fill="#b7b7b7" d="M421.5 453.5c.387 2.576.721 5.242 1 8a926.387 926.387 0 0 0-42.5 26 31.894 31.894 0 0 0-1.5-6 390.659 390.659 0 0 0 42.5-25 4.934 4.934 0 0 0 .5-3z"/>
    <path fill="#d2d2d2" d="M484.5 462.5c6.33 2.83 12.33 6.163 18 10-6.61-2.303-12.61-5.637-18-10z"/>
    <path fill="#505050" d="M431.5 458.5c1.134 2.466 1.301 5.133.5 8-1.11 1.537-2.61 2.203-4.5 2 .106-2.608 1.272-4.608 3.5-6a8.43 8.43 0 0 0 .5-4z"/>
    <path fill="#1e1e1e" d="M560.5 459.5h4c.478 2.778-.522 4.778-3 6-1.22-.387-1.887-1.22-2-2.5a14.093 14.093 0 0 0 1-3.5z"/>
    <path fill="#191919" d="M515.5 464.5c-1.517 1.235-3.184 1.235-5 0-1.083-.865-1.249-1.865-.5-3 2.401-1.102 4.901-1.269 7.5-.5 1.34 2.149.673 3.316-2 3.5z"/>
    <path fill="#d9d9d9" d="M515.5 464.5c-4.867-.668-5.034-1.668-.5-3 1.728.852 1.895 1.852.5 3z"/>
    <path fill="#ebebeb" d="m593.5 470.5-6-1c.548-1.894 1.548-3.56 3-5 3.485-3.795 7.151-3.962 11-.5-3.328 1.479-5.994 3.645-8 6.5z"/>
    <path fill="#d8d8d8" d="M561.5 460.5c2.146.196 2.312 1.196.5 3a4.934 4.934 0 0 1-.5-3z"/>
    <path fill="#d0d0d0" d="M477.5 458.5c2.831.579 5.164 1.912 7 4-2.831-.579-5.164-1.912-7-4z"/>
    <path fill="#7a7a7a" d="M420.5 449.5c4.543.61 7.543 3.11 9 7.5a19.357 19.357 0 0 1-7 4.5 166.984 166.984 0 0 0-1-8l-1-4z"/>
    <path fill="white" d="m420.5 449.5 1 4a4.934 4.934 0 0 1-.5 3 390.659 390.659 0 0 1-42.5 25 19.552 19.552 0 0 0-3.5-4c-.688-.832-.521-1.498.5-2a14499.927 14499.927 0 0 1 45-26z"/>
    <path fill="#ddd" d="M598.5 484.5a83.533 83.533 0 0 1 15 8.5c6.563-1.561 12.23.106 17 5-1.729 1.789-2.396 3.956-2 6.5 3.142-.299 5.309-1.966 6.5-5a55.747 55.747 0 0 1 5.5 4.5 391.806 391.806 0 0 0-1.5 27.5 7.293 7.293 0 0 0-2 3 2243.86 2243.86 0 0 1-37.5 25 7900.78 7900.78 0 0 1-16-9c3.042-7.274 4.709-14.94 5-23 10.173-3.298 14.34-10.298 12.5-21a14.506 14.506 0 0 0-4-5 12.93 12.93 0 0 1-.5-5c.256-3.785.923-7.785 2-12z"/>
    <path fill="#e1e1e1" d="M630.5 499.5c2.156.372 2.156 1.372 0 3-1.062-.925-1.062-1.925 0-3z"/>
    <path fill="#818181" d="M445.5 500.5c3.978-.534 6.978.966 9 4.5-2.21 1.509-4.043 3.342-5.5 5.5a6.978 6.978 0 0 0-3.5-2.5 118.954 118.954 0 0 0-6-.5c1.333-2.993 3.333-5.327 6-7z"/>
    <path fill="#fafbfb" d="M778.5 585.5a202.205 202.205 0 0 0-21 13c-4.784-2.813-9.451-2.646-14 .5-5.015 2.846-8.348 7.012-10 12.5a49.189 49.189 0 0 0-11 7.5c-3.539 1.504-7.205 1.837-11 1a9417.425 9417.425 0 0 0-109-58.5c.437-1.574 1.437-2.741 3-3.5a384.97 384.97 0 0 0 34.5-23.5 308.517 308.517 0 0 0 3-30A5695.33 5695.33 0 0 0 783.5 581a208.311 208.311 0 0 0-5 4.5z"/>
    <path fill="#a2a2a2" d="M514.5 480.5a2177.116 2177.116 0 0 1 0 127h-1v-43c-.331-28.172.002-56.172 1-84z"/>
    <path fill="gray" d="M402.5 502.5a26.707 26.707 0 0 0 7 5c4.35 3.697 6.183 8.363 5.5 14-.893 1.211-1.726 1.211-2.5 0 2.245-5.194.745-8.861-4.5-11 1.798 2.626 2.798 5.626 3 9-3.169.363-5.836 1.697-8 4a123.713 123.713 0 0 0-4.5-12.5c1.097-2.765 3.097-4.431 6-5a18.473 18.473 0 0 1-2-3.5z"/>
    <path fill="#636363" d="M454.5 507.5c2.252.416 3.752 1.749 4.5 4a42.479 42.479 0 0 1 0 13 69.319 69.319 0 0 1-12 6l-2.5-1c8.217-3.788 10.217-9.788 6-18 1.367-1.34 2.7-2.673 4-4z"/>
    <path fill="#edeced" d="M397.5 515.5c.396 2.544-.271 4.711-2 6.5-6.414 4.4-13.081 7.234-20 8.5.728-2.235 2.061-4.068 4-5.5a98.66 98.66 0 0 0 16-10c.937-.692 1.603-.525 2 .5z"/>
    <path fill="#0f0f0f" d="M444.5 517.5c1.976.927 2.309 2.26 1 4-1.676-1.228-2.009-2.561-1-4zM568.5 505.5c-1.432 5.362-.932 10.695 1.5 16 2.804 3.264 6.304 4.764 10.5 4.5-8.264-2.431-11.931-7.931-11-16.5 1.212-7.112 4.879-12.445 11-16 6.003-2.043 11.337-1.043 16 3a12.93 12.93 0 0 0 .5 5 14.506 14.506 0 0 1 4 5c1.84 10.702-2.327 17.702-12.5 21-11.62 4.587-19.62 1.254-24-10 .244-12.641 3.744-24.307 10.5-35 4.903-1.517 5.403-.85 1.5 2a100.276 100.276 0 0 0-8 21z"/>
    <path fill="#7e7e7e" d="M568.5 505.5c-.268 1.599.066 2.932 1 4-.931 8.569 2.736 14.069 11 16.5-4.196.264-7.696-1.236-10.5-4.5-2.432-5.305-2.932-10.638-1.5-16z"/>
    <path fill="#6e6e6e" d="M575.5 504.5a28.071 28.071 0 0 1 5 5c-1.302 3.456-1.302 6.956 0 10.5l-1 1.5c-7.606-4.277-8.94-9.944-4-17z"/>
    <path fill="#d4d4d4" d="M591.5 503.5c5.277-.056 7.944 2.61 8 8-.413 6.906-3.913 11.239-10.5 13-4.567-1.096-6.734-4.096-6.5-9 .768-5.757 3.768-9.757 9-12z"/>
    <path fill="#202020" d="M590.5 512.5h4c-1.677 9.025-3.011 9.025-4 0z"/>
    <path fill="#e4e4e4" d="M580.5 508.5a8.43 8.43 0 0 1 .5-4 81.338 81.338 0 0 1 5.5-5c3.65.994 3.65.16 0-2.5 3.985-1.334 6.652-.001 8 4-5.498 1.009-10.165 3.509-14 7.5z"/>
    <path fill="#ababab" d="M586.5 499.5a81.338 81.338 0 0 0-5.5 5 8.43 8.43 0 0 0-.5 4v1a28.071 28.071 0 0 0-5-5c2.155-5.247 5.822-6.914 11-5z"/>
    <path fill="gray" d="M564.5 517.5c4.38 11.254 12.38 14.587 24 10-.291 8.06-1.958 15.726-5 23a288.477 288.477 0 0 0-20-11.5c-1.229-4.741-4.229-6.908-9-6.5 2.288-.574 4.455-1.574 6.5-3 1.907-3.749 3.073-7.749 3.5-12z"/>
    <path fill="#161616" d="M499.5 526.5c5.701.976 7.368 4.143 5 9.5-5.8-.682-7.467-3.849-5-9.5z"/>
    <path fill="#f9fafa" d="M641.5 664.5c-3.196-1.292-6.196-.792-9 1.5a98.715 98.715 0 0 1-27-2c-8.919-.174-17.752-.341-26.5-.5a20.499 20.499 0 0 0-2.5 3.5c-4.881 1.107-9.214 3.274-13 6.5a3.647 3.647 0 0 1-1.5-1c-5.432 2.333-10.599 5.333-15.5 9a153.217 153.217 0 0 0-13.5 3 130.455 130.455 0 0 1-22.5-9 40.893 40.893 0 0 0-13-7c-2.298-2.724-2.298-5.557 0-8.5l-1-1c4.703-.183 8.37-2.183 11-6a71.545 71.545 0 0 1 22-8.5c1.735-3.128 2.568-6.461 2.5-10a11.494 11.494 0 0 1-3.5-5c-3.43-.793-6.264-2.46-8.5-5-6.939 1.299-12.606 4.633-17 10-2.865.206-5.365 1.706-7.5 4.5-4.513 1.052-8.347 3.218-11.5 6.5-1.813-1.109-2.646-.442-2.5 2a241.167 241.167 0 0 0-21 2 26.091 26.091 0 0 1-5-3.5 264.313 264.313 0 0 0-12-4.5c-1.238-.31-1.238-.81 0-1.5 6.736-3.543 6.57-4.043-.5-1.5a9.258 9.258 0 0 1-2.5-2c-1.123 1.044-2.456 1.71-4 2-8.181-2.516-16.515-3.016-25-1.5-1.358 2.857-3.358 3.691-6 2.5-10.546 3.012-19.879 8.179-28 15.5a11.333 11.333 0 0 0-3.5 1.5c-.399-.228-.565-.562-.5-1 1.414-1.638 1.08-2.972-1-4 1.624-1.369 2.124-3.036 1.5-5-2.381-.935-4.881-1.268-7.5-1 .166-9.006 0-18.006-.5-27a29.517 29.517 0 0 0-2.5-4.5l42-28a81.995 81.995 0 0 1 9-2c2.18-2.418 2.513-5.084 1-8-3.113-2.134-5.779-1.634-8 1.5-.48 2.449-1.48 4.615-3 6.5l-46 30a60.105 60.105 0 0 1-.5 8.5c1.444 1.655 3.278 2.322 5.5 2-.64 10.058.027 19.725 2 29a478.42 478.42 0 0 1-7 5.5c.556.383.889.883 1 1.5.418.722 1.084 1.222 2 1.5-.228.399-.562.565-1 .5-6.539.672-12.539 2.839-18 6.5-6.992 1.891-13.992 1.891-21 0a1894.928 1894.928 0 0 1-31-14 35.61 35.61 0 0 0-3-6 22.127 22.127 0 0 1-9-2.5c-.653-2.456-.986-4.79-1-7a474.485 474.485 0 0 0 49-31.5c3.26.482 6.593.482 10 0 5.937-2.968 10.603-7.301 14-13a337.406 337.406 0 0 0 21-13c4.221-3.605 7.054-8.105 8.5-13.5a398.935 398.935 0 0 1 5-32 67.96 67.96 0 0 1 13-9c.009 6.013.842 11.846 2.5 17.5 37.704 22.516 75.371 45.016 113 67.5a132.82 132.82 0 0 0 14-6.5l54-34c5.047.267 9.547 2.1 13.5 5.5.508 5.134-.159 10.134-2 15a302.632 302.632 0 0 0-10 21c-.978 7.548 1.522 13.714 7.5 18.5a140.729 140.729 0 0 1 14 7.5c2.38 5.781 6.214 7.115 11.5 4a360.237 360.237 0 0 1 27.5 16.5 9.175 9.175 0 0 0-2 4.5z"/>
    <path fill="#939393" d="M499.5 528.5c3.706.27 5.039 2.103 4 5.5-.949.617-1.782.451-2.5-.5-1.009-1.525-1.509-3.192-1.5-5z"/>
    <path fill="#a0a0a0" d="M397.5 515.5c1.138 2.804 1.305 5.804.5 9a288.447 288.447 0 0 0-16.5 11c-1.145-1.293-.811-2.459 1-3.5-2.459-.239-4.793.261-7 1.5h-1c-.237-1.291.096-2.291 1-3 6.919-1.266 13.586-4.1 20-8.5 1.729-1.789 2.396-3.956 2-6.5z"/>
    <path fill="#181818" d="M632.5 530.5c.709-.904 1.709-1.237 3-1 .303 3.088-1.03 4.754-4 5a4.934 4.934 0 0 1 .5-3c.654 1.196 1.154 1.196 1.5 0-.124-.607-.457-.94-1-1z"/>
    <path fill="#b3b3b3" d="M619.5 481.5a344.874 344.874 0 0 1 23 10.5 3102.634 3102.634 0 0 0 146 79c1.655 1.444 2.322 3.278 2 5.5a6329.16 6329.16 0 0 1-172-93c-.172-.992.162-1.658 1-2z"/>
    <path fill="#f0f0f0" d="M549.5 545.5c-1.037-1.43-1.704-3.097-2-5 1.993-3.089 4.826-5.089 8.5-6 4.793 1.879 4.627 3.379-.5 4.5a54.53 54.53 0 0 0-6 6.5z"/>
    <path fill="#141414" d="M619.5 533.5c3.725.28 4.892 2.28 3.5 6-1.509 2.419-3.675 3.419-6.5 3-.371-3.503.629-6.503 3-9z"/>
    <path fill="#d2d2d2" d="M619.5 535.5c2.644 2.16 2.311 4.16-1 6-.969-2.117-.636-4.117 1-6z"/>
    <path fill="#555" d="M242.5 541.5c-1.89.203-3.39-.463-4.5-2-1.085 2.157-2.251 2.324-3.5.5a4.457 4.457 0 0 0 2-1.5 28.718 28.718 0 0 0-5-1c1.921-1.141 3.921-1.308 6-.5a208.311 208.311 0 0 1 5 4.5z"/>
    <path fill="#6b6b6b" d="M618.5 483.5a6329.16 6329.16 0 0 0 172 93c.271 1.88-.396 3.213-2 4a21330.666 21330.666 0 0 1-170-92.5c-.913-1.414-.913-2.914 0-4.5z"/>
    <path fill="#0c0c0c" d="M406.5 533.5c5.877.742 7.544 3.909 5 9.5-1.284.684-2.451.517-3.5-.5-2.326-2.777-2.826-5.777-1.5-9z"/>
    <path fill="#858585" d="M408.5 535.5c.996-.086 1.829.248 2.5 1a12.93 12.93 0 0 1 .5 5c-3.657-.647-4.657-2.647-3-6z"/>
    <path fill="#e2deb3" d="M250.5 539.5c3.195.013 4.862 1.68 5 5-2.888 4.155-5.221 3.821-7-1 .252-1.573.918-2.906 2-4z"/>
    <path fill="#333" d="M773.5 543.5c3.41-.116 4.744 1.55 4 5-4.435.578-5.768-1.089-4-5z"/>
    <path fill="#cacaca" d="M562.5 553.5v-3a52.56 52.56 0 0 1-7-1.5c-.752-.671-1.086-1.504-1-2.5 1.027-3.193 3.194-5.193 6.5-6a61 61 0 0 1 9.5 5c-3.048 2.382-5.715 5.048-8 8z"/>
    <path fill="#868686" d="M547.5 540.5c.296 1.903.963 3.57 2 5-.968 2.945-1.134 5.945-.5 9 3.36 1.551 3.193 2.051-.5 1.5-4.999-4.855-5.332-10.022-1-15.5z"/>
    <path fill="#696969" d="M381.5 535.5c-.356 8.549-1.356 16.882-3 25a8.43 8.43 0 0 0-.5-4c-2.651 3.538-4.151 7.538-4.5 12-.667 1.333-1.333 1.333-2 0a100.375 100.375 0 0 0 2.5-19c1.688-.825 1.855-1.825.5-3 1.044-1.123 1.71-2.456 2-4a41.535 41.535 0 0 1-1-9c2.207-1.239 4.541-1.739 7-1.5-1.811 1.041-2.145 2.207-1 3.5z"/>
    <path fill="#303030" d="M512.5 479.5c.992-.172 1.658.162 2 1a1764.925 1764.925 0 0 0-1 84 1807.264 1807.264 0 0 1-1-85z"/>
    <path fill="#727272" d="M554.5 546.5c-.086.996.248 1.829 1 2.5a52.56 52.56 0 0 0 7 1.5v3c-.239 1.967.094 3.801 1 5.5-3.56-1.586-6.727-4.086-9.5-7.5-.78-1.887-.613-3.554.5-5z"/>
    <path fill="#141414" d="M443.5 548.5c4.3.315 5.967 2.649 5 7-5.24.104-6.906-2.229-5-7z"/>
    <path fill="#414141" d="M707.5 551.5c-.812 1.493-2.145 2.16-4 2-2.123.28-3.456-.553-4-2.5 2.204-2.607 4.871-3.107 8-1.5 1.273.757 1.273 1.423 0 2z"/>
    <path fill="#e0e0e0" d="M707.5 551.5a18.453 18.453 0 0 1-6-.5c2.17-1.888 4.17-1.721 6 .5z"/>
    <path fill="gray" d="M444.5 550.5c2.775.334 3.441 1.667 2 4-1.611-.82-2.278-2.154-2-4z"/>
    <path fill="#161616" d="M519.5 550.5h4c.481 3.849-1.186 5.849-5 6-.175-2.121.159-4.121 1-6z"/>
    <path fill="#e1e1e1" d="M520.5 551.5c1.276.886 1.276 1.886 0 3-.587-.733-.587-1.733 0-3z"/>
    <path fill="#141414" d="M504.5 560.5c2.046 5.456.546 6.79-4.5 4a18.453 18.453 0 0 1-.5-6c2.281-.423 3.948.244 5 2z"/>
    <path fill="#8e8e8e" d="M504.5 560.5c-.541 4.616-1.874 4.949-4 1 .937-2.142 2.27-2.476 4-1z"/>
    <path fill="#7e7e7e" d="M541.5 553.5c2.96 6.891 7.794 8.557 14.5 5 .765.07 1.265.403 1.5 1a100.304 100.304 0 0 1-4.5 7c-2.46 9.058-5.627 17.724-9.5 26a62.722 62.722 0 0 1-9 6c-.709-.904-1.709-1.237-3-1a298.897 298.897 0 0 1 3.5-27 94.39 94.39 0 0 0 6.5-16v-1z"/>
    <path fill="white" d="M629.5 480.5a6880.424 6880.424 0 0 0 170 91.5c3.884 3.205 5.217 7.039 4 11.5a81.316 81.316 0 0 1-2.5-3l-3.5 5a43057.6 43057.6 0 0 0-32 20c-1.644-1.981-3.31-3.981-5-6 6.695-4.344 13.362-8.677 20-13a35.061 35.061 0 0 0 8-6c1.604-.787 2.271-2.12 2-4 .322-2.222-.345-4.056-2-5.5a3102.634 3102.634 0 0 1-146-79 344.874 344.874 0 0 0-23-10.5c.614-1.783 1.78-3.116 3.5-4a19.209 19.209 0 0 0 6.5 3z"/>
    <path fill="#d5d5d5" d="M557.5 559.5c3.306 1.989 6.639 3.989 10 6l4-2a64.735 64.735 0 0 0 9 6 1088.812 1088.812 0 0 1-37 23c3.873-8.276 7.04-16.942 9.5-26a100.304 100.304 0 0 0 4.5-7z"/>
    <path fill="#868686" d="M456.5 572.5c.06-.543.393-.876 1-1 2.363 1.614 3.029 3.614 2 6-1.435-1.447-2.435-3.114-3-5z"/>
    <path fill="#838282" d="M374.5 533.5h1a41.535 41.535 0 0 0 1 9c-.29 1.544-.956 2.877-2 4 1.355 1.175 1.188 2.175-.5 3a100.375 100.375 0 0 1-2.5 19c.667 1.333 1.333 1.333 2 0 .349-4.462 1.849-8.462 4.5-12a8.43 8.43 0 0 1 .5 4c-.253 5.678-1.753 11.011-4.5 16a54.752 54.752 0 0 1-12.5 9c-.603-1.135-.936-2.135-1-3 1.278-2.044 1.112-4.044-.5-6-1.145 1.184-2.312 1.184-3.5 0 5.309-3.144 9.475-7.477 12.5-13a921.67 921.67 0 0 1 5.5-30z"/>
    <path fill="white" d="M356.5 576.5c1.188 1.184 2.355 1.184 3.5 0 1.612 1.956 1.778 3.956.5 6a65.164 65.164 0 0 1-14 6 11.105 11.105 0 0 0-3-4.5 63.436 63.436 0 0 1 13-7.5z"/>
    <path fill="#f8f8f8" d="M699.5 636.5c-1.238.31-1.238.81 0 1.5a10.098 10.098 0 0 1-6 1.5v4h4v4h-4v6c-3.81-.121-6.977 1.212-9.5 4-2.027-.486-4.193-.486-6.5 0a8.43 8.43 0 0 1-.5 4c-2.025-2.225-4.358-2.559-7-1-.063 1.879.437 3.713 1.5 5.5-.025 1.876-.691 3.376-2 4.5a207.984 207.984 0 0 0-12-12.5c-4.333-4.088-8.666-4.254-13-.5a326.3 326.3 0 0 0-26-16 22.136 22.136 0 0 0-3-6c-3.721-1.743-6.888-1.076-9.5 2l-13.5-7.5c-5.664-4.155-7.83-9.655-6.5-16.5l11-24 1-11a4969.309 4969.309 0 0 1 101.5 58z"/>
    <path fill="#ebebeb" d="M332.5 582.5c10.348 1.38 14.181 7.047 11.5 17 .004-3.692-.996-7.025-3-10a96.063 96.063 0 0 1-8.5-7z"/>
    <path fill="#b0b0b0" d="M360.5 582.5c.064.865.397 1.865 1 3a146.314 146.314 0 0 0-12.5 8l-2.5-5a65.164 65.164 0 0 0 14-6z"/>
    <path fill="#111" d="M496.5 587.5c4.131.007 6.464 2.173 7 6.5-1.747 3.994-4.247 4.494-7.5 1.5-.722-2.761-.555-5.427.5-8z"/>
    <path fill="#838383" d="M497.5 588.5c3.09 1.165 4.424 3.498 4 7-4.676-.347-6.009-2.68-4-7z"/>
    <path fill="white" d="M601.5 563.5a9458.556 9458.556 0 0 1 110 59.5c3.736.61 7.403.277 11-1a179.617 179.617 0 0 1 15-10c4.108-1.335 7.108-.168 9 3.5a329.392 329.392 0 0 1-21 16 186.03 186.03 0 0 1-21-5.5 5980.993 5980.993 0 0 1-136-75.5c.906-1.465 2.239-2.465 4-3a619.261 619.261 0 0 0 29 16z"/>
    <path fill="#bababa" d="M803.5 583.5c-.703 2.216-2.036 4.049-4 5.5a664.408 664.408 0 0 0-29 19c-2.876 2.107-4.543 1.273-5-2.5a43057.6 43057.6 0 0 1 32-20l3.5-5a81.316 81.316 0 0 0 2.5 3z"/>
    <path fill="#b2b2b2" d="M568.5 550.5a5980.993 5980.993 0 0 0 136 75.5 186.03 186.03 0 0 0 21 5.5 329.392 329.392 0 0 0 21-16c2.821 2.76 2.487 5.26-1 7.5a303.44 303.44 0 0 0-20 13.5c-4.595 1.993-9.262 2.327-14 1-.03-.997.47-1.664 1.5-2 2.847 1.194 5.68 1.194 8.5 0-9.166-1.953-17.833-5.119-26-9.5a6046.01 6046.01 0 0 1-129-72.5c.432-1.21 1.099-2.21 2-3z"/>
    <path fill="white" d="M331.5 595.5c.17 1.322-.163 2.489-1 3.5a662.414 662.414 0 0 1-27 16.5 17.858 17.858 0 0 0-5-5 587.897 587.897 0 0 0 28-16.5c1.995-.613 3.662-.113 5 1.5z"/>
    <path fill="#d0d0d0" d="M331.5 587.5c3.819-.102 6.652 1.898 8.5 6 .837 3.795.504 7.461-1 11 .908-4.976-.092-9.642-3-14a11.105 11.105 0 0 0-4.5-3z"/>
    <path fill="#ebebeb" d="M746.5 599.5c11.51-.651 17.343 4.682 17.5 16l-4 4c-1.099-9.099-5.932-15.265-14.5-18.5.556-.383.889-.883 1-1.5z"/>
    <path fill="#1a1a1a" d="M524.5 595.5c.667 0 1 .333 1 1 1.212 3.165-.121 4.832-4 5-.597-.235-.93-.735-1-1.5.322-2.521 1.656-4.021 4-4.5z"/>
    <path fill="#bababa" d="M525.5 596.5a10.515 10.515 0 0 1-2.5 3c-.519-1.989.314-2.989 2.5-3z"/>
    <path fill="#c6c6c6" d="M541.5 554.5a94.39 94.39 0 0 1-6.5 16 298.897 298.897 0 0 0-3.5 27c1.291-.237 2.291.096 3 1a237.474 237.474 0 0 1-18 10.5c-1.657.725-2.657.225-3-1.5h1a498.402 498.402 0 0 0 3-8c.687 2.055 1.854 3.721 3.5 5 1.728-.852 1.895-1.852.5-3 3.879-.168 5.212-1.835 4-5 0-.667-.333-1-1-1 3.064-11.668 7.231-23.668 12.5-36 1.049-2.118 2.549-3.784 4.5-5z"/>
    <path fill="#b5b5b5" d="M331.5 595.5c1.025.874 1.692 2.041 2 3.5a21.365 21.365 0 0 1-5 6 146.28 146.28 0 0 0-24 14.5c-.929-1.189-1.262-2.522-1-4a662.414 662.414 0 0 0 27-16.5c.837-1.011 1.17-2.178 1-3.5z"/>
    <path fill="#404040" d="M496.5 608.5c1.879-.107 2.212.393 1 1.5-1.544 1.187-3.211 1.52-5 1a51.22 51.22 0 0 1 4-2.5z"/>
    <path fill="#151515" d="M373.5 655.5c-1.51 1.228-3.01 1.228-4.5 0-2.869 2.35-6.035 4.016-9.5 5-.111-.617-.444-1.117-1-1.5a478.42 478.42 0 0 0 7-5.5c-1.973-9.275-2.64-18.942-2-29-2.222.322-4.056-.345-5.5-2 .374-2.934.541-5.768.5-8.5l46-30c1.52-1.885 2.52-4.051 3-6.5 2.221-3.134 4.887-3.634 8-1.5 1.513 2.916 1.18 5.582-1 8a81.995 81.995 0 0 0-9 2l-42 28a29.517 29.517 0 0 1 2.5 4.5c.5 8.994.666 17.994.5 27 2.619-.268 5.119.065 7.5 1 .624 1.964.124 3.631-1.5 5 2.08 1.028 2.414 2.362 1 4z"/>
    <path fill="#c6c6c6" d="M742.5 603.5c7.666 1.666 12.333 6.333 14 14-.011 2.354-.844 4.354-2.5 6 .437-9.882-4.063-16.048-13.5-18.5.916-.278 1.582-.778 2-1.5z"/>
    <path fill="#646464" d="M204.5 607.5c2.846-.47 5.179.363 7 2.5-3.963-1.172-7.63-.506-11 2 3.472 4.461 7.139 4.628 11 .5 1.071 1.825.404 2.992-2 3.5-3 .667-6 .667-9 0-1.076-1.726-1.243-3.559-.5-5.5a29.01 29.01 0 0 0 4.5-3z"/>
    <path fill="#f5f5f5" d="M300.5 621.5c-.768-.763-1.268-1.763-1.5-3a1364.693 1364.693 0 0 1-29.5 18c-1.094-2.357-2.761-4.19-5-5.5a958.743 958.743 0 0 0 32-18.5c3.507 1.961 4.84 4.961 4 9z"/>
    <path fill="#efefef" d="M258.5 639.5c1.753 2.918 4.253 4.918 7.5 6a62.902 62.902 0 0 0 11.5-6c.014 2.21.347 4.544 1 7a22.127 22.127 0 0 0 9 2.5 35.61 35.61 0 0 1 3 6 1894.928 1894.928 0 0 0 31 14c7.008 1.891 14.008 1.891 21 0 5.461-3.661 11.461-5.828 18-6.5-3.973 2.5-7.973 5-12 7.5-8.571 2.857-17.238 3.191-26 1a192.097 192.097 0 0 1-42.5-20.5 3.647 3.647 0 0 1-1.5 1 1162.182 1162.182 0 0 0-18-5 4.457 4.457 0 0 0-2 1.5l-21 1c-.556.383-.889.883-1 1.5a133.158 133.158 0 0 1-20 8 105.81 105.81 0 0 1-15.5-4c-2.975.306-5.142 1.806-6.5 4.5.857 3.874 1.024 8.041.5 12.5-5.232 3.224-9.899 7.224-14 12-1.386 11.275 3.448 18.108 14.5 20.5 16.627 11.815 34.96 19.482 55 23l3.5 3.5a367.336 367.336 0 0 0 9.5 21c1.291-.237 2.291.096 3 1l-2 2c-1.256.404-2.423 1.071-3.5 2-2.366-1.438-2.866-.938-1.5 1.5a2.428 2.428 0 0 1-2 .5 5.727 5.727 0 0 0-1-3c.438.065.772-.101 1-.5-1.785-1.593-1.952-3.093-.5-4.5l1 3c.667-1.333 1.333-1.333 2 0-.272-4.142-2.439-7.142-6.5-9a187.434 187.434 0 0 0-5-13c-7.076-.121-13.576-2.121-19.5-6-1.388 1.054-2.888 1.22-4.5.5a137.415 137.415 0 0 0-28-14 43.593 43.593 0 0 0-13-8c-7.701-4.507-10.201-11.007-7.5-19.5 3.66-4.66 7.66-8.993 12-13l1-18c7.737-3.495 9.237-8.662 4.5-15.5a68.626 68.626 0 0 1-10-4.5c-.308-3.509-2.308-5.176-6-5-2.54-9.639 1.294-13.972 11.5-13a9.62 9.62 0 0 1 4.5 1.5c2.334 3.616 4.668 7.283 7 11a19.95 19.95 0 0 1 8 2.5c.533 7.354.867 14.688 1 22a73.575 73.575 0 0 0 18-1.5c3.2-4.62 7.367-6.787 12.5-6.5a162.87 162.87 0 0 1 17.5-1.5 3.647 3.647 0 0 1-1-1.5 31.147 31.147 0 0 0 2-2z"/>
    <path fill="#6a6a6a" d="M566.5 553.5a6046.01 6046.01 0 0 0 129 72.5c8.167 4.381 16.834 7.547 26 9.5-2.82 1.194-5.653 1.194-8.5 0-1.03.336-1.53 1.003-1.5 2a8.43 8.43 0 0 1-4-.5A31362.247 31362.247 0 0 0 566 557.5c-.765-1.566-.598-2.899.5-4z"/>
    <path fill="#bababa" d="M300.5 621.5a439.746 439.746 0 0 1-29.5 19 28.208 28.208 0 0 0-1.5-4 1364.693 1364.693 0 0 0 29.5-18c.232 1.237.732 2.237 1.5 3z"/>
    <path fill="#7b7b7b" d="M261.5 632.5c4.526 1.704 6.526 5.037 6 10-4.596.072-6.929-2.262-7-7a10.014 10.014 0 0 1 1-3z"/>
    <path fill="#c3bf98" d="M609.5 637.5c3.638-.763 5.138.57 4.5 4-4.585 1.913-6.085.579-4.5-4z"/>
    <path fill="#dbdbdb" d="M435.5 642.5c-1.465 1.237-3.132 2.237-5 3-3.026-1.519-6.359-2.185-10-2a75.154 75.154 0 0 0-18 3.5 117.669 117.669 0 0 1-17 8 15.855 15.855 0 0 0-6 5.5 109.944 109.944 0 0 0-29 14.5c-5.01 1.175-10.01 2.341-15 3.5-7.309.218-13.975-1.616-20-5.5l-9-1a1098.176 1098.176 0 0 0-43-19c-9.135-2.243-17.801-1.076-26 3.5l1 1c7.91-1.775 16.244-1.275 25 1.5a824.478 824.478 0 0 1 49 23.5c3.07 5.507 2.404 10.507-2 15a3.647 3.647 0 0 1-1.5-1 10117.874 10117.874 0 0 1-23.5 15.5c-14.022 4.211-28.356 5.878-43 5-5.595-2.009-10.595-4.843-15-8.5a465.329 465.329 0 0 1 16 6.5c10.775.979 21.441.312 32-2a234.113 234.113 0 0 0 31-17 40.977 40.977 0 0 0 5-9 21.53 21.53 0 0 0-6-5 1378.685 1378.685 0 0 0-45-21 66.398 66.398 0 0 0-22 1 348.612 348.612 0 0 0-31 17.5c2.768-5.429 7.101-9.095 13-11 1.296-2.079 2.962-3.746 5-5a267.649 267.649 0 0 1-20-.5 26.813 26.813 0 0 0-3.5 7.5c-2.747 1.434-4.247 3.767-4.5 7-7.903 2.81-10.736 8.144-8.5 16a8235.529 8235.529 0 0 1 17.5 13.5 114.436 114.436 0 0 0 13 6 25.965 25.965 0 0 1 5 5 4272.82 4272.82 0 0 0 30 8.5 150.457 150.457 0 0 1 5.5 13c3.367 4.385 7.533 7.552 12.5 9.5a27.563 27.563 0 0 1-6 3.5c-.709-.904-1.709-1.237-3-1a367.336 367.336 0 0 1-9.5-21l-3.5-3.5c-20.04-3.518-38.373-11.185-55-23-11.052-2.392-15.886-9.225-14.5-20.5 4.101-4.776 8.768-8.776 14-12 .524-4.459.357-8.626-.5-12.5 1.358-2.694 3.525-4.194 6.5-4.5a105.81 105.81 0 0 0 15.5 4 133.158 133.158 0 0 0 20-8 157.46 157.46 0 0 1 29-.5c11.053 3.856 21.72 8.856 32 15a108.592 108.592 0 0 1 26 10c4.189.336 8.356.836 12.5 1.5a111.64 111.64 0 0 1 12.5-2.5 6608.27 6608.27 0 0 1 19-12 108.394 108.394 0 0 1 9-2c1.527-2.439 3.527-4.439 6-6 9.545-5.537 19.212-10.037 29-13.5 8.208-1.538 16.208-.872 24 2z"/>
    <path fill="#f0f1f0" d="M663.5 669.5c-5.316-4.002-11.316-6.669-18-8 .962-3.646 3.295-4.813 7-3.5a65.33 65.33 0 0 1 13 10.5c-.457.798-1.124 1.131-2 1z"/>
    <path fill="#a4a4a4" d="M645.5 661.5c6.684 1.331 12.684 3.998 18 8-.451 2.25-1.785 3.584-4 4a82.456 82.456 0 0 1-12-3.5c-4.392-2.063-5.059-4.897-2-8.5z"/>
    <path fill="#2f2e2e" d="M720.5 662.5c2.776-.411 3.443.422 2 2.5.259 1.261.926 2.261 2 3 1.973.495 3.973.662 6 .5-.171-3.297.495-3.631 2-1-4.043 4.049-7.876 3.715-11.5-1a8.43 8.43 0 0 1-.5-4z"/>
    <path fill="#eee" d="M641.5 664.5c.432 4.09 2.432 7.09 6 9-2.324 1.397-4.658 3.564-7 6.5-3.935.084-7.602 1.084-11 3a414.924 414.924 0 0 1-40-2l-2 3c-3.959.978-7.292 2.978-10 6-1.049.492-2.049.326-3-.5-2.883 2.609-6.217 4.442-10 5.5-1.957 1.746-2.957 3.912-3 6.5h-4a112.97 112.97 0 0 1-.5 15 22.573 22.573 0 0 0-4 8 73.358 73.358 0 0 0-13.5 9.5 37.317 37.317 0 0 0-10.5 4.5l-1-1a29.517 29.517 0 0 1-2.5 4.5c-4.81 1.772-9.143 4.272-13 7.5a3.647 3.647 0 0 1-1.5-1 43.23 43.23 0 0 0-10.5 11.5 97.324 97.324 0 0 1 14 12c3.376 1.503 6.709 3.003 10 4.5a26.585 26.585 0 0 1 2 3.5c11.967 4.981 23.3 10.981 34 18a159.854 159.854 0 0 0 11 10.5c-6.043-1.015-11.71-3.182-17-6.5a179.617 179.617 0 0 0-15-10c-2.666-2.145-4.666-4.645-6-7.5-3.91.237-7.577-.596-11-2.5a1039.083 1039.083 0 0 0-27-18c-2.868-2.709-3.535-5.876-2-9.5a10.91 10.91 0 0 0 5-4.5 26.813 26.813 0 0 0 7.5-3.5c1.364.758 2.531.258 3.5-1.5a32.473 32.473 0 0 1 10-4l4.5-4.5a610.357 610.357 0 0 0 20.5-11 123.945 123.945 0 0 0 8.5-10c.694-3.502.194-6.836-1.5-10a100.318 100.318 0 0 0 1.5-8 1015.913 1015.913 0 0 1 23.5-15l2-1a778.773 778.773 0 0 1 11-4.5c8.809-1.04 17.476-.54 26 1.5a228.258 228.258 0 0 0 12-2.5c1.76-.965 2.094-2.132 1-3.5l-10-2-2 1c-19.847-6.263-38.181-3.43-55 8.5a65.972 65.972 0 0 0-17 8 90.455 90.455 0 0 1-19 0 283.388 283.388 0 0 0-33-19c-5.253.081-7.753-2.419-7.5-7.5 3.011-4.02 6.844-6.853 11.5-8.5a11.333 11.333 0 0 0 1.5-3.5l1 1c2.406-1.065 4.573-2.398 6.5-4a59.621 59.621 0 0 0 20-7c1.882-3.915.882-6.748-3-8.5-3.725-.76-7.392-.593-11 .5-3.762 7.318-9.762 11.484-18 12.5l-2 4c-3.734-.088-6.734 1.245-9 4-8.343 1.881-16.676 1.881-25 0a231.094 231.094 0 0 1-16-8.5c-1.021-.502-1.188-1.168-.5-2 .977 1.274 1.811 1.274 2.5 0a264.313 264.313 0 0 1 12 4.5 26.091 26.091 0 0 0 5 3.5 241.167 241.167 0 0 1 21-2c-.146-2.442.687-3.109 2.5-2 3.153-3.282 6.987-5.448 11.5-6.5 2.135-2.794 4.635-4.294 7.5-4.5 4.394-5.367 10.061-8.701 17-10 2.236 2.54 5.07 4.207 8.5 5a11.494 11.494 0 0 0 3.5 5c.068 3.539-.765 6.872-2.5 10a71.545 71.545 0 0 0-22 8.5c-2.63 3.817-6.297 5.817-11 6l1 1c-2.298 2.943-2.298 5.776 0 8.5a40.893 40.893 0 0 1 13 7 130.455 130.455 0 0 0 22.5 9 153.217 153.217 0 0 1 13.5-3c4.901-3.667 10.068-6.667 15.5-9 .414.457.914.791 1.5 1 3.786-3.226 8.119-5.393 13-6.5a20.499 20.499 0 0 1 2.5-3.5c8.748.159 17.581.326 26.5.5a98.715 98.715 0 0 0 27 2c2.804-2.292 5.804-2.792 9-1.5z"/>
    <path fill="#e8e8e8" d="M227.5 708.5a308.456 308.456 0 0 0-25-15c-1.69-5.938-.024-10.605 5-14a348.612 348.612 0 0 1 31-17.5 66.398 66.398 0 0 1 22-1 1378.685 1378.685 0 0 1 45 21 21.53 21.53 0 0 1 6 5 40.977 40.977 0 0 1-5 9 234.113 234.113 0 0 1-31 17 104.518 104.518 0 0 1-32 2 465.329 465.329 0 0 0-16-6.5z"/>
    <path fill="#f4f4f4" d="M647.5 673.5c4.824.492 9.49 1.159 14 2a40.914 40.914 0 0 0-9 .5 3.943 3.943 0 0 1 1 2c-1.503 1.921-2.169 4.088-2 6.5-8.906-.693-17.572.307-26 3a5032.423 5032.423 0 0 0-29-2 75.012 75.012 0 0 0-11 3c-2.312 4.835-6.312 7.169-12 7v4h-4c.077 2.512-.923 4.512-3 6a49.87 49.87 0 0 0-1 14h-4l-2 16a107.552 107.552 0 0 0-20 4v4h-8v4h-4v4l-8 2v14h4c.428 2.746 2.094 4.413 5 5 .73 1.841 1.397 3.675 2 5.5a298.984 298.984 0 0 0 23 11l-1 1a12.403 12.403 0 0 0 4 2.5c.886.825 1.219 1.825 1 3 2.177.086 4.177.753 6 2 2.01-.849 3.677-.182 5 2 .886.825 1.219 1.825 1 3a8.43 8.43 0 0 1 4 .5 34.983 34.983 0 0 0 12 6.5c2.19 1.507 3.524 3.507 4 6a60.826 60.826 0 0 0 10 2.5c4.319 2.994 8.986 5.161 14 6.5-.262 1.478.071 2.811 1 4a440.902 440.902 0 0 1 30.5 16c1.299-.466 2.799-.466 4.5 0-.262 1.478.071 2.811 1 4a111.42 111.42 0 0 1 10.5 6 281.2 281.2 0 0 0 2.5 13 62.438 62.438 0 0 1-3.5 10 15.265 15.265 0 0 1-5.5 3 6.846 6.846 0 0 0-1 4l-8 1c.172 1.992-.495 3.658-2 5 2.838 2.153 4.838 4.82 6 8h4c.019 1.56.352 3.06 1 4.5l-2 5a32.258 32.258 0 0 1-9.5 9.5 216.39 216.39 0 0 1-13.5-.5c-6.557-2.368-12.557-5.035-18-8-8.289-1.903-15.622-.237-22 5a184.346 184.346 0 0 0-22 2.5c-6.898-.495-13.231-1.995-19-4.5a90.569 90.569 0 0 0-13-2.5v-4h-5v-4a172.059 172.059 0 0 0-22-9c-.577-2.05-1.91-3.05-4-3v-3a114.88 114.88 0 0 0-11-5.5l1-1c-2.752-.212-5.252-1.045-7.5-2.5a91.998 91.998 0 0 1-9-8c-1.049 1.017-2.216 1.184-3.5.5a8986.7 8986.7 0 0 0-14-9c-6.958-1.31-12.624-4.644-17-10-5.374-2.356-10.707-4.69-16-7-3.473-3.242-7.473-5.742-12-7.5a129.591 129.591 0 0 1-9.5-12 44.393 44.393 0 0 1 1.5-18c-.365-1.402-1.199-2.402-2.5-3a149.152 149.152 0 0 0-21.5 6.5 200.614 200.614 0 0 1-30-1c-8.674-1.835-16.34-5.668-23-11.5a31.116 31.116 0 0 0-11-1c-.236 2.473-1.569 4.14-4 5l2 2a36.875 36.875 0 0 1-12 1v3a82.504 82.504 0 0 0-19 9c-.886.825-1.219 1.825-1 3l-8 1v4c-3.453-.274-6.12 1.06-8 4-4.344.676-8.344 2.176-12 4.5-7.701 8.019-17.034 13.186-28 15.5.209 2.214-.624 3.881-2.5 5-2.411-.627-4.911-.627-7.5 0v4c-2.668.166-5.002 1.166-7 3-3.33-.594-6.664-1.26-10-2l-9-9c-2.036-5.74-1.036-10.74 3-15 3.602-.448 6.769-1.782 9.5-4 2.252 1.462 3.752.795 4.5-2a144.543 144.543 0 0 1 25-9.5 6.978 6.978 0 0 0 3.5-2.5l1 1c1.675-1.095 2.842-2.595 3.5-4.5l14-5a316.435 316.435 0 0 0 27-18c6.462-1.442 11.629-4.942 15.5-10.5.259-3.645-1.241-6.478-4.5-8.5l-10-5a25.238 25.238 0 0 0-10 0 126.12 126.12 0 0 1-14 5.5v3c-2.403-.107-4.236.893-5.5 3-2.292-1.101-3.792-.268-4.5 2.5-4.55.523-8.05 2.689-10.5 6.5-2.394-.636-4.894-.636-7.5 0 .219 1.175-.114 2.175-1 3a100.017 100.017 0 0 0-12 7.5c-5.683.381-9.683 3.047-12 8a84.586 84.586 0 0 1-15 4.5c-7.778-.283-10.945-4.283-9.5-12a36.078 36.078 0 0 1 3.5-4.5 101.781 101.781 0 0 1 13-4c2.887-3.55 6.387-6.384 10.5-8.5 3.083.619 5.583-.548 7.5-3.5a17.758 17.758 0 0 1 7-1.5c-.146-2.442.687-3.109 2.5-2a12.14 12.14 0 0 0 3.5-4.5 2025.555 2025.555 0 0 0 18-8.5c1.208.734 2.541 1.067 4 1a189.024 189.024 0 0 1-18 8.5l-4 4c-7.236 3.275-13.902 7.275-20 12a148.119 148.119 0 0 1-22 9c-2.023 3.183-2.523 6.683-1.5 10.5l1-1a9.568 9.568 0 0 0 3 3l11-3c1.978-3.311 4.645-5.978 8-8l1 1a20.431 20.431 0 0 1 5.5-1.5c6.023-5.457 12.856-9.623 20.5-12.5a114.695 114.695 0 0 0 14.5-9.5c3.421.121 6.088-1.212 8-4a152.9 152.9 0 0 0 15-7c10.725.188 20.058 4.021 28 11.5 1.886 3.065 1.886 5.899 0 8.5a324.533 324.533 0 0 1-21 12c-5.668 5.508-12.335 9.508-20 12-2.365 3.714-5.698 5.714-10 6a13.92 13.92 0 0 1-3 4c-6.99 2.002-12.99 5.669-18 11a50.16 50.16 0 0 0-11 5 108.394 108.394 0 0 1-9 2 378.751 378.751 0 0 1-10.5 6.5c-.667 2-.667 4 0 6 3.704 5.117 8.537 6.284 14.5 3.5 3.22-.643 5.387-2.476 6.5-5.5.718.951 1.551 1.117 2.5.5 1.798-3.737 4.798-5.737 9-6 3.779-4.233 8.446-6.9 14-8l2-3a49.218 49.218 0 0 0 12-7 34.033 34.033 0 0 1 8-1.5 4.934 4.934 0 0 1 .5-3c2.947-2.722 6.447-4.222 10.5-4.5 1.959-2.963 4.459-4.129 7.5-3.5 2.039-3.636 5.206-5.302 9.5-5a4.934 4.934 0 0 1 .5-3l1 1a9.454 9.454 0 0 1 1.5-2.5 284.843 284.843 0 0 1 21-9c3-.667 6-.667 9 0a5691.034 5691.034 0 0 0 22 9.5 173.04 173.04 0 0 0 31 .5 44.145 44.145 0 0 1 15-3 128.722 128.722 0 0 1 16-6.5c3.838 1.23 6.838 3.396 9 6.5a9.62 9.62 0 0 1-1.5 4.5 86.287 86.287 0 0 0-8 9 30.485 30.485 0 0 0 0 11 64.292 64.292 0 0 1 6.5 7 1656.247 1656.247 0 0 0 67 38.5l4 4a689.233 689.233 0 0 1 31 17l4 4c10.562 5.454 20.895 10.454 31 15 15.007 3.21 29.007 1.376 42-5.5a28.143 28.143 0 0 1 12-.5c8.147 4.911 16.814 8.411 26 10.5 3.893-1.725 6.56-4.559 8-8.5a57.05 57.05 0 0 0-13.5-8.5c-.667-1.667-.667-3.333 0-5 1.887-1.526 2.887-3.526 3-6l1 1c3.719-1.71 6.886-4.21 9.5-7.5 8.43-1.759 11.596-6.926 9.5-15.5L643.5 851a441.371 441.371 0 0 1-25-13c-12.043-9.664-25.376-17.331-40-23a62.957 62.957 0 0 0-7-6.5 159.854 159.854 0 0 1-11-10.5c-10.7-7.019-22.033-13.019-34-18a26.585 26.585 0 0 0-2-3.5 1362.904 1362.904 0 0 0-10-4.5 97.324 97.324 0 0 0-14-12 43.23 43.23 0 0 1 10.5-11.5c.414.457.914.791 1.5 1 3.857-3.228 8.19-5.728 13-7.5a29.517 29.517 0 0 0 2.5-4.5l1 1a37.317 37.317 0 0 1 10.5-4.5 73.358 73.358 0 0 1 13.5-9.5 22.573 22.573 0 0 1 4-8c.499-4.989.666-9.989.5-15h4c.043-2.588 1.043-4.754 3-6.5 3.783-1.058 7.117-2.891 10-5.5.951.826 1.951.992 3 .5 2.708-3.022 6.041-5.022 10-6l2-3a414.924 414.924 0 0 0 40 2c3.398-1.916 7.065-2.916 11-3 2.342-2.936 4.676-5.103 7-6.5z"/>
    <path fill="#d3d3d3" d="M430.5 645.5c-.65.304-1.317.637-2 1-1.692-1.469-3.692-2.135-6-2a58.36 58.36 0 0 0-16 3.5 1530.79 1530.79 0 0 0-58 31 116.76 116.76 0 0 1-15 2.5 100.673 100.673 0 0 0-16-1.5 4.933 4.933 0 0 0-1 2.5c2.951 4.943 2.617 9.61-1 14a1234.533 1234.533 0 0 0-8 6c-6.594 1.792-11.927 5.292-16 10.5l-5 1a62.854 62.854 0 0 0-10.5 7.5c-4.149-.254-7.149 1.746-9 6-.407 4.038.593 7.705 3 11l1-1 4.5 6.5c1.585.085 2.918.251 4 .5a29.804 29.804 0 0 1-6 4.5c1.756.14 3.422-.36 5-1.5 2.176 4.468 5.842 6.635 11 6.5 5.194 4.615 11.028 8.115 17.5 10.5a1442.696 1442.696 0 0 0 15.5 15.5l9 1c2.843 1.517 5.677 3.017 8.5 4.5 2.213-1 4.046-.333 5.5 2 4.525.601 8.525 2.268 12 5-2.679.025-4.012 1.358-4 4-2.374-2.376-5.04-4.543-8-6.5-3.79-.23-7.124-1.563-10-4a112.24 112.24 0 0 0-19-2c-2.527-2.574-3.694-5.74-3.5-9.5-10.689-10.594-23.522-16.761-38.5-18.5-.88-1.356-1.214-2.856-1-4.5-2.966.898-5.8 2.231-8.5 4-.399-.228-.565-.562-.5-1l2-2a27.563 27.563 0 0 0 6-3.5c-4.967-1.948-9.133-5.115-12.5-9.5a150.457 150.457 0 0 0-5.5-13 4272.82 4272.82 0 0 1-30-8.5 25.965 25.965 0 0 0-5-5 114.436 114.436 0 0 1-13-6 8235.529 8235.529 0 0 0-17.5-13.5c-2.236-7.856.597-13.19 8.5-16 .253-3.233 1.753-5.566 4.5-7a26.813 26.813 0 0 1 3.5-7.5c6.711.417 13.377.584 20 .5-2.038 1.254-3.704 2.921-5 5-5.899 1.905-10.232 5.571-13 11-5.024 3.395-6.69 8.062-5 14a308.456 308.456 0 0 1 25 15c4.405 3.657 9.405 6.491 15 8.5 14.644.878 28.978-.789 43-5 7.814-5.138 15.647-10.305 23.5-15.5.414.457.914.791 1.5 1 4.404-4.493 5.07-9.493 2-15a824.478 824.478 0 0 0-49-23.5c-8.756-2.775-17.09-3.275-25-1.5l-1-1c8.199-4.576 16.865-5.743 26-3.5a1098.176 1098.176 0 0 1 43 19l9 1c6.025 3.884 12.691 5.718 20 5.5 4.99-1.159 9.99-2.325 15-3.5a109.944 109.944 0 0 1 29-14.5 15.855 15.855 0 0 1 6-5.5 117.669 117.669 0 0 0 17-8 75.154 75.154 0 0 1 18-3.5c3.641-.185 6.974.481 10 2z"/>
    <path fill="#f8f9f9" d="M241.5 664.5c12.411-2.284 23.411.549 33 8.5a26.67 26.67 0 0 1 6.5 1.5 795.02 795.02 0 0 1 24.5 12 9.86 9.86 0 0 1 1 6 161.088 161.088 0 0 0-21 11.5c-8.753 4.689-18.087 7.522-28 8.5-4.637-.72-9.303-1.22-14-1.5l-32-16c-4.399-2.779-5.399-6.279-3-10.5a71.526 71.526 0 0 0 14-10.5l19-9.5z"/>
    <path fill="#1d1d1d" d="m578.5 681.5-2 1c-4.176.669-5.509-.831-4-4.5 3.72-1.392 5.72-.225 6 3.5z"/>
    <path fill="#ababab" d="M485.5 678.5a8.43 8.43 0 0 1 4 .5 445.828 445.828 0 0 0 25 13c2.737 1.614 4.903 3.781 6.5 6.5 5.935-1.115 10.435 1.052 13.5 6.5 5.209 1.58 7.042 5.08 5.5 10.5a36.633 36.633 0 0 1-6.5 4c2.073-1.859 3.406-4.192 4-7-2.753-1.589-4.586-3.922-5.5-7l-3 1a20.499 20.499 0 0 1-2.5-3.5c-4.953-1.149-8.953-3.816-12-8-5.476-1.917-10.309-4.75-14.5-8.5-1.752.786-3.586.62-5.5-.5-2.143-4.022-4.977-5.188-8.5-3.5a251.295 251.295 0 0 0-27-13l-1 1c-6.029-4.592-12.862-6.759-20.5-6.5l-5-3a48.73 48.73 0 0 0-17 .5c-3.691 2.256-7.691 3.256-12 3v3c-1.992-.172-3.658.495-5 2a66.678 66.678 0 0 1-5.5-2 21.685 21.685 0 0 1-4.5 7c1.213 4.983.38 5.65-2.5 2-2.826 1.417-2.993 2.917-.5 4.5l-24 16c1.544.29 2.877.956 4 2-.949.617-1.782.451-2.5-.5a50.413 50.413 0 0 0-2.5 13c1.348 6.684 2.681 13.35 4 20a23.142 23.142 0 0 0 8 2v4h4l4 10c1.7.126 3.2.793 4.5 2 .945-.405 1.612-1.072 2-2 .065 2.383.898 3.05 2.5 2 .929 1.189 1.262 2.522 1 4 1.478-.262 2.811.071 4 1 .87 2.026 2.37 3.359 4.5 4 .221 3.443 1.221 3.776 3 1-.178 1.94.822 3.607 3 5l1-1a18.117 18.117 0 0 0 5.5 4.5c3.519.377 7.019.877 10.5 1.5 1.326.255 2.326.922 3 2 .605-1.981 1.605-2.315 3-1 3.684-.404 6.85-1.904 9.5-4.5l7-1c1.824-2.505 4.157-4.005 7-4.5 3.606.289 7.106-.044 10.5-1 2.229 1.646 4.563 1.979 7 1a31.625 31.625 0 0 0 7.5 2c-.228-6.044 2.105-10.877 7-14.5 6.832-3.413 13.166-7.247 19-11.5 4.224-2.28 8.558-4.28 13-6-.984 3.337-3.317 4.837-7 4.5-5.329 4.669-11.329 8.336-18 11l-9 7c1.154.914.987 1.747-.5 2.5-.907 4.513.593 7.846 4.5 10 1.473 2.093.973 3.76-1.5 5-4.868-2.983-10.035-4.649-15.5-5-6.821-1.155-13.821-1.321-21-.5-1.442.377-2.442 1.21-3 2.5h-3a84.858 84.858 0 0 0-16 7c-8.102 1.035-16.102.369-24-2a57.02 57.02 0 0 0-18-9v-4h-4v-4c-1.478.262-2.811-.071-4-1-1.834-1.998-2.834-4.332-3-7h-5v-4c-3.554-2.57-7.554-4.57-12-6v-4c-3.822-.149-6.155-2.149-7-6a36.875 36.875 0 0 1-1-12h-3c.354-2.041.354-3.874 0-5.5l-6 1c3.41-1.114 5.41-3.447 6-7-1.119-1.876-2.786-2.709-5-2.5v-8c6.262-.423 11.428-2.423 15.5-6l1 2a133.874 133.874 0 0 1 5.5-8c6.745-2.363 12.412-6.196 17-11.5l6-1c-1.333-1.84-1.166-2.34.5-1.5 2.266-1.456 4.766-2.29 7.5-2.5 4.054-3.527 8.72-5.694 14-6.5v-3a67.403 67.403 0 0 1 23-2c8.284 5.474 17.284 9.307 27 11.5a182.198 182.198 0 0 0 29 13.5z"/>
    <path fill="#1e1e1e" d="M772.5 726.5c5.658-.821 7.325 1.346 5 6.5-6.939 1.574-8.606-.593-5-6.5z"/>
    <path fill="#ebebeb" d="M772.5 728.5c5.235-.159 5.901 1.174 2 4-1.611-.82-2.278-2.154-2-4z"/>
    <path fill="#bfbfbf" d="M435.5 642.5h2c-1.753 1.723-3.753 3.223-6 4.5 4.412 3.369 9.412 5.369 15 6 7.706 5.018 16.039 8.685 25 11 3.57 1.781 6.237 4.448 8 8a720.699 720.699 0 0 0 32 16.5 41.252 41.252 0 0 1 10.5 8c14.514-.649 21.014 6.351 19.5 21a45.342 45.342 0 0 1-9 7 1084.358 1084.358 0 0 0-39 23c-10.09 2.625-12.756 8.625-8 18-3.907-2.154-5.407-5.487-4.5-10 1.487-.753 1.654-1.586.5-2.5l9-7c6.671-2.664 12.671-6.331 18-11 3.683.337 6.016-1.163 7-4.5 2.179-.34 4.012-1.34 5.5-3l1 1a33.696 33.696 0 0 0 11.5-9 36.633 36.633 0 0 0 6.5-4c1.542-5.42-.291-8.92-5.5-10.5-3.065-5.448-7.565-7.615-13.5-6.5-1.597-2.719-3.763-4.886-6.5-6.5a445.828 445.828 0 0 1-25-13 8.43 8.43 0 0 0-4-.5c-20.107-10.948-40.107-20.614-60-29-4.146-1.147-8.48-1.314-13-.5a879.051 879.051 0 0 0-43.5 21.5 3.943 3.943 0 0 1-2-1 24.365 24.365 0 0 0-2.5 5.5c-4.509-.152-8.175 1.515-11 5a671.1 671.1 0 0 1-26 7c-2.105 6.323-5.771 11.657-11 16a143.378 143.378 0 0 1-16.5 10.5c-.492 1.049-.326 2.049.5 3-4.652.603-6.319 2.936-5 7h4c-.853 2.097-.853 4.097 0 6-.318 1.147-.984 1.981-2 2.5 1.981.605 2.315 1.605 1 3 1.885-.23 3.885-.23 6 0l-2-1c2.189-2.947 4.189-2.947 6 0-.906 1.699-1.239 3.533-1 5.5h4v8l8 2c.667 4.667 3.333 7.333 8 8v4l16 4v4h5c-.128 4.869 2.205 7.536 7 8v4h8v4c7.95-.695 15.617.305 23 3 6.11-1.762 12.444-3.928 19-6.5 8.541-1.042 16.874-.209 25 2.5.458-4.148 1.958-7.815 4.5-11 3.767-1.183 6.933-3.183 9.5-6 .558-1.29 1.558-2.123 3-2.5 7.179-.821 14.179-.655 21 .5a64.966 64.966 0 0 0-19 2 129.75 129.75 0 0 0-13 8c-1.131 1.574-1.298 3.241-.5 5 1.216 2.462 1.882 5.129 2 8 .827 1.162 1.66 2.329 2.5 3.5l-1.5 4.5a32.337 32.337 0 0 1-8.5-8c-11.093-5.35-22.093-5.183-33 .5a114.25 114.25 0 0 1-27.5 5.5c-2.379.018-4.546-.649-6.5-2a173.55 173.55 0 0 1-3 4c.032-2.119-.968-3.452-3-4-3.475-2.732-7.475-4.399-12-5-1.454-2.333-3.287-3-5.5-2a1490.172 1490.172 0 0 1-8.5-4.5l-9-1a1442.696 1442.696 0 0 1-15.5-15.5c-6.472-2.385-12.306-5.885-17.5-10.5-5.158.135-8.824-2.032-11-6.5-1.578 1.14-3.244 1.64-5 1.5a29.804 29.804 0 0 0 6-4.5c-1.082-.249-2.415-.415-4-.5l-4.5-6.5-1 1c-2.407-3.295-3.407-6.962-3-11 1.851-4.254 4.851-6.254 9-6a62.854 62.854 0 0 1 10.5-7.5l5-1c4.073-5.208 9.406-8.708 16-10.5 2.628-1.988 5.295-3.988 8-6 3.617-4.39 3.951-9.057 1-14a4.933 4.933 0 0 1 1-2.5c5.334.07 10.668.57 16 1.5a116.76 116.76 0 0 0 15-2.5 1530.79 1530.79 0 0 1 58-31 58.36 58.36 0 0 1 16-3.5c2.308-.135 4.308.531 6 2 .683-.363 1.35-.696 2-1 1.868-.763 3.535-1.763 5-3z"/>
    <path fill="#b7b7b7" d="M425.5 649.5a4.934 4.934 0 0 1-.5 3c-1.698-1.233-3.698-1.9-6-2l-5.5.5a191.688 191.688 0 0 1-17 7 40.943 40.943 0 0 0-7 5c-5.553 1.091-10.219 3.758-14 8a43.385 43.385 0 0 0-8 2c-3.692 6.245-9.025 9.078-16 8.5-4.993 3.802-10.66 5.968-17 6.5a19.745 19.745 0 0 1-5 5.5c-.502 3.471-1.836 6.471-4 9 1.735 3.456 1.735 7.122 0 11l-3 2c1.756-.14 3.422.36 5 1.5a40.943 40.943 0 0 1-7 5c1.663.265 3.163-.235 4.5-1.5a272.877 272.877 0 0 0-.5 11h7v8h4v4h8v4h4v4h4v4h4v4h4v4h4v4h8v4h4v4c2.166.079 4.166.746 6 2l4-2a87.45 87.45 0 0 1 11 6c7.653-1.415 15.32-2.748 23-4 5.712 2.818 10.046 1.318 13-4.5a51.683 51.683 0 0 0 9-5.5h3c-2.567 2.817-5.733 4.817-9.5 6-2.542 3.185-4.042 6.852-4.5 11-8.126-2.709-16.459-3.542-25-2.5-6.556 2.572-12.89 4.738-19 6.5-7.383-2.695-15.05-3.695-23-3v-4h-8v-4c-4.795-.464-7.128-3.131-7-8h-5v-4l-16-4v-4c-4.667-.667-7.333-3.333-8-8l-8-2v-8h-4c-.239-1.967.094-3.801 1-5.5-1.811-2.947-3.811-2.947-6 0l2 1c-2.115-.23-4.115-.23-6 0 1.315-1.395.981-2.395-1-3 1.016-.519 1.682-1.353 2-2.5-.853-1.903-.853-3.903 0-6h-4c-1.319-4.064.348-6.397 5-7-.826-.951-.992-1.951-.5-3a143.378 143.378 0 0 0 16.5-10.5c5.229-4.343 8.895-9.677 11-16a671.1 671.1 0 0 0 26-7c2.825-3.485 6.491-5.152 11-5a24.365 24.365 0 0 1 2.5-5.5 3.943 3.943 0 0 0 2 1 879.051 879.051 0 0 1 43.5-21.5c4.52-.814 8.854-.647 13 .5z"/>
    <path fill="#b1b1b1" d="M425.5 649.5c19.893 8.386 39.893 18.052 60 29a182.198 182.198 0 0 1-29-13.5c-9.716-2.193-18.716-6.026-27-11.5a67.403 67.403 0 0 0-23 2v3c-5.28.806-9.946 2.973-14 6.5-2.734.21-5.234 1.044-7.5 2.5-1.666-.84-1.833-.34-.5 1.5l-6 1c-4.588 5.304-10.255 9.137-17 11.5a133.874 133.874 0 0 0-5.5 8l-1-2c-4.072 3.577-9.238 5.577-15.5 6v8c2.214-.209 3.881.624 5 2.5-.59 3.553-2.59 5.886-6 7l6-1c.354 1.626.354 3.459 0 5.5h3a36.875 36.875 0 0 0 1 12c.845 3.851 3.178 5.851 7 6v4c4.446 1.43 8.446 3.43 12 6v4h5c.166 2.668 1.166 5.002 3 7 1.189.929 2.522 1.262 4 1v4h4v4a57.02 57.02 0 0 1 18 9c7.898 2.369 15.898 3.035 24 2a84.858 84.858 0 0 1 16-7 51.683 51.683 0 0 1-9 5.5c-2.954 5.818-7.288 7.318-13 4.5a1099.603 1099.603 0 0 0-23 4 87.45 87.45 0 0 0-11-6l-4 2c-1.834-1.254-3.834-1.921-6-2v-4h-4v-4h-8v-4h-4v-4h-4v-4h-4v-4h-4v-4h-4v-4h-8v-4h-4v-8h-7c.095-3.725.262-7.391.5-11-1.337 1.265-2.837 1.765-4.5 1.5a40.943 40.943 0 0 0 7-5c-1.578-1.14-3.244-1.64-5-1.5l3-2c1.735-3.878 1.735-7.544 0-11 2.164-2.529 3.498-5.529 4-9a19.745 19.745 0 0 0 5-5.5c6.34-.532 12.007-2.698 17-6.5 6.975.578 12.308-2.255 16-8.5a43.385 43.385 0 0 1 8-2c3.781-4.242 8.447-6.909 14-8a40.943 40.943 0 0 1 7-5 191.688 191.688 0 0 0 17-7l5.5-.5c2.302.1 4.302.767 6 2a4.934 4.934 0 0 0 .5-3z"/>
    <path fill="#999" d="M502.5 736.5c-5.834 4.253-12.168 8.087-19 11.5-4.895 3.623-7.228 8.456-7 14.5a31.625 31.625 0 0 1-7.5-2c-2.437.979-4.771.646-7-1-3.394.956-6.894 1.289-10.5 1a141.069 141.069 0 0 1-25 .5c-1.785-2.226-4.118-3.392-7-3.5.14-1.624-.527-2.79-2-3.5a24.935 24.935 0 0 0-7-.5v-4a8.43 8.43 0 0 1-4-.5l2-1a12.14 12.14 0 0 0-4.5-3.5c-.348-4.161-2.348-5.495-6-4-.573-5.145-2.739-9.478-6.5-13a66.641 66.641 0 0 1 0-23c3.857-3.386 5.857-7.719 6-13 4 0 6-2 6-6a217.268 217.268 0 0 1 28-8 171.233 171.233 0 0 1 32-.5l2 1c-2.215.17-4.215.837-6 2 11.947.793 22.613 4.293 32 10.5 1.623-.976 2.957-.476 4 1.5a46.104 46.104 0 0 1 10 .5c2.177 2.258 4.843 3.758 8 4.5a80.264 80.264 0 0 0 19 14.5c-2.491 1.041-2.491 1.874 0 2.5-1.473.71-2.14 1.876-2 3.5a12.93 12.93 0 0 0-5 .5c1.211.893 1.211 1.726 0 2.5-8.817 3.839-16.484 9.173-23 16z"/>
    <path fill="#8e8e8e" d="M445.5 685.5c1.293 1.342 2.126 3.009 2.5 5 1-1.333 2-1.333 3 0 1.309-2.391 2.309-2.391 3 0a9.454 9.454 0 0 1 1.5-2.5 76.95 76.95 0 0 1 22 1.5 22.136 22.136 0 0 1 6 3c-.391-1.391.442-2.391 2.5-3 3.881.871 7.547 2.871 11 6l1-1c2.758 2.143 5.924 3.31 9.5 3.5l4 2c-.84 1.666-.34 1.833 1.5.5a48.165 48.165 0 0 0 2.5 5c.925 1.141 1.759 1.141 2.5 0 2.292 2.618 5.126 4.451 8.5 5.5-1.544.29-2.877.956-4 2l2 1a6.802 6.802 0 0 0-3 1.5c-7.352 10.6-17.186 17.933-29.5 22a3.943 3.943 0 0 1-2-1c-3.766 4.343-8.266 7.343-13.5 9-1.181 3.435-3.515 5.769-7 7a9.86 9.86 0 0 1-6 1c.039 1.859-.794 3.192-2.5 4a66.678 66.678 0 0 0-5.5-2c-1.098 3.861-1.931 3.861-2.5 0-.853 1.625-1.853 1.958-3 1-2.841.92-5.674 1.92-8.5 3-2.146-1.394-4.479-2.06-7-2v-4a13.116 13.116 0 0 1-7-1c-2.246-2.263-4.913-3.596-8-4a187.159 187.159 0 0 0-10-13.5c.837-1.011 1.17-2.178 1-3.5h-3v-4h-3c-.079-2.166-.746-4.166-2-6a34.119 34.119 0 0 0 1-10h3a13.116 13.116 0 0 1 1-7 6.846 6.846 0 0 1 4-1c.417-2.843 1.417-5.51 3-8 1.342 1.402 2.176 1.069 2.5-1l1 2a10.756 10.756 0 0 1 2.5-3c-.826-.951-.992-1.951-.5-3 3.275 1.361 6.441 1.028 9.5-1 4.884 2.099 9.551 1.432 14-2a10.258 10.258 0 0 1 1.5 4c.495-1.973.662-3.973.5-6z"/>
    <path fill="#868686" d="M471.5 706.5c13.137 1.11 25.804 3.11 38 6v3h4c-.892 3.427-2.892 6.261-6 8.5a76.83 76.83 0 0 1-16 9.5 3.647 3.647 0 0 1-1.5-1c-2.805 3.835-6.638 6.335-11.5 7.5-.612 1.303-.946 2.47-1 3.5-.815-1.776-1.982-2.443-3.5-2-.318 1.561-1.151 2.728-2.5 3.5a37.495 37.495 0 0 0-12.5 3.5 423.925 423.925 0 0 0-19.5-7v-4h-3c-.849-4.689-2.515-9.022-5-13 2.627.207 4.293-.96 5-3.5-1.221-1.982-2.888-3.482-5-4.5a16.873 16.873 0 0 1 8-1v-4h16v-4c4.024.003 8.024.336 12 1 1.833-.085 3.166-.752 4-2z"/>
    <path fill="#a3a3a3" d="M533.5 719.5a33.696 33.696 0 0 1-11.5 9l-1-1c-1.488 1.66-3.321 2.66-5.5 3a114.037 114.037 0 0 0-13 6c6.516-6.827 14.183-12.161 23-16 1.211-.774 1.211-1.607 0-2.5a12.93 12.93 0 0 1 5-.5c-.14-1.624.527-2.79 2-3.5-2.491-.626-2.491-1.459 0-2.5a80.264 80.264 0 0 1-19-14.5c-3.157-.742-5.823-2.242-8-4.5a46.104 46.104 0 0 0-10-.5c-1.043-1.976-2.377-2.476-4-1.5-9.387-6.207-20.053-9.707-32-10.5 1.785-1.163 3.785-1.83 6-2l-2-1a171.233 171.233 0 0 0-32 .5 217.268 217.268 0 0 0-28 8c0 4-2 6-6 6-.143 5.281-2.143 9.614-6 13a66.641 66.641 0 0 0 0 23c3.761 3.522 5.927 7.855 6.5 13 3.652-1.495 5.652-.161 6 4a12.14 12.14 0 0 1 4.5 3.5l-2 1a8.43 8.43 0 0 0 4 .5v4c2.357-.163 4.69.003 7 .5 1.473.71 2.14 1.876 2 3.5 2.882.108 5.215 1.274 7 3.5 8.349.573 16.682.407 25-.5-2.843.495-5.176 1.995-7 4.5l-7 1c-2.65 2.596-5.816 4.096-9.5 4.5-1.395-1.315-2.395-.981-3 1-.674-1.078-1.674-1.745-3-2a150.709 150.709 0 0 0-10.5-1.5 18.117 18.117 0 0 1-5.5-4.5l-1 1c-2.178-1.393-3.178-3.06-3-5-1.779 2.776-2.779 2.443-3-1-2.13-.641-3.63-1.974-4.5-4-1.189-.929-2.522-1.262-4-1 .262-1.478-.071-2.811-1-4-1.602 1.05-2.435.383-2.5-2-.388.928-1.055 1.595-2 2-1.3-1.207-2.8-1.874-4.5-2l-4-10h-4v-4a23.142 23.142 0 0 1-8-2 6369.937 6369.937 0 0 0-4-20 50.413 50.413 0 0 1 2.5-13c.718.951 1.551 1.117 2.5.5-1.123-1.044-2.456-1.71-4-2l24-16c-2.493-1.583-2.326-3.083.5-4.5 2.88 3.65 3.713 2.983 2.5-2a21.685 21.685 0 0 0 4.5-7 66.678 66.678 0 0 0 5.5 2c1.342-1.505 3.008-2.172 5-2v-3c4.309.256 8.309-.744 12-3a48.73 48.73 0 0 1 17-.5l5 3c7.638-.259 14.471 1.908 20.5 6.5l1-1a251.295 251.295 0 0 1 27 13c3.523-1.688 6.357-.522 8.5 3.5 1.914 1.12 3.748 1.286 5.5.5 4.191 3.75 9.024 6.583 14.5 8.5 3.047 4.184 7.047 6.851 12 8a20.499 20.499 0 0 0 2.5 3.5l3-1c.914 3.078 2.747 5.411 5.5 7-.594 2.808-1.927 5.141-4 7z"/>
    <path fill="#282828" d="M372.5 706.5a18.453 18.453 0 0 1 6 .5c1.227 1.587.894 2.921-1 4-4.277.884-5.943-.616-5-4.5z"/>
    <path fill="#cfccb6" d="M699.5 747.5c3.257-.326 4.757 1.007 4.5 4-2.493 1.446-4.327.779-5.5-2 .363-.683.696-1.35 1-2z"/>
    <path fill="#1e201f" d="M256.5 755.5c.61.891.943 1.891 1 3a308.607 308.607 0 0 0-4 3c-1.459.067-2.792-.266-4-1-3.427-1.513-3.761-3.513-1-6 2.943-1.475 5.609-1.142 8 1z"/>
    <path fill="#edefee" d="M249.5 755.5c1.929-.269 3.595.231 5 1.5-2.537 2.209-4.203 1.709-5-1.5z"/>
    <path fill="#f2f3f2" d="M697.5 762.5c2.357-.163 4.69.003 7 .5.837 1.011 1.17 2.178 1 3.5a24.935 24.935 0 0 1-7-.5c-.837-1.011-1.17-2.178-1-3.5z"/>
    <path fill="#e4e4e4" d="M578.5 681.5c-.28-3.725-2.28-4.892-6-3.5-1.509 3.669-.176 5.169 4 4.5a1015.913 1015.913 0 0 0-23.5 15 100.318 100.318 0 0 1-1.5 8c1.694 3.164 2.194 6.498 1.5 10a123.945 123.945 0 0 1-8.5 10 610.357 610.357 0 0 1-20.5 11l-4.5 4.5a32.473 32.473 0 0 0-10 4c-.969 1.758-2.136 2.258-3.5 1.5a26.813 26.813 0 0 1-7.5 3.5 10.91 10.91 0 0 1-5 4.5c-1.535 3.624-.868 6.791 2 9.5a1039.083 1039.083 0 0 1 27 18c3.423 1.904 7.09 2.737 11 2.5 1.334 2.855 3.334 5.355 6 7.5a179.617 179.617 0 0 1 15 10c5.29 3.318 10.957 5.485 17 6.5a62.957 62.957 0 0 1 7 6.5c14.624 5.669 27.957 13.336 40 23a441.371 441.371 0 0 0 25 13l11.5 11.5c2.096 8.574-1.07 13.741-9.5 15.5-2.614 3.29-5.781 5.79-9.5 7.5l-1-1c-.113 2.474-1.113 4.474-3 6-.667 1.667-.667 3.333 0 5a57.05 57.05 0 0 1 13.5 8.5c-1.44 3.941-4.107 6.775-8 8.5-9.186-2.089-17.853-5.589-26-10.5a28.143 28.143 0 0 0-12 .5c-12.993 6.876-26.993 8.71-42 5.5-10.105-4.546-20.438-9.546-31-15l-4-4a689.233 689.233 0 0 0-31-17l-4-4a1656.247 1656.247 0 0 1-67-38.5 64.292 64.292 0 0 0-6.5-7 30.485 30.485 0 0 1 0-11 86.287 86.287 0 0 1 8-9 9.62 9.62 0 0 0 1.5-4.5c-2.162-3.104-5.162-5.27-9-6.5a128.722 128.722 0 0 0-16 6.5 44.145 44.145 0 0 0-15 3 173.04 173.04 0 0 1-31-.5 5691.034 5691.034 0 0 1-22-9.5c-3-.667-6-.667-9 0a284.843 284.843 0 0 0-21 9 9.454 9.454 0 0 0-1.5 2.5l-1-1a4.934 4.934 0 0 0-.5 3c-4.294-.302-7.461 1.364-9.5 5-3.041-.629-5.541.537-7.5 3.5-4.053.278-7.553 1.778-10.5 4.5a4.934 4.934 0 0 0-.5 3 34.033 34.033 0 0 0-8 1.5 49.218 49.218 0 0 1-12 7l-2 3c-5.554 1.1-10.221 3.767-14 8-4.202.263-7.202 2.263-9 6-.949.617-1.782.451-2.5-.5-1.113 3.024-3.28 4.857-6.5 5.5-5.963 2.784-10.796 1.617-14.5-3.5-.667-2-.667-4 0-6a378.751 378.751 0 0 0 10.5-6.5 108.394 108.394 0 0 0 9-2 50.16 50.16 0 0 1 11-5c5.01-5.331 11.01-8.998 18-11a13.92 13.92 0 0 0 3-4c4.302-.286 7.635-2.286 10-6 7.665-2.492 14.332-6.492 20-12a324.533 324.533 0 0 0 21-12c1.886-2.601 1.886-5.435 0-8.5-7.942-7.479-17.275-11.312-28-11.5a152.9 152.9 0 0 1-15 7c-1.912 2.788-4.579 4.121-8 4a114.695 114.695 0 0 1-14.5 9.5c-7.644 2.877-14.477 7.043-20.5 12.5a20.431 20.431 0 0 0-5.5 1.5l-1-1c-3.355 2.022-6.022 4.689-8 8l-11 3a9.568 9.568 0 0 1-3-3l-1 1c-1.023-3.817-.523-7.317 1.5-10.5a148.119 148.119 0 0 0 22-9c6.098-4.725 12.764-8.725 20-12l4-4a189.024 189.024 0 0 0 18-8.5 308.607 308.607 0 0 1 4-3 2.428 2.428 0 0 0 2-.5c-1.366-2.438-.866-2.938 1.5-1.5 1.077-.929 2.244-1.596 3.5-2-.065.438.101.772.5 1 2.7-1.769 5.534-3.102 8.5-4-.214 1.644.12 3.144 1 4.5 14.978 1.739 27.811 7.906 38.5 18.5-.194 3.76.973 6.926 3.5 9.5a112.24 112.24 0 0 1 19 2c2.876 2.437 6.21 3.77 10 4 2.96 1.957 5.626 4.124 8 6.5 1.95 2.253 4.284 2.586 7 1 .617.111 1.117.444 1.5 1 1.18-1.184 2.68-1.851 4.5-2a103.047 103.047 0 0 0 23 .5c9.119-7.038 19.452-10.038 31-9a43.557 43.557 0 0 1 9 6.5c-.161 5.837-2.828 10.17-8 13a21.858 21.858 0 0 0-4 7.5 62.068 62.068 0 0 1 2.5 8.5 57.217 57.217 0 0 1 9.5 8.5 241.813 241.813 0 0 1 19 8 109.612 109.612 0 0 0 19.5 10.5 55.394 55.394 0 0 0 5.5 5 70.328 70.328 0 0 1 20 10c1.388-1.091 1.888-2.424 1.5-4a4498.698 4498.698 0 0 1-19-9 230.355 230.355 0 0 0-30-20l-1 2a92.458 92.458 0 0 0-11-12c-.79-3.134-.457-6.134 1-9l9-8c.343-2.693 1.676-4.693 4-6 .667-3 .667-6 0-9a52.435 52.435 0 0 1-5.5-10.5c1.597-3.931 4.264-6.931 8-9a103.775 103.775 0 0 0 12.5-2.5c16.308 6.235 32.141 13.735 47.5 22.5.881.708 1.547 1.542 2 2.5a1128.07 1128.07 0 0 1-40-20.5c-7.363-1.851-14.696-1.851-22 0-3.059 1.599-5.059 4.099-6 7.5 6.382 8.974 6.548 17.974.5 27a39.806 39.806 0 0 0-8 7c-.798 3.211-.298 6.211 1.5 9l7.5 7a3.647 3.647 0 0 1 1.5-1c3.16 2.671 6.827 4.671 11 6a25.513 25.513 0 0 0 4 4.5 237.059 237.059 0 0 0 32 18l4 4a175.46 175.46 0 0 1 22 12 165.931 165.931 0 0 0 22 13c2.717 3.688 6.384 5.688 11 6a18.33 18.33 0 0 0 6 4c9.988 1.401 19.654.401 29-3 3.746-3.586 8.079-6.253 13-8 3.443-5.562 8.443-8.896 15-10 2.037-2.065 4.703-3.732 8-5 1.847-2.579 2.347-5.412 1.5-8.5a237.906 237.906 0 0 1-15.5-10c-2.435-4.219-6.101-6.385-11-6.5l-20-14-5-1-19-13a1273.356 1273.356 0 0 1-42-23.5c10.572 3.617 20.238 8.784 29 15.5a160.999 160.999 0 0 1 15 8c1.284.684 2.451.517 3.5-.5 5.131 3.861 9.631 7.695 13.5 11.5l20 10c2.058 3.397 5.058 5.063 9 5a187.965 187.965 0 0 1 27 17l-2 1c1.918 1.77 2.418 3.937 1.5 6.5a45.255 45.255 0 0 1-7.5 8.5 155.466 155.466 0 0 1-26 12.5v3c-1.808-.009-3.475.491-5 1.5a26.126 26.126 0 0 1-7 5.5c-.928 1.268-1.095 2.601-.5 4 9.175-4.562 18.675-6.395 28.5-5.5 6.214 3.626 12.548 6.293 19 8-3.249-4.334-5.583-9.167-7-14.5 4.1-7.274 10.1-12.107 18-14.5a25.55 25.55 0 0 1 6.5-5.5c.667-3 .667-6 0-9-5.26-6.366-11.593-10.366-19-12a302.408 302.408 0 0 0-43.5-26.5l-5-5c-3.482-.905-6.482-2.572-9-5-.949-.617-1.782-.451-2.5.5a6.978 6.978 0 0 0-2.5-3.5 5126.209 5126.209 0 0 1-29-17l-5-5a155.354 155.354 0 0 0-15-7 38.948 38.948 0 0 0-14-9c-2.757-3.079-6.09-5.412-10-7-6.185-5.16-6.351-10.327-.5-15.5 11.529-10.169 24.529-16.836 39-20a40.252 40.252 0 0 1 8.5-6 25.547 25.547 0 0 0 5.5-9c-1.48-6.303-1.98-12.47-1.5-18.5 1.537-1.11 2.203-2.61 2-4.5-3.104-1.364-6.104-1.198-9 .5-3 .667-6 .667-9 0a173 173 0 0 1-15-5 1663.045 1663.045 0 0 1-30.5-21.5c-.096-2.951-.929-5.618-2.5-8a18.08 18.08 0 0 1 2-3.5c-4.592-.535-9.092-.035-13.5 1.5a226.481 226.481 0 0 0-8.5-1.5 185.164 185.164 0 0 1-23-11.5c1.13-1.932.796-2.266-1-1h-2c-7.792-2.872-15.792-3.538-24-2-9.788 3.463-19.455 7.963-29 13.5-2.473 1.561-4.473 3.561-6 6a108.394 108.394 0 0 0-9 2 6608.27 6608.27 0 0 0-19 12 111.64 111.64 0 0 0-12.5 2.5 159.667 159.667 0 0 0-12.5-1.5 108.592 108.592 0 0 0-26-10c-10.28-6.144-20.947-11.144-32-15a157.46 157.46 0 0 0-29 .5c.111-.617.444-1.117 1-1.5l21-1a4.457 4.457 0 0 1 2-1.5 1162.182 1162.182 0 0 1 18 5 3.647 3.647 0 0 0 1.5-1 192.097 192.097 0 0 0 42.5 20.5c8.762 2.191 17.429 1.857 26-1 4.027-2.5 8.027-5 12-7.5.438.065.772-.101 1-.5-.916-.278-1.582-.778-2-1.5 3.465-.984 6.631-2.65 9.5-5 1.49 1.228 2.99 1.228 4.5 0-.065.438.101.772.5 1a11.333 11.333 0 0 1 3.5-1.5c8.121-7.321 17.454-12.488 28-15.5 2.642 1.191 4.642.357 6-2.5 8.485-1.516 16.819-1.016 25 1.5 1.544-.29 2.877-.956 4-2a9.258 9.258 0 0 0 2.5 2c7.07-2.543 7.236-2.043.5 1.5-1.238.69-1.238 1.19 0 1.5-.689 1.274-1.523 1.274-2.5 0-.688.832-.521 1.498.5 2a231.094 231.094 0 0 0 16 8.5c8.324 1.881 16.657 1.881 25 0 2.266-2.755 5.266-4.088 9-4l2-4c8.238-1.016 14.238-5.182 18-12.5 3.608-1.093 7.275-1.26 11-.5 3.882 1.752 4.882 4.585 3 8.5a59.621 59.621 0 0 1-20 7c-1.927 1.602-4.094 2.935-6.5 4l-1-1a11.333 11.333 0 0 1-1.5 3.5c-4.656 1.647-8.489 4.48-11.5 8.5-.253 5.081 2.247 7.581 7.5 7.5a283.388 283.388 0 0 1 33 19 90.455 90.455 0 0 0 19 0 65.972 65.972 0 0 1 17-8c16.819-11.93 35.153-14.763 55-8.5l2-1 10 2c1.094 1.368.76 2.535-1 3.5a228.258 228.258 0 0 1-12 2.5c-8.524-2.04-17.191-2.54-26-1.5a778.773 778.773 0 0 0-11 4.5z"/>
    <path fill="#bcbcbc" d="M573.5 679.5c1.175-.219 2.175.114 3 1-1.552 1.298-2.552.965-3-1z"/>
    <path fill="#d1d1d1" d="M365.5 653.5c.371-3.705 2.371-5.705 6-6-.565 3.308-2.565 5.308-6 6z"/>
    <path fill="#eee" d="M512.5 793.5c0 .667.333 1 1 1a1273.356 1273.356 0 0 0 42 23.5l19 13 5 1 20 14c4.899.115 8.565 2.281 11 6.5a237.906 237.906 0 0 0 15.5 10c.847 3.088.347 5.921-1.5 8.5-3.297 1.268-5.963 2.935-8 5-6.557 1.104-11.557 4.438-15 10-4.921 1.747-9.254 4.414-13 8-9.346 3.401-19.012 4.401-29 3a18.33 18.33 0 0 1-6-4c-4.616-.312-8.283-2.312-11-6a165.931 165.931 0 0 1-22-13 175.46 175.46 0 0 0-22-12l-4-4a237.059 237.059 0 0 1-32-18 25.513 25.513 0 0 1-4-4.5c-4.173-1.329-7.84-3.329-11-6a3.647 3.647 0 0 0-1.5 1l-7.5-7c-1.798-2.789-2.298-5.789-1.5-9a39.806 39.806 0 0 1 8-7c6.048-9.026 5.882-18.026-.5-27 .941-3.401 2.941-5.901 6-7.5 7.304-1.851 14.637-1.851 22 0a1128.07 1128.07 0 0 0 40 20.5z"/>
    <path fill="#cfcfcf" d="M493.5 747.5c-.548 2.032-1.881 3.032-4 3a30.058 30.058 0 0 0-3 7c.056 2.611 1.056 4.778 3 6.5a60.95 60.95 0 0 1 12 9 42.318 42.318 0 0 1 13 7 21.53 21.53 0 0 1 5 6 172.965 172.965 0 0 1 29 19.5l-1 1a4223.936 4223.936 0 0 0-78-38.5c-11.59-1.241-21.924 1.592-31 8.5-.928 1.268-1.095 2.601-.5 4 5.711 5.105 7.711 11.438 6 19a93.892 93.892 0 0 1-12 11 49.355 49.355 0 0 1-7.5 11c-1.895-2.367-2.395-5.034-1.5-8l7-13c.789-2.212.622-4.212-.5-6a43.557 43.557 0 0 0-9-6.5c-11.548-1.038-21.881 1.962-31 9-7.685.692-15.351.525-23-.5-1.82.149-3.32.816-4.5 2-.383-.556-.883-.889-1.5-1v-1a173.55 173.55 0 0 0 3-4c1.954 1.351 4.121 2.018 6.5 2a114.25 114.25 0 0 0 27.5-5.5c10.907-5.683 21.907-5.85 33-.5a32.337 32.337 0 0 0 8.5 8l1.5-4.5c-.84-1.171-1.673-2.338-2.5-3.5-.118-2.871-.784-5.538-2-8-.798-1.759-.631-3.426.5-5a129.75 129.75 0 0 1 13-8 64.966 64.966 0 0 1 19-2c5.465.351 10.632 2.017 15.5 5 2.473-1.24 2.973-2.907 1.5-5-4.756-9.375-2.09-15.375 8-18z"/>
    <path fill="#fafbfb" d="M461.5 774.5c2.584.069 4.584 1.235 6 3.5 2.92-.763 5.253-.097 7 2 5.923 1.628 11.256 4.295 16 8a196.047 196.047 0 0 0 17 8l5.5 5.5 1-1a59.602 59.602 0 0 1 17.5 11 85.125 85.125 0 0 1 24 13.5c2.861.54 5.528 1.54 8 3 12.083 9.584 25.75 17.584 41 24a354.469 354.469 0 0 1 14.5 10.5c2.452 5.151.618 8.151-5.5 9a54.628 54.628 0 0 0-2 4.5 293.82 293.82 0 0 0-17 8c-2.437 3.221-5.437 4.721-9 4.5a91.73 91.73 0 0 0-10 5.5c-4.041.827-8.041.66-12-.5a101.877 101.877 0 0 0-14-7c.219-1.175-.114-2.175-1-3-6.697-1.879-12.697-4.379-18-7.5-3.084-3.425-6.417-6.425-10-9a69.162 69.162 0 0 1-17-9c-4.326.011-7.326-1.989-9-6l-12-5c-5.486-5.248-11.819-9.248-19-12-2.301-2.78-5.301-4.447-9-5-2.626-3.462-5.96-5.962-10-7.5-1.905-2.513-2.239-5.179-1-8a57.379 57.379 0 0 1 9.5-9 26.33 26.33 0 0 0 3.5-9c-.657-1.972-.657-3.805 0-5.5-1.787-1.821-3.12-3.988-4-6.5 1.234-1.898.901-3.565-1-5 2.977-2.56 6.311-4.227 10-5z"/>
    <path fill="#d8d8d8" d="M513.5 794.5c-.667 0-1-.333-1-1-.453-.958-1.119-1.792-2-2.5-15.359-8.765-31.192-16.265-47.5-22.5a103.775 103.775 0 0 1-12.5 2.5c-3.736 2.069-6.403 5.069-8 9a52.435 52.435 0 0 0 5.5 10.5c.667 3 .667 6 0 9-2.324 1.307-3.657 3.307-4 6l-9 8c-1.457 2.866-1.79 5.866-1 9a92.458 92.458 0 0 1 11 12l1-2a230.355 230.355 0 0 1 30 20 4498.698 4498.698 0 0 0 19 9c.388 1.576-.112 2.909-1.5 4a70.328 70.328 0 0 0-20-10 55.394 55.394 0 0 1-5.5-5 109.612 109.612 0 0 1-19.5-10.5 241.813 241.813 0 0 0-19-8 57.217 57.217 0 0 0-9.5-8.5 62.068 62.068 0 0 0-2.5-8.5 21.858 21.858 0 0 1 4-7.5c5.172-2.83 7.839-7.163 8-13 1.122 1.788 1.289 3.788.5 6l-7 13c-.895 2.966-.395 5.633 1.5 8a49.355 49.355 0 0 0 7.5-11 93.892 93.892 0 0 0 12-11c1.711-7.562-.289-13.895-6-19-.595-1.399-.428-2.732.5-4 9.076-6.908 19.41-9.741 31-8.5a4223.936 4223.936 0 0 1 78 38.5l1-1a172.965 172.965 0 0 0-29-19.5 21.53 21.53 0 0 0-5-6 42.318 42.318 0 0 0-13-7 60.95 60.95 0 0 0-12-9c-1.944-1.722-2.944-3.889-3-6.5a30.058 30.058 0 0 1 3-7c2.119.032 3.452-.968 4-3a1084.358 1084.358 0 0 1 39-23 45.342 45.342 0 0 0 9-7c1.514-14.649-4.986-21.649-19.5-21a41.252 41.252 0 0 0-10.5-8 720.699 720.699 0 0 1-32-16.5c-1.763-3.552-4.43-6.219-8-8-8.961-2.315-17.294-5.982-25-11-5.588-.631-10.588-2.631-15-6 2.247-1.277 4.247-2.777 6-4.5 1.796-1.266 2.13-.932 1 1a185.164 185.164 0 0 0 23 11.5c2.843.446 5.676.946 8.5 1.5 4.408-1.535 8.908-2.035 13.5-1.5a18.08 18.08 0 0 0-2 3.5c1.571 2.382 2.404 5.049 2.5 8a1663.045 1663.045 0 0 0 30.5 21.5 173 173 0 0 0 15 5c3 .667 6 .667 9 0 2.896-1.698 5.896-1.864 9-.5.203 1.89-.463 3.39-2 4.5-.48 6.03.02 12.197 1.5 18.5a25.547 25.547 0 0 1-5.5 9 40.252 40.252 0 0 0-8.5 6c-14.471 3.164-27.471 9.831-39 20-5.851 5.173-5.685 10.34.5 15.5 3.91 1.588 7.243 3.921 10 7a38.948 38.948 0 0 1 14 9 155.354 155.354 0 0 1 15 7l5 5a5126.209 5126.209 0 0 0 29 17 6.978 6.978 0 0 1 2.5 3.5c.718-.951 1.551-1.117 2.5-.5 2.518 2.428 5.518 4.095 9 5l5 5a302.408 302.408 0 0 1 43.5 26.5c7.407 1.634 13.74 5.634 19 12 .667 3 .667 6 0 9a25.55 25.55 0 0 0-6.5 5.5c-7.9 2.393-13.9 7.226-18 14.5 1.417 5.333 3.751 10.166 7 14.5-6.452-1.707-12.786-4.374-19-8-9.825-.895-19.325.938-28.5 5.5-.595-1.399-.428-2.732.5-4a26.126 26.126 0 0 0 7-5.5c1.525-1.009 3.192-1.509 5-1.5v-3a155.466 155.466 0 0 0 26-12.5 45.255 45.255 0 0 0 7.5-8.5c.918-2.563.418-4.73-1.5-6.5l2-1a187.965 187.965 0 0 0-27-17c-3.942.063-6.942-1.603-9-5l-20-10c-3.869-3.805-8.369-7.639-13.5-11.5-1.049 1.017-2.216 1.184-3.5.5a160.999 160.999 0 0 0-15-8c-8.762-6.716-18.428-11.883-29-15.5z"/>
    <path fill="#343434" d="M357.5 792.5c2.032.548 3.032 1.881 3 4v1c-2.716 1.586-5.05 1.253-7-1-.012-2.642 1.321-3.975 4-4z"/>
    <path fill="#ddd" d="M355.5 794.5c4.088-.282 4.588.385 1.5 2-1.03-.336-1.53-1.003-1.5-2z"/>
    <path fill="#9a9a9a" d="M294.5 841.5c2.412.194 3.412 1.527 3 4-3.454.233-4.454-1.1-3-4z"/>
    <path fill="#797979" d="M698.5 855.5c2.413-4.185 5.746-5.019 10-2.5a38.793 38.793 0 0 1-10 2.5z"/>
    <path fill="#555" d="M698.5 855.5c.885 4.284 3.551 5.784 8 4.5a23.65 23.65 0 0 0 3-3.5c1.225 2.343.559 4.177-2 5.5-3 .667-6 .667-9 0-2.634-2.293-2.634-4.46 0-6.5z"/>
  </g>
</svg>