<svg xmlns="http://www.w3.org/2000/svg" width="1024" height="1024" style="shape-rendering:geometricPrecision;text-rendering:geometricPrecision;image-rendering:optimizeQuality;fill-rule:evenodd;clip-rule:evenodd">
  <path style="opacity:1" fill="#6e6e6e" d="M507.5 125.5c2.831.579 5.164 1.912 7 4-2.826-.498-5.16-1.831-7-4z"/>
  <path style="opacity:1" fill="white" d="M486.5 132.5a84.902 84.902 0 0 1 13 .5c1.939.908 2.939 2.408 3 4.5 7.007 2.163 13.007 5.83 18 11 .925-1.141 1.759-1.141 2.5 0a33.51 33.51 0 0 1 5.5 11c2.575-.871 4.242.129 5 3a13.049 13.049 0 0 1-3 4l4 2c-.457.798-1.124 1.131-2 1a541.83 541.83 0 0 0-38-23c-3.794-3.453-6.794-7.453-9-12-.172-.992.162-1.658 1-2z"/>
  <path style="opacity:1" fill="white" d="M493.5 125.5c-.381 1.431-1.381 2.264-3 2.5a9.454 9.454 0 0 1 1.5 2.5c2.005-2.3 4.172-2.3 6.5 0a3.647 3.647 0 0 0 1.5-1 436.334 436.334 0 0 0 20.5 15c1.189.929 2.522 1.262 4 1-.38 3.292.953 5.625 4 7 2.635.772 5.301.938 8 .5a58.48 58.48 0 0 1 12 8 8.43 8.43 0 0 0 4 .5v3c-6.164-3.666-12.831-5.832-20-6.5 1.5.833 2.667 2 3.5 3.5l1-1c2.28.586 4.447 1.42 6.5 2.5-1.696 1.266-3.529 1.1-5.5-.5l-1.5 1.5c1.256.417 1.923 1.25 2 2.5-2.584.548-3.584 2.215-3 5-1.21-.432-2.21-1.099-3-2 .876.131 1.543-.202 2-1l-4-2a13.049 13.049 0 0 0 3-4c-.758-2.871-2.425-3.871-5-3a33.51 33.51 0 0 0-5.5-11c-.741-1.141-1.575-1.141-2.5 0-4.993-5.17-10.993-8.837-18-11-.061-2.092-1.061-3.592-3-4.5a84.902 84.902 0 0 0-13-.5c1.237-3.508 3.57-5.842 7-7z"/>
  <path style="opacity:1" fill="#6b6b6b" d="M514.5 129.5a245.712 245.712 0 0 1 40 24.5 161.582 161.582 0 0 1 13 6c.881.708 1.547 1.542 2 2.5a176.362 176.362 0 0 0-16-7.5 616.02 616.02 0 0 0-39-25.5z"/>
  <path style="opacity:1" fill="#c3c3c3" d="M481.5 141.5a23.776 23.776 0 0 0 2.5 6 100.2 100.2 0 0 1 0 20l-1.5 3c-.502 1.021-1.168 1.188-2 .5.935-2.381 1.268-4.881 1-7.5a51.569 51.569 0 0 0-7 1c1.355-8.058 3.688-15.725 7-23z"/>
  <path style="opacity:1" fill="white" d="M507.5 125.5c1.84 2.169 4.174 3.502 7 4a616.02 616.02 0 0 1 39 25.5 176.362 176.362 0 0 1 16 7.5c.782 1.951 2.116 3.451 4 4.5a3065.032 3065.032 0 0 0 68 37.5c1.067 2.379.067 3.379-3 3-8.213-1.937-15.88-5.27-23-10a9924.352 9924.352 0 0 0-15-4.5c-.116-1.268-.449-2.602-1-4a845.471 845.471 0 0 1-33-21c-4.909.225-9.076-1.275-12.5-4.5-.399.228-.565.562-.5 1h-1v-3a8.43 8.43 0 0 1-4-.5 58.48 58.48 0 0 0-12-8 17.903 17.903 0 0 1-8-.5c-3.047-1.375-4.38-3.708-4-7-1.478.262-2.811-.071-4-1a436.334 436.334 0 0 1-20.5-15 3.647 3.647 0 0 1-1.5 1c-2.328-2.3-4.495-2.3-6.5 0a9.454 9.454 0 0 0-1.5-2.5c1.619-.236 2.619-1.069 3-2.5l4-2a79.172 79.172 0 0 0 10 2z"/>
  <path style="opacity:1" fill="#c8c8c8" d="M552.5 164.5h1c2.335 3.684 5.669 6.184 10 7.5-2.843-.576-5.677-.409-8.5.5-2.02-.532-2.853-1.865-2.5-4-2.403.107-4.236-.893-5.5-3-2.719.944-5.552 1.277-8.5 1-.077-1.25-.744-2.083-2-2.5l1.5-1.5c1.971 1.6 3.804 1.766 5.5.5a29.898 29.898 0 0 0-6.5-2.5l-1 1c-.833-1.5-2-2.667-3.5-3.5 7.169.668 13.836 2.834 20 6.5z"/>
  <path style="opacity:1" fill="#6b6b6b" d="M569.5 162.5c10.132 6.571 20.798 12.404 32 17.5a165.47 165.47 0 0 0 30 17c3.8 1.979 7.134 4.479 10 7.5a3065.032 3065.032 0 0 1-68-37.5c-1.884-1.049-3.218-2.549-4-4.5z"/>
  <path style="opacity:1" fill="#ddd" d="M485.5 134.5c2.206 4.547 5.206 8.547 9 12-2.114.86-3.28 2.527-3.5 5a370.143 370.143 0 0 1-13.5 61c-.667 0-1 .333-1 1-.16 1.653-.826 2.986-2 4v-3c-1.322-.17-2.489.163-3.5 1l-2.5-3c-6.622 3.451-10.788 8.784-12.5 16a243.902 243.902 0 0 1-4 17l-1-3c-.236 1.619-1.069 2.619-2.5 3 .988-3.985 1.988-7.985 3-12a598.017 598.017 0 0 0 23-69 51.569 51.569 0 0 1 7-1c.268 2.619-.065 5.119-1 7.5.832.688 1.498.521 2-.5l1.5-3a100.2 100.2 0 0 0 0-20 23.776 23.776 0 0 1-2.5-6 36.693 36.693 0 0 1 4-7z"/>
  <path style="opacity:1" fill="#757575" d="M494.5 146.5a541.83 541.83 0 0 1 38 23c.79.901 1.79 1.568 3 2a4549.077 4549.077 0 0 1 72 41.5 363.959 363.959 0 0 1 22 14.5 38.252 38.252 0 0 0 7 5 31.147 31.147 0 0 1 2-2c1.418 1.808 3.418 2.475 6 2 .131.876-.202 1.543-1 2-1.268-.928-2.601-1.095-4-.5a33.902 33.902 0 0 0 6 3.5c1.855-6.063 6.021-10.729 12.5-14 1.31.63 2.144 1.63 2.5 3-4.913 1.616-8.913 4.45-12 8.5a11.295 11.295 0 0 0 2 4 49.056 49.056 0 0 1 8 5.5c-5.718-2.738-6.384-1.572-2 3.5 3.492.906 7.159 2.24 11 4a74.824 74.824 0 0 0 9 8 26.592 26.592 0 0 1 10.5 6.5l1-1a25.724 25.724 0 0 0 7.5 3.5c.881.708 1.547 1.542 2 2.5a214.993 214.993 0 0 1-15-5 112.63 112.63 0 0 1-21-13 4569.256 4569.256 0 0 0-16-10c-.793-2.626-2.46-4.46-5-5.5-4.66-1.988-9.327-3.988-14-6-9.421-7.68-19.421-13.68-30-18l1-1-3-1 1-1-7-1c-1.117-1.892-2.784-2.725-5-2.5a439.617 439.617 0 0 1-44-25c-.558-1.29-1.558-2.123-3-2.5a3.647 3.647 0 0 0 1-1.5 200.814 200.814 0 0 0-13-5.5 11.333 11.333 0 0 1-1.5-3.5c-1.113 1.211-2.28 1.211-3.5 0a14.73 14.73 0 0 0-5-5.5c-4.07-1.649-8.07-2.983-12-4a28.627 28.627 0 0 1-8-7.5 550.616 550.616 0 0 0-6 32.5c1.122.147 2.122.981 3 2.5.237 1.291-.096 2.291-1 3 .107-1.879-.393-2.212-1.5-1-1.294 1.354-1.46 2.688-.5 4-1.22 2.481-2.886 4.481-5 6l-6 13a370.143 370.143 0 0 0 13.5-61c.22-2.473 1.386-4.14 3.5-5z"/>
  <path style="opacity:1" fill="#535353" d="M539.5 182.5a26.378 26.378 0 0 1-8-4 10.258 10.258 0 0 0-1.5 4 17.18 17.18 0 0 0-4.5-7.5 269.146 269.146 0 0 0-27-15.5 533.826 533.826 0 0 0-7 28c-.878-1.519-1.878-2.353-3-2.5a550.616 550.616 0 0 1 6-32.5 28.627 28.627 0 0 0 8 7.5c3.93 1.017 7.93 2.351 12 4a14.73 14.73 0 0 1 5 5.5c1.22 1.211 2.387 1.211 3.5 0a11.333 11.333 0 0 0 1.5 3.5 200.814 200.814 0 0 1 13 5.5 3.647 3.647 0 0 1-1 1.5c1.442.377 2.442 1.21 3 2.5z"/>
  <path style="opacity:1" fill="#efefef" d="M680.5 273.5c2.637 1.982 3.97 4.648 4 8 1.777.286 3.444.953 5 2 1.286-.352 2.119-1.018 2.5-2a31.676 31.676 0 0 0 10.5 5.5c-2.916.049-3.916 1.216-3 3.5l5 1c2.141-.113 3.975-.78 5.5-2 1.539 1.046 1.705 2.379.5 4a16.229 16.229 0 0 0 2 5 25.513 25.513 0 0 1-4 4.5 4.934 4.934 0 0 0 3 .5 133.424 133.424 0 0 1 3.5 11c.377 1.442 1.21 2.442 2.5 3a4.934 4.934 0 0 1-.5 3c-.654-1.196-1.154-1.196-1.5 0 .577 2.05 1.91 3.05 4 3v4h8c.688 4.877-.479 9.21-3.5 13 .035 4.758-1.298 9.091-4 13a4.457 4.457 0 0 0-1.5-2l-3 4a193.557 193.557 0 0 0-4.5 21 6.978 6.978 0 0 1-2.5 3.5c-2.507.093-4.674.926-6.5 2.5-1.726-1.076-3.559-1.243-5.5-.5-1.196.654-1.196 1.154 0 1.5a6.846 6.846 0 0 1 4-1c-.362 3.387-2.362 5.053-6 5l-3-1.5c.084-5.956.084-12.123 0-18.5h-4v-16l-16-2v-30a912.823 912.823 0 0 1-30-2c.017-3.617-.983-6.95-3-10-2.214 2.424-3.214 1.757-3-2-1.291.237-2.291-.096-3-1 .996.086 1.829-.248 2.5-1a22.127 22.127 0 0 1 2.5-9c-.866-3.453-2.866-5.786-6-7 .557-2.449.557-4.782 0-7a4806.052 4806.052 0 0 1-10-6c2.425-6.152 3.591-12.486 3.5-19a81.338 81.338 0 0 0-5.5-5c2.456-6.86.122-10.36-7-10.5.837 1.011 1.17 2.178 1 3.5-1.32-1.442-2.986-2.108-5-2 0-.667-.333-1-1-1 1.109-.79 2.442-1.29 4-1.5-1.798-1.505-3.632-1.672-5.5-.5a150.707 150.707 0 0 1-6 23 369.253 369.253 0 0 0-13.5-10c.734-1.208 1.067-2.541 1-4h-76v8h-16v16h-16v12h-16v4h8v8h-6a16.873 16.873 0 0 1-1 8l-2 1a130.373 130.373 0 0 0-1.5 16c-2.934 2.412-4.768 5.412-5.5 9h-3c.262 1.478-.071 2.811-1 4a9.425 9.425 0 0 0-3 3c-2.313 1.338-4.98 1.338-8 0-.244 2.763-1.577 4.929-4 6.5 1.054 1.388 1.22 2.888.5 4.5l-1-2a176.469 176.469 0 0 0-7.5 16 40.261 40.261 0 0 1-4.5 4 547.956 547.956 0 0 0-10.5 19.5c.687 1.162.853 2.328.5 3.5-7.417 7.946-14.917 14.946-22.5 21a1314.352 1314.352 0 0 0 41-73c4.867-.363 7.534-3.03 8-8 1.024 1.353 2.357 2.02 4 2 .179-5.508 2.513-9.841 7-13a29.144 29.144 0 0 1-5-2.5c.935-2.381 1.268-4.881 1-7.5a54.343 54.343 0 0 1 4-9c3.47-4.189 6.303-8.855 8.5-14 4.129-13.92 10.129-26.92 18-39a102.82 102.82 0 0 1 9-21 342.134 342.134 0 0 0 14.5-55c8.035 3.193 15.369 7.693 22 13.5a253.748 253.748 0 0 0 19 7 81.901 81.901 0 0 0 14 10 251.22 251.22 0 0 1 51 32 2156.403 2156.403 0 0 1 55 29 283.382 283.382 0 0 0 18 12.5z"/>
  <path style="opacity:1" fill="#666" d="M507.5 125.5a79.172 79.172 0 0 1-10-2l-4 2c-3.43 1.158-5.763 3.492-7 7-.838.342-1.172 1.008-1 2a36.693 36.693 0 0 0-4 7c-3.312 7.275-5.645 14.942-7 23a598.017 598.017 0 0 1-23 69 1417.116 1417.116 0 0 0 25.5-86c2.943-7.723 6.776-14.89 11.5-21.5a48.701 48.701 0 0 1 10.5-4.5c3.227.699 6.061 2.032 8.5 4z"/>
  <path style="opacity:1" fill="#ebebeb" d="M638.5 207.5c-2.505 1.686-3.338 4.019-2.5 7a51.22 51.22 0 0 0 2.5-4v3c2.958 1.041 5.958 1.041 9 0-2.577 1.135-4.577 2.969-6 5.5a4.934 4.934 0 0 1-3 .5 9.86 9.86 0 0 1-1 6l-2-8c-3.886 3.539-3.886 7.206 0 11l-1 1a16.076 16.076 0 0 0-5-2 363.959 363.959 0 0 0-22-14.5 4549.077 4549.077 0 0 0-72-41.5c-.584-2.785.416-4.452 3-5 2.948.277 5.781-.056 8.5-1 1.264 2.107 3.097 3.107 5.5 3-.353 2.135.48 3.468 2.5 4 2.823-.909 5.657-1.076 8.5-.5-4.331-1.316-7.665-3.816-10-7.5-.065-.438.101-.772.5-1 3.424 3.225 7.591 4.725 12.5 4.5a845.471 845.471 0 0 0 33 21c.551 1.398.884 2.732 1 4 4.991 1.493 9.991 2.993 15 4.5 7.12 4.73 14.787 8.063 23 10z"/>
  <path style="opacity:1" fill="#a2a2a2" d="M483.5 199.5c.309 6.112-1.525 11.446-5.5 16-.278-.916-.778-1.582-1.5-2 0-.667.333-1 1-1l6-13z"/>
  <path style="opacity:1" fill="#f3f3f3" d="M652.5 211.5c-1.135 1.713-2.802 2.38-5 2-3.042 1.041-6.042 1.041-9 0v-3c1.293-.658 2.793-.992 4.5-1 3.282.231 6.449.897 9.5 2z"/>
  <path style="opacity:1" fill="#707070" d="M641.5 204.5a93.543 93.543 0 0 1 11 7 35.042 35.042 0 0 0-9.5-2c-1.707.008-3.207.342-4.5 1a51.22 51.22 0 0 1-2.5 4c-.838-2.981-.005-5.314 2.5-7 3.067.379 4.067-.621 3-3z"/>
  <path style="opacity:1" fill="#878787" d="M659.5 214.5c.992-.172 1.658.162 2 1-.543.06-.876.393-1 1a34.534 34.534 0 0 1 5.5 6c.667.667.667 1.333 0 2-4.056-4.908-8.556-5.241-13.5-1l-1-.5c1.477-2.148 3.477-3.482 6-4-4.054.007-7.221 1.84-9.5 5.5.08 6.107-1.587 6.44-5 1l-1 1a8.43 8.43 0 0 1-.5-4 725.465 725.465 0 0 0 6.5-7c3.987-.651 7.821-.984 11.5-1z"/>
  <path style="opacity:1" fill="#474747" d="M661.5 215.5c4.141 3.486 7.141 7.819 9 13a86.775 86.775 0 0 1 13 9h-2a591.092 591.092 0 0 1-21-11c-.356-1.37-1.19-2.37-2.5-3-6.479 3.271-10.645 7.937-12.5 14a33.902 33.902 0 0 1-6-3.5c1.399-.595 2.732-.428 4 .5.798-.457 1.131-1.124 1-2 .111-.617.444-1.117 1-1.5-1.455-1.626-3.122-2.792-5-3.5-1.075-2.356-1.075-4.689 0-7 .798.457 1.131 1.124 1 2a8.43 8.43 0 0 0 .5 4l1-1c3.413 5.44 5.08 5.107 5-1 2.279-3.66 5.446-5.493 9.5-5.5-2.523.518-4.523 1.852-6 4l1 .5c4.944-4.241 9.444-3.908 13.5 1 .667-.667.667-1.333 0-2a34.534 34.534 0 0 0-5.5-6c.124-.607.457-.94 1-1z"/>
  <path style="opacity:1" fill="#5c5c5c" d="M652.5 211.5a32.894 32.894 0 0 0 7 3c-3.679.016-7.513.349-11.5 1a725.465 725.465 0 0 1-6.5 7c.131-.876-.202-1.543-1-2-1.075 2.311-1.075 4.644 0 7-.901.79-1.568 1.79-2 3a31.147 31.147 0 0 0-2 2 38.252 38.252 0 0 1-7-5 16.076 16.076 0 0 1 5 2l1-1c-3.886-3.794-3.886-7.461 0-11l2 8a9.86 9.86 0 0 0 1-6 4.934 4.934 0 0 0 3-.5c1.423-2.531 3.423-4.365 6-5.5 2.198.38 3.865-.287 5-2z"/>
  <path style="opacity:1" fill="#979797" d="M471.5 227.5c-.172-.992.162-1.658 1-2 1.688-1.847 3.188-4.514 4.5-8l.5 2a213.413 213.413 0 0 1-6.5 18c-.361-2.937.139-5.77 1.5-8.5-.07-.765-.403-1.265-1-1.5z"/>
  <path style="opacity:1" fill="#595959" d="M583.5 207.5c2.216-.225 3.883.608 5 2.5l7 1-1 1 3 1-1 1c10.579 4.32 20.579 10.32 30 18 4.673 2.012 9.34 4.012 14 6 2.54 1.04 4.207 2.874 5 5.5a4569.256 4569.256 0 0 1 16 10c-27.326-13.32-53.326-28.654-78-46z"/>
  <path style="opacity:1" fill="#b4b4b4" d="M640.5 227.5c1.878.708 3.545 1.874 5 3.5-.556.383-.889.883-1 1.5-2.582.475-4.582-.192-6-2 .432-1.21 1.099-2.21 2-3z"/>
  <path style="opacity:1" fill="#8f8f8f" d="M681.5 237.5h2a84.902 84.902 0 0 1 13 .5c1.558.21 2.891.71 4 1.5a112.97 112.97 0 0 1-15-.5c-1.558-.21-2.891-.71-4-1.5z"/>
  <path style="opacity:1" fill="#acacac" d="M539.5 182.5a439.617 439.617 0 0 0 44 25c24.674 17.346 50.674 32.68 78 46a112.63 112.63 0 0 0 21 13c18.969 11.487 37.969 22.987 57 34.5a4.933 4.933 0 0 1 1 2.5c-.464 2.849-1.131 5.516-2 8 .322-2.222-.345-4.056-2-5.5a159.88 159.88 0 0 1-25-17 828.36 828.36 0 0 1-31-15.5 283.382 283.382 0 0 1-18-12.5 2156.403 2156.403 0 0 0-55-29 251.22 251.22 0 0 0-51-32 81.901 81.901 0 0 1-14-10 253.748 253.748 0 0 1-19-7c-6.631-5.807-13.965-10.307-22-13.5a342.134 342.134 0 0 1-14.5 55 102.82 102.82 0 0 0-9 21c-7.871 12.08-13.871 25.08-18 39-2.197 5.145-5.03 9.811-8.5 14a745.003 745.003 0 0 0 39-108c.904-.709 1.237-1.709 1-3a533.826 533.826 0 0 1 7-28 269.146 269.146 0 0 1 27 15.5 17.18 17.18 0 0 1 4.5 7.5 10.258 10.258 0 0 1 1.5-4 26.378 26.378 0 0 0 8 4z"/>
  <path style="opacity:1" fill="#7b7b7b" d="M700.5 239.5c5.387.69 10.387 2.523 15 5.5a113.192 113.192 0 0 1 17 11.5 368.172 368.172 0 0 0-32-17z"/>
  <path style="opacity:1" fill="#979797" d="M607.5 240.5c.667 0 1 .333 1 1a129.665 129.665 0 0 1-4.5 22c-.383.556-.883.889-1.5 1a443.086 443.086 0 0 1 5-24z"/>
  <path style="opacity:1" fill="#f5f5f5" d="M586.5 251.5c-8.038 5.485-7.705 10.485 1 15-1.324 2.636-1.324 5.302 0 8a61.198 61.198 0 0 1 9 6 315.934 315.934 0 0 1-4 17c-.838.342-1.172 1.008-1 2a71.408 71.408 0 0 1-3 9c1.111 2.052 2.777 3.386 5 4 .667 0 1 .333 1 1a60.931 60.931 0 0 0 .5 11 28.986 28.986 0 0 0 9.5 6c1.147-.318 1.981-.984 2.5-2a2800.362 2800.362 0 0 1 8.5-32.5c1-.667 2-.667 3 0a151.02 151.02 0 0 0 14 8.5c.709.904 1.709 1.237 3 1-.214 3.757.786 4.424 3 2 2.017 3.05 3.017 6.383 3 10a912.823 912.823 0 0 0 30 2v30l16 2v16h4c.084 6.377.084 12.544 0 18.5l3 1.5a49.555 49.555 0 0 1-1.5 13c-3.674 2.829-6.174 6.495-7.5 11-1.363-1.379-2.363-1.213-3 .5.687 5.526 2.353 10.693 5 15.5-.878 3.667-.545 7.333 1 11-2.794 3.923-4.794 8.257-6 13-.838.342-1.172 1.008-1 2a2412.438 2412.438 0 0 1-33 57 125.71 125.71 0 0 0-10 16 14.698 14.698 0 0 0-3.5 3 798.462 798.462 0 0 1-58 76 119.493 119.493 0 0 0-11.5 17c-1.75 1.159-2.75 2.826-3 5a25.14 25.14 0 0 0-4.5 4 140.186 140.186 0 0 1-13.5 20 862.595 862.595 0 0 1-43 42.5 56.81 56.81 0 0 0-15 9c-8.242 3.451-16.742 4.284-25.5 2.5-6.724-.559-11.557 2.108-14.5 8a308.418 308.418 0 0 0-26-16 231.25 231.25 0 0 1-23-21.5 19.177 19.177 0 0 0-5-2.5c-3.236-3.297-6.903-6.13-11-8.5-7.055-4.189-14.055-8.356-21-12.5a25.14 25.14 0 0 0-4-4.5 269.588 269.588 0 0 0-42-25.5 180.02 180.02 0 0 0 23 14.5l2 2c-2.366.44-4.699.94-7 1.5-4.937.937-9.27-.563-13-4.5-6.722-2.058-12.388-5.725-17-11a76.665 76.665 0 0 0-16-9c-9.518-8.594-20.184-15.428-32-20.5a26.585 26.585 0 0 1-2-3.5 137.896 137.896 0 0 0-13-9 24.362 24.362 0 0 0-10-1.5c.233 3.409 1.9 5.909 5 7.5a205.993 205.993 0 0 0 17 9c1.017 1.049 1.184 2.216.5 3.5a306.357 306.357 0 0 0-20.5-5c-11.118-3.878-20.452-10.212-28-19-3.56-.559-5.893-2.559-7-6a3.647 3.647 0 0 1 1-1.5 25.238 25.238 0 0 1 10 0 170.939 170.939 0 0 1 13 11 8.43 8.43 0 0 0 4 .5 9.86 9.86 0 0 0-1-6c-5.754-5.442-12.421-9.109-20-11a24.304 24.304 0 0 1-7.5-5 15.91 15.91 0 0 1-4.5 2.5c1.063 1.188 2.397 1.688 4 1.5-.061 2.092-1.061 3.592-3 4.5-2.009-.594-4.009-.427-6 .5a3.647 3.647 0 0 1-1.5-1 189.432 189.432 0 0 0-.5-9c1.433-7.28 5.767-10.447 13-9.5a42.302 42.302 0 0 0 8 3.5 68.974 68.974 0 0 1 5 6.5 322.9 322.9 0 0 1 19 11.5l1-.5c-1.231-1.405-2.564-2.571-4-3.5.558-1.29 1.558-2.123 3-2.5a282.925 282.925 0 0 1 25-8c.556-.383.889-.883 1-1.5.342-.838 1.008-1.172 2-1 12.006-5.01 22.339-12.343 31-22a1173.222 1173.222 0 0 0 47.5-49 689.099 689.099 0 0 0 19.5-26 195.732 195.732 0 0 0 32-42 22.755 22.755 0 0 1 4-5c7.583-6.054 15.083-13.054 22.5-21 .353-1.172.187-2.338-.5-3.5a547.956 547.956 0 0 1 10.5-19.5 40.261 40.261 0 0 0 4.5-4 176.469 176.469 0 0 1 7.5-16l1 2c.72-1.612.554-3.112-.5-4.5 2.423-1.571 3.756-3.737 4-6.5 3.02 1.338 5.687 1.338 8 0a9.425 9.425 0 0 1 3-3c.929-1.189 1.262-2.522 1-4h3c.732-3.588 2.566-6.588 5.5-9 .171-5.364.671-10.698 1.5-16l2-1a16.873 16.873 0 0 0 1-8h6v-8h-8v-4h16v-12h16v-16h16v-8h76c.067 1.459-.266 2.792-1 4z"/>
  <path style="opacity:1" fill="#a7a7a7" d="M479.5 243.5c2.85 3.049 4.017 6.716 3.5 11a46.032 46.032 0 0 1-3.5-11z"/>
  <path style="opacity:1" fill="#6d6d6d" d="M608.5 241.5c2.014-.108 3.68.558 5 2a102 102 0 0 1-6 22.5c1.556 2.052 3.556 3.552 6 4.5.886.825 1.219 1.825 1 3-2.412-1.953-5.079-3.12-8-3.5a383.598 383.598 0 0 1 18 13.5c.131.876-.202 1.543-1 2l-11-7.5c-3.14-1.948-6.473-2.948-10-3a4.933 4.933 0 0 1 1 2.5 244.115 244.115 0 0 1-6.5 30 6.802 6.802 0 0 1-1.5 3c-1.268-.928-2.601-1.095-4-.5 1.256.417 1.923 1.25 2 2.5-2.223-.614-3.889-1.948-5-4a71.408 71.408 0 0 0 3-9c.406 2.781.406 5.781 0 9h3a1892.854 1892.854 0 0 1 7-35 14.698 14.698 0 0 0-3-3.5c-6.054-2.897-11.388-6.73-16-11.5.124-.607.457-.94 1-1 .311.978.978 1.645 2 2l1-4a33.168 33.168 0 0 0 12 7c1.562.233 2.895.9 4 2 .617-.111 1.117-.444 1.5-1a129.665 129.665 0 0 0 4.5-22z"/>
  <path style="opacity:1" fill="#a6a6a6" d="M619.5 250.5a81.338 81.338 0 0 1 5.5 5c.091 6.514-1.075 12.848-3.5 19a33.673 33.673 0 0 0-5.5-4l-.5-3.5a449 449 0 0 0 4-16.5z"/>
  <path style="opacity:1" fill="#d8d9d9" d="M780.5 287.5c2.755 1.131 5.089 2.798 7 5-4.429-.613-8.095.72-11 4 .03-.997-.47-1.664-1.5-2a37.18 37.18 0 0 1-11.5 1.5c-3.91-4.255-8.576-7.255-14-9a36.078 36.078 0 0 1-3.5-4.5l-3 1c-1.185-2.103-2.852-3.77-5-5a338.477 338.477 0 0 0-13.5-5c.256-2.292-.077-4.459-1-6.5a32.444 32.444 0 0 1-6-1.5 3.647 3.647 0 0 0-1.5 1 5917.597 5917.597 0 0 1-9.5-12.5 20.093 20.093 0 0 0-6-1.5 4.934 4.934 0 0 1-.5 3 84.382 84.382 0 0 0-6.5-9c2.946-1.155 5.946-1.321 9-.5a53.743 53.743 0 0 0 12 7 23.65 23.65 0 0 1 3 3.5c2.023-.541 4.023-.041 6 1.5a52.108 52.108 0 0 1 8 5.5 4.457 4.457 0 0 1-2 1.5c3.794.456 6.461 2.456 8 6l-2 1c7.561 7.203 16.394 12.369 26.5 15.5a24.275 24.275 0 0 1 3.5 3.5c4.78-1.647 9.78-2.814 15-3.5z"/>
  <path style="opacity:1" fill="#616161" d="M451.5 233.5a3186.025 3186.025 0 0 0-3 12 926.135 926.135 0 0 0-20.5 49l-43 80c-.708.881-1.542 1.547-2.5 2a2555.608 2555.608 0 0 0 44.5-85 747.868 747.868 0 0 1 24.5-58z"/>
  <path style="opacity:1" fill="#919191" d="M436.5 320.5c-.597-.235-.93-.735-1-1.5a78.713 78.713 0 0 0 6-14.5 302.366 302.366 0 0 1 9-21c2.347-3.194 4.514-7.194 6.5-12a598.3 598.3 0 0 1 12-32c.201 3.015-.132 6.015-1 9a769.154 769.154 0 0 1-31.5 72z"/>
  <path style="opacity:1" fill="white" d="M660.5 226.5a591.092 591.092 0 0 0 21 11c1.109.79 2.442 1.29 4 1.5 4.989.499 9.989.666 15 .5a368.172 368.172 0 0 1 32 17 152.994 152.994 0 0 0 20 15.5 568.78 568.78 0 0 0 28 15.5c-5.22.686-10.22 1.853-15 3.5a24.275 24.275 0 0 0-3.5-3.5c-10.106-3.131-18.939-8.297-26.5-15.5l2-1c-1.539-3.544-4.206-5.544-8-6a4.457 4.457 0 0 0 2-1.5 52.108 52.108 0 0 0-8-5.5c-1.977-1.541-3.977-2.041-6-1.5a23.65 23.65 0 0 0-3-3.5 53.743 53.743 0 0 1-12-7c-3.054-.821-6.054-.655-9 .5a84.382 84.382 0 0 1 6.5 9 4.934 4.934 0 0 0 .5-3c2.064.187 4.064.687 6 1.5 3.146 4.151 6.313 8.318 9.5 12.5a3.647 3.647 0 0 1 1.5-1 32.444 32.444 0 0 0 6 1.5c.923 2.041 1.256 4.208 1 6.5a338.477 338.477 0 0 1 13.5 5c2.148 1.23 3.815 2.897 5 5l3-1a36.078 36.078 0 0 0 3.5 4.5c5.424 1.745 10.09 4.745 14 9a37.18 37.18 0 0 0 11.5-1.5c1.03.336 1.53 1.003 1.5 2a91.679 91.679 0 0 1-7 11c-3.088-1.582-5.754-3.748-8-6.5a83.073 83.073 0 0 0-12-3.5h-1a75.717 75.717 0 0 0-14-9 16958.516 16958.516 0 0 0-31-19.5l-21-10.5a213.785 213.785 0 0 0-24-14 49.056 49.056 0 0 0-8-5.5 11.295 11.295 0 0 1-2-4c3.087-4.05 7.087-6.884 12-8.5z"/>
  <path style="opacity:1" fill="#888" d="M658.5 244.5a213.785 213.785 0 0 1 24 14c5.484 4.916 11.817 8.583 19 11a46.607 46.607 0 0 1 6 5.5l27 13.5a75.717 75.717 0 0 1 14 9c-.958.453-1.792 1.119-2.5 2a1259.986 1259.986 0 0 1-21 66 81.316 81.316 0 0 1-2.5 3 77.62 77.62 0 0 1 6-17.5c-.07-.765-.403-1.265-1-1.5-.172-.992.162-1.658 1-2-.065.438.101.772.5 1a251.64 251.64 0 0 0 13.5-48.5c-12.248-10.111-25.582-18.278-40-24.5a3.647 3.647 0 0 0-1.5 1c-.257-2.407-1.424-4.073-3.5-5-.453-.958-1.119-1.792-2-2.5a25.724 25.724 0 0 1-7.5-3.5l-1 1a26.592 26.592 0 0 0-10.5-6.5 74.824 74.824 0 0 1-9-8c-3.841-1.76-7.508-3.094-11-4-4.384-5.072-3.718-6.238 2-3.5z"/>
  <path style="opacity:1" fill="#4c4c4c" d="M607.5 240.5a443.086 443.086 0 0 0-5 24c-1.105-1.1-2.438-1.767-4-2a178.062 178.062 0 0 0-12.5-9c-1.595.856-2.428 2.189-2.5 4-.543.06-.876.393-1 1 4.612 4.77 9.946 8.603 16 11.5a14.698 14.698 0 0 1 3 3.5c-3.123 7.206-5.623 14.872-7.5 23l-1 2c-.399-.228-.565-.562-.5-1a315.934 315.934 0 0 0 4-17c1.134-2.466 1.301-5.133.5-8a145.01 145.01 0 0 0-9.5-6c-8.705-4.515-9.038-9.515-1-15a369.253 369.253 0 0 1 13.5 10 150.707 150.707 0 0 0 6-23c1.868-1.172 3.702-1.005 5.5.5-1.558.21-2.891.71-4 1.5z"/>
  <path style="opacity:1" fill="#bbb" d="M598.5 262.5a33.168 33.168 0 0 1-12-7l-1 4c-1.022-.355-1.689-1.022-2-2 .072-1.811.905-3.144 2.5-4a178.062 178.062 0 0 1 12.5 9z"/>
  <path style="opacity:1" fill="#6b6b6b" d="M732.5 256.5a561.91 561.91 0 0 0 55 32.5c.881.708 1.547 1.542 2 2.5l-2 1c-1.911-2.202-4.245-3.869-7-5a568.78 568.78 0 0 1-28-15.5 152.994 152.994 0 0 1-20-15.5z"/>
  <path style="opacity:1" fill="#a9a9a9" d="M587.5 266.5a145.01 145.01 0 0 1 9.5 6c.801 2.867.634 5.534-.5 8a61.198 61.198 0 0 0-9-6c-1.324-2.698-1.324-5.364 0-8z"/>
  <path style="opacity:1" fill="#646464" d="m682.5 258.5 21 10.5a16958.516 16958.516 0 0 1 31 19.5l-27-13.5a46.607 46.607 0 0 0-6-5.5c-7.183-2.417-13.516-6.084-19-11z"/>
  <path style="opacity:1" fill="#aeaeae" d="M614.5 273.5c3.935 2.643 7.935 5.31 12 8-.355 1.022-1.022 1.689-2 2a383.598 383.598 0 0 0-18-13.5c2.921.38 5.588 1.547 8 3.5z"/>
  <path style="opacity:1" fill="#616161" d="M682.5 266.5a214.993 214.993 0 0 0 15 5c2.076.927 3.243 2.593 3.5 5a3.647 3.647 0 0 1 1.5-1c14.418 6.222 27.752 14.389 40 24.5a251.64 251.64 0 0 1-13.5 48.5c-.399-.228-.565-.562-.5-1a368.871 368.871 0 0 0 10-36c.869-2.484 1.536-5.151 2-8a4.933 4.933 0 0 0-1-2.5 150064.354 150064.354 0 0 1-57-34.5z"/>
  <path style="opacity:1" fill="#b0b0b0" d="M631.5 287.5c3.134 1.214 5.134 3.547 6 7a22.127 22.127 0 0 0-2.5 9c-.671.752-1.504 1.086-2.5 1a151.02 151.02 0 0 1-14-8.5c-1-.667-2-.667-3 0a2800.362 2800.362 0 0 0-8.5 32.5c-.519 1.016-1.353 1.682-2.5 2a28.986 28.986 0 0 1-9.5-6 60.931 60.931 0 0 1-.5-11 32.128 32.128 0 0 1 7 3 3.647 3.647 0 0 0 1.5-1 247.458 247.458 0 0 1 9.5-31.5 170.715 170.715 0 0 1 16 7.5c1.968-.6 2.968-1.933 3-4z"/>
  <path style="opacity:1" fill="#939393" d="M601.5 273.5a1892.854 1892.854 0 0 0-7 35h-3c.406-3.219.406-6.219 0-9-.172-.992.162-1.658 1-2-.065.438.101.772.5 1l1-2c1.877-8.128 4.377-15.794 7.5-23z"/>
  <path style="opacity:1" fill="#3c3c3c" d="M619.5 250.5a449 449 0 0 1-4 16.5l.5 3.5a33.673 33.673 0 0 1 5.5 4c3.306 1.989 6.639 3.989 10 6 .557 2.218.557 4.551 0 7-.032 2.067-1.032 3.4-3 4a170.715 170.715 0 0 0-16-7.5 247.458 247.458 0 0 0-9.5 31.5 3.647 3.647 0 0 1-1.5 1 32.128 32.128 0 0 0-7-3c0-.667-.333-1-1-1-.077-1.25-.744-2.083-2-2.5 1.399-.595 2.732-.428 4 .5a6.802 6.802 0 0 0 1.5-3 244.115 244.115 0 0 0 6.5-30 4.933 4.933 0 0 0-1-2.5c3.527.052 6.86 1.052 10 3l11 7.5c.798-.457 1.131-1.124 1-2 .978-.311 1.645-.978 2-2-4.065-2.69-8.065-5.357-12-8 .219-1.175-.114-2.175-1-3-2.444-.948-4.444-2.448-6-4.5a102 102 0 0 0 6-22.5c.17-1.322-.163-2.489-1-3.5 7.122.14 9.456 3.64 7 10.5z"/>
  <path style="opacity:1" fill="#313131" d="M518.5 296.5c11.259-1.091 20.092 2.909 26.5 12 .936 12.051-4.564 16.551-16.5 13.5-5.288-1.952-9.288-5.285-12-10 .35-1.257 1.017-1.591 2-1 5.638 9.088 13.138 11.255 22.5 6.5 2.571-7.169.071-12.002-7.5-14.5-15.762-3.204-26.596 2.63-32.5 17.5-2.264 12.823 3.07 19.49 16 20l6.5-.5c3.671-1.423 7.004-3.09 10-5-6.038 7.062-13.704 9.395-23 7-5.583-1.243-9.749-4.41-12.5-9.5-4.291-18.425 2.543-30.425 20.5-36z"/>
  <path style="opacity:1" fill="#4b4b4b" d="M789.5 291.5c6.474.947 8.974 4.613 7.5 11a37.282 37.282 0 0 1-2.5 8c-.814-2.131-1.314-4.464-1.5-7-4.463 11.599-10.463 22.265-18 32-.684 1.284-.517 2.451.5 3.5-1.473.71-2.14 1.876-2 3.5-.876.131-1.543-.202-2-1a87.287 87.287 0 0 0 2.5-7 333.22 333.22 0 0 0 15.5-26.5c-.336-1.03-1.003-1.53-2-1.5.304-.65.637-1.317 1-2a42.769 42.769 0 0 0-9-1.5l4-2-2-1 12-1a9.454 9.454 0 0 1-1.5-2.5c-3.932.586-8.099.92-12.5 1 1.849-3.085 4.516-4.751 8-5l2-1z"/>
  <path style="opacity:1" fill="#9b9b9b" d="M711.5 303.5c.997-.03 1.664.47 2 1.5a91.078 91.078 0 0 0 4 12.5c-1.29-.558-2.123-1.558-2.5-3a133.424 133.424 0 0 0-3.5-11z"/>
  <path style="opacity:1" fill="#f0f0f0" d="M474.5 217.5a53.76 53.76 0 0 0-2 8c-.838.342-1.172 1.008-1 2-6.61 18.834-13.61 37.5-21 56a302.366 302.366 0 0 0-9 21l-45 82c-9.326 13.662-18.659 27.328-28 41-3.441 2.112-5.775 5.112-7 9-2.971 1.943-4.971 4.609-6 8a47.427 47.427 0 0 0-10 13c-1.762.762-2.762 2.096-3 4a1068.565 1068.565 0 0 1-36 42c-4.73 3.727-8.73 8.06-12 13a856.657 856.657 0 0 1-27 21.5 155.446 155.446 0 0 1-14 7.5h-3a4.934 4.934 0 0 0-.5-3c-.654 1.196-1.154 1.196-1.5 0 1.937-1.54 3.104-3.54 3.5-6a26.585 26.585 0 0 0 3.5-2c1.542-4.375 4.542-7.209 9-8.5a74.099 74.099 0 0 1 8-8.5 25.866 25.866 0 0 1 5-3c2.467-2.091 3.8-4.425 4-7a1256.25 1256.25 0 0 0 49.5-54 749.812 749.812 0 0 0 40.5-61c.238-1.904 1.238-3.238 3-4 2.4-1.796 4.067-4.13 5-7 .25-2.174 1.25-3.841 3-5 .958-.453 1.792-1.119 2.5-2l43-80a926.135 926.135 0 0 1 20.5-49c1.431-.381 2.264-1.381 2.5-3l1 3a243.902 243.902 0 0 0 4-17c1.712-7.216 5.878-12.549 12.5-16l2.5 3c1.011-.837 2.178-1.17 3.5-1v3z"/>
  <path style="opacity:1" fill="#898a8a" d="M787.5 292.5c-3.484.249-6.151 1.915-8 5-8.459 10.052-14.459 21.386-18 34 .392-8.778 3.058-16.778 8-24a91.679 91.679 0 0 0 7-11c2.905-3.28 6.571-4.613 11-4z"/>
  <path style="opacity:1" fill="#d3d4d4" d="M749.5 297.5c4.06.857 8.06 2.024 12 3.5 2.246 2.752 4.912 4.918 8 6.5-4.942 7.222-7.608 15.222-8 24-4.808 20.444-12.142 39.777-22 58a710.172 710.172 0 0 0 11.5-30 32.444 32.444 0 0 1 1.5-6l-1-2c4.243-4.535 5.577-9.868 4-16-3.36.71-5.193-.624-5.5-4-.236 1.619-1.069 2.619-2.5 3a57.904 57.904 0 0 0 5-17 32.93 32.93 0 0 0-2-11.5c1.614-2.561 1.281-4.727-1-6.5v-2z"/>
  <path style="opacity:1" fill="#5e5e5e" d="M787.5 306.5c.997-.03 1.664.47 2 1.5a333.22 333.22 0 0 1-15.5 26.5 87.287 87.287 0 0 1-2.5 7c.457.798 1.124 1.131 2 1-2.485 5.641-4.985 11.307-7.5 17a215.783 215.783 0 0 0-10 17 48.558 48.558 0 0 0-6.5 5c1.26-8.571 4.26-16.571 9-24a31.435 31.435 0 0 1 2-6.5c3.258-7.36 6.425-15.194 9.5-23.5 6.015-6.047 9.849-13.047 11.5-21h6z"/>
  <path style="opacity:1" fill="#504f50" d="M792.5 313.5a9845.67 9845.67 0 0 0-16 33c-1.059-2.226-.892-4.559.5-7a244.552 244.552 0 0 0 14-26c.69-1.238 1.19-1.238 1.5 0z"/>
  <path style="opacity:1" fill="white" d="M447.5 307.5c.268 2.619-.065 5.119-1 7.5a29.144 29.144 0 0 0 5 2.5c-4.487 3.159-6.821 7.492-7 13-1.643.02-2.976-.647-4-2-.466 4.97-3.133 7.637-8 8a595.274 595.274 0 0 1 15-29z"/>
  <path style="opacity:1" fill="#303030" d="M543.5 339.5c-2.678 2.723-5.178 2.389-7.5-1 .355-8.689 4.855-12.856 13.5-12.5 2.849 2.559 3.683 5.726 2.5 9.5-.93 2.052-2.43 3.552-4.5 4.5l3 1c-2.671.833-5.004.333-7-1.5z"/>
  <path style="opacity:1" fill="#e8e8e8" d="M543.5 339.5h-5c-.086-6.149 2.914-9.816 9-11 5.064 2.634 5.064 5.634 0 9a17.808 17.808 0 0 1-3.5-5 24.935 24.935 0 0 0-.5 7z"/>
  <path style="opacity:1" fill="#747474" d="M794.5 310.5c-.432 1.21-1.099 2.21-2 3-.31-1.238-.81-1.238-1.5 0a244.552 244.552 0 0 1-14 26c-1.392 2.441-1.559 4.774-.5 7a90.135 90.135 0 0 0-5 9c-.802-1.385-1.469-1.218-2 .5-5.532 11.887-12.366 23.054-20.5 33.5a126.382 126.382 0 0 0-9.5 19c.124.607.457.94 1 1 .172.992-.162 1.658-1 2-.342-.838-1.008-1.172-2-1a580.32 580.32 0 0 1 12-29 48.558 48.558 0 0 1 6.5-5 215.783 215.783 0 0 1 10-17c2.515-5.693 5.015-11.359 7.5-17-.14-1.624.527-2.79 2-3.5-1.017-1.049-1.184-2.216-.5-3.5 7.537-9.735 13.537-20.401 18-32 .186 2.536.686 4.869 1.5 7z"/>
  <path style="opacity:1" fill="#323332" d="M557.5 332.5c1.495-.085 2.495.581 3 2a53.743 53.743 0 0 1-7 12c1.687 1.068 3.354.901 5-.5 3.858-2.358 6.858-5.525 9-9.5 1.114 1.223 1.281 2.556.5 4-4.195 5.564-9.695 8.397-16.5 8.5-1.054-1.388-1.22-2.888-.5-4.5a105.047 105.047 0 0 0 6.5-12z"/>
  <path style="opacity:1" fill="white" d="M680.5 273.5a828.36 828.36 0 0 0 31 15.5 159.88 159.88 0 0 0 25 17c1.655 1.444 2.322 3.278 2 5.5a368.871 368.871 0 0 1-10 36c-.838.342-1.172 1.008-1 2a125.19 125.19 0 0 0-7 20 140.056 140.056 0 0 0-11 25 98.215 98.215 0 0 0-9 21 376.938 376.938 0 0 1-12 23c-1.545-3.667-1.878-7.333-1-11-2.647-4.807-4.313-9.974-5-15.5.637-1.713 1.637-1.879 3-.5 1.326-4.505 3.826-8.171 7.5-11a49.555 49.555 0 0 0 1.5-13c3.638.053 5.638-1.613 6-5a6.846 6.846 0 0 0-4 1c-1.196-.346-1.196-.846 0-1.5 1.941-.743 3.774-.576 5.5.5 1.826-1.574 3.993-2.407 6.5-2.5a6.978 6.978 0 0 0 2.5-3.5 193.557 193.557 0 0 1 4.5-21l3-4a4.457 4.457 0 0 1 1.5 2c2.702-3.909 4.035-8.242 4-13 3.021-3.79 4.188-8.123 3.5-13h-8v-4c-2.09.05-3.423-.95-4-3 .346-1.196.846-1.196 1.5 0a4.934 4.934 0 0 0 .5-3 91.078 91.078 0 0 1-4-12.5c-.336-1.03-1.003-1.53-2-1.5a4.934 4.934 0 0 1-3-.5 25.513 25.513 0 0 0 4-4.5 16.229 16.229 0 0 1-2-5c1.205-1.621 1.039-2.954-.5-4-1.525 1.22-3.359 1.887-5.5 2l-5-1c-.916-2.284.084-3.451 3-3.5a31.676 31.676 0 0 1-10.5-5.5c-.381.982-1.214 1.648-2.5 2-1.556-1.047-3.223-1.714-5-2-.03-3.352-1.363-6.018-4-8z"/>
  <path style="opacity:1" fill="#2e2f2d" d="M567.5 356.5c0 .667-.333 1-1 1-3.771-3.405-3.938-7.072-.5-11 3.059-3.617 6.892-5.117 11.5-4.5 2.962 3.488 2.295 6.155-2 8-3.114.123-6.114.29-9 .5-1.552 2.435-1.219 4.435 1 6z"/>
  <path style="opacity:1" fill="white" d="M573.5 344.5c4.027-.219 4.694.948 2 3.5-2 .667-4 .667-6 0 1.593-.949 2.926-2.115 4-3.5z"/>
  <path style="opacity:1" fill="#666" d="M727.5 349.5c.597.235.93.735 1 1.5a77.62 77.62 0 0 0-6 17.5l-2 1a125.19 125.19 0 0 1 7-20z"/>
  <path style="opacity:1" fill="#e8e8e8" d="M739.5 389.5a185.129 185.129 0 0 1-12 29c-3.161 5.967-5.661 12.301-7.5 19a6389.27 6389.27 0 0 0-24.5 46c-1.627 1.964-3.627 3.297-6 4a95.554 95.554 0 0 1-7.5 17c-1.74-2.454-3.907-3.954-6.5-4.5 2.609 3.541 2.609 7.041 0 10.5a39.662 39.662 0 0 1-7-8c.283-.789.783-1.456 1.5-2 3.262 1.341 3.762 1.008 1.5-1 1.885-.697 2.218-1.697 1-3a1016.855 1016.855 0 0 0 29.5-53 223.617 223.617 0 0 0 10-28c14.648-25.944 26.481-52.944 35.5-81 1.431-.381 2.264-1.381 2.5-3 .307 3.376 2.14 4.71 5.5 4 1.577 6.132.243 11.465-4 16l1 2a32.444 32.444 0 0 0-1.5 6 710.172 710.172 0 0 1-11.5 30z"/>
  <path style="opacity:1" fill="#616161" d="M567.5 356.5h5c.801 1.542 1.134 3.208 1 5-.904-.709-1.237-1.709-1-3-2.235.295-4.235-.039-6-1 .667 0 1-.333 1-1z"/>
  <path style="opacity:1" fill="#858585" d="M441.5 304.5a78.713 78.713 0 0 1-6 14.5c.07.765.403 1.265 1 1.5a194.565 194.565 0 0 1-9.5 16c-1.345 5.688-4.011 10.688-8 15-1.698 6.122-4.698 11.455-9 16-1.852 6.489-5.019 12.155-9.5 17-1.562.233-2.895.9-4 2l45-82z"/>
  <path style="opacity:1" fill="#7a7a7a" d="M479.5 377.5a52.008 52.008 0 0 1-13.5-7c-.839-2.64-.339-4.973 1.5-7l1 1c-1.14 1.578-1.64 3.244-1.5 5 4.283 2.554 8.45 5.22 12.5 8z"/>
  <path style="opacity:1" fill="#474747" d="M771.5 355.5a308.102 308.102 0 0 1-24.5 41l-6.5 13c-.543-.06-.876-.393-1-1a126.382 126.382 0 0 1 9.5-19c8.134-10.446 14.968-21.613 20.5-33.5.531-1.718 1.198-1.885 2-.5z"/>
  <path style="opacity:1" fill="#747474" d="M510.5 371.5a6653.3 6653.3 0 0 0 11 6.5c-1.789.52-3.456.187-5-1a18.924 18.924 0 0 0-5-3c-.752-.671-1.086-1.504-1-2.5z"/>
  <path style="opacity:1" fill="#6d6d6d" d="M479.5 377.5c1.527-.073 2.527.594 3 2-1.527.073-2.527-.594-3-2z"/>
  <path style="opacity:1" fill="#fafafa" d="M483.5 381.5a63.881 63.881 0 0 0 12 6c5.141 4.123 10.808 7.456 17 10 2.508 2.424 5.508 4.09 9 5a243.799 243.799 0 0 0 31 19 568.19 568.19 0 0 0 47 30c1.951 3.655 3.284 7.655 4 12 2.897.181 5.73-.152 8.5-1a60.236 60.236 0 0 0 6.5 3.5c.003 2.976.337 6.143 1 9.5h4v4h-16v16h16v16h-16a78.192 78.192 0 0 1 2 10 83.132 83.132 0 0 0-2 18c-6.7-.33-13.366.003-20 1 1.168 1.406.835 2.572-1 3.5a29.812 29.812 0 0 0 5-.5 35.519 35.519 0 0 1-3 14c-1.342 1.505-3.008 2.172-5 2v8h-4c.166 6.342 0 12.675-.5 19-1.33 3.507-3.83 5.173-7.5 5v4h-8v8l-12 4v8h-4v16h-8a28.496 28.496 0 0 1-1 9.5c2.766 1.569 3.432 3.736 2 6.5-2.786 2.726-6.119 4.393-10 5-2.594 7.983-7.927 13.317-16 16-.886.825-1.219 1.825-1 3-4.823.713-9.156 2.38-13 5 .14 1.624-.527 2.79-2 3.5-3.317.498-6.65.665-10 .5-.518 2.86-2.184 4.86-5 6a9.108 9.108 0 0 0-1 5 193.003 193.003 0 0 0-35-4l-2-8h-14v-4h-16l-2-8h-6v-4h-4v-4h-8v-8h-4v-4c-1.831-.552-3.497-.552-5 0-1.901-1.435-2.234-3.102-1-5a10.756 10.756 0 0 1-2.5-3 96.578 96.578 0 0 0-6.5 2c-8.185 4.147-8.852 3.147-2-3-1.894-2.687-2.561-2.687-2 0-3.144 3.298-6.477 3.631-10 1l7-2a7.492 7.492 0 0 0-5-.5 81.316 81.316 0 0 0 3-2.5l-2-2a95.307 95.307 0 0 0 9-3l-2.5-1a86.137 86.137 0 0 1-12.5 3 20.69 20.69 0 0 0 1-5c-5.132-.04-10.132.46-15 1.5a11.494 11.494 0 0 1 5-3.5 43.836 43.836 0 0 1-1-2 53.968 53.968 0 0 0-9-4c3.471-2.33 7.305-3.997 11.5-5 .163-1.887-.671-3.387-2.5-4.5-7.16-2.816-14.493-3.316-22-1.5v7h-3c-.87-1.532-.536-3.032 1-4.5a9.454 9.454 0 0 1-1.5-2.5c-.388.928-1.055 1.595-2 2-7.853-2.34-14.686-6.34-20.5-12-2.49-1.583-5.157-2.583-8-3-.061-2.092-1.061-3.592-3-4.5-6.145-4.578-12.811-8.411-20-11.5l-1-1.5c2.523-1.911 2.523-3.745 0-5.5a25.879 25.879 0 0 0-10-1v-7h10c-.214-3.757.786-4.424 3-2a18.924 18.924 0 0 1 3-5l-2-2c3.05-2.017 6.383-3.017 10-3 .172-1.992-.495-3.658-2-5a22.202 22.202 0 0 0 8-5.5l-2-1 5-1a36.624 36.624 0 0 1 10-7.5 4.457 4.457 0 0 1 1.5 2 88.515 88.515 0 0 0 3.5-7c1.189-.929 2.522-1.262 4-1-.123-3.088.877-5.755 3-8 1.342 1.505 3.008 2.172 5 2-.316-3.478.184-6.812 1.5-10 6.789-5.783 12.456-12.45 17-20a128.578 128.578 0 0 1 14-13 558.148 558.148 0 0 0 9.5-15h4c.807-4.413 2.14-8.58 4-12.5-1.658-.725-2.158-1.892-1.5-3.5 1.353 1.204 3.019 1.871 5 2a18.856 18.856 0 0 0 8.5-3 7.297 7.297 0 0 1-2-3.5c.666-1.669.666-3.169 0-4.5l1-1c2.519 3.852 5.186 3.852 8 0 .929-1.189 1.262-2.522 1-4h4c.371-3.392 2.037-6.058 5-8a16.873 16.873 0 0 0 1-8h8a23.832 23.832 0 0 0-1-9 14.506 14.506 0 0 1 4-5c3.476 1.254 7.142 1.921 11 2a57.782 57.782 0 0 0 10.5-1c1.417.578 2.25 1.578 2.5 3-1.837.139-2.17.806-1 2a2351.813 2351.813 0 0 1 85 53.5 768.454 768.454 0 0 1 78 47c2.405.281 2.405-.385 0-2a806.195 806.195 0 0 0-80-48 73449.385 73449.385 0 0 1-45-29.5 12 12 0 0 1 3.5-1 8.43 8.43 0 0 0 .5-4c-3 .333-4.333-1-4-4l-8-1c-.088-5.136.245-9.97 1-14.5a4.934 4.934 0 0 0-3-.5c.417-2.843 1.417-5.51 3-8a31.147 31.147 0 0 0 2 2 1515.522 1515.522 0 0 0 45 26 28269.386 28269.386 0 0 0-30-19c-1.974-7.527-2.474-15.194-1.5-23 .986-.671 2.153-.671 3.5 0z"/>
  <path style="opacity:1" fill="#303030" d="M573.5 361.5c.134-1.792-.199-3.458-1-5 4.512-1.997 8.345-4.997 11.5-9 .87.608 1.37 1.441 1.5 2.5-.939 1.944-2.273 3.611-4 5 2.92-.689 5.92-1.523 9-2.5 1.766-.066 2.766.768 3 2.5a56.975 56.975 0 0 1-8.5 9.5c-.591.983-.257 1.65 1 2a298.91 298.91 0 0 1 14.5-7.5c2.545-.615 4.878-.115 7 1.5.928 1.268 1.095 2.601.5 4-6.812-3.199-12.312-1.532-16.5 5 5.281 1.539 9.948.372 14-3.5 1.135-.749 2.135-.583 3 .5a46.607 46.607 0 0 1-5.5 6c-1.009 1.525-1.509 3.192-1.5 5 3.016-.341 5.682-1.507 8-3.5a148.31 148.31 0 0 1 15-14c3.15-.238 4.316 1.262 3.5 4.5a57.89 57.89 0 0 0-18 13c-1.009 1.525-1.509 3.192-1.5 5a20.093 20.093 0 0 0 6-1.5c3.952-5.646 9.285-7.979 16-7 1.333 1.667 1.333 3.333 0 5a105.816 105.816 0 0 1-11.5 2.5c-1.084 7.108 1.75 8.941 8.5 5.5a96.246 96.246 0 0 0 9-7.5c1.44 2.728.774 4.895-2 6.5 2.246-.428 4.579-.928 7-1.5 2.123-.28 3.456.553 4 2.5a45.574 45.574 0 0 0-7.5 8.5c-.749 1.135-.583 2.135.5 3a55.492 55.492 0 0 0 12.5-9c.684-1.284.517-2.451-.5-3.5 3.119.796 5.785-.204 8-3 2.107-.854 3.441-.188 4 2a1951.203 1951.203 0 0 0-5 4.5c1.995 2.668 4.662 4.335 8 5l-1.5 1a104.582 104.582 0 0 0-10.5-3.5 45.255 45.255 0 0 0-8.5 7.5 8.43 8.43 0 0 0-.5 4c3.849-.449 7.349-1.783 10.5-4 2 .667 2 1.333 0 2a55.195 55.195 0 0 1-9.5 4c-1.529-.029-2.696-.696-3.5-2 .046-1.813-.12-3.479-.5-5a11.988 11.988 0 0 1-6 1c-.563-5.374 1.437-9.541 6-12.5-3.07.015-6.07.682-9 2a48.493 48.493 0 0 1-7 4.5c-1.231-1.151-1.231-2.317 0-3.5-6.304 1.184-9.304-1.316-9-7.5a20.683 20.683 0 0 1-9 .5 20.431 20.431 0 0 1-1.5-5.5c-6.393 3.701-8.56 2.034-6.5-5-2.886-.21-5.886-.377-9-.5-.88-1.356-1.214-2.856-1-4.5-6.932 2.022-8.766-.311-5.5-7 6.207-5.03 5.374-6.197-2.5-3.5a47.848 47.848 0 0 1-8 4.5z"/>
  <path style="opacity:1" fill="#d4d4d4" d="M626.5 375.5h3v3c-2.395.863-4.729.863-7 0a173.55 173.55 0 0 0 4-3z"/>
  <path style="opacity:1" fill="#363636" d="M611.5 365.5c1.585.502 2.085 1.502 1.5 3-1.039-.744-1.539-1.744-1.5-3z"/>
  <path style="opacity:1" fill="#707070" d="M558.5 401.5a27290.972 27290.972 0 0 0-35-21.5c12.78 5.264 24.446 12.431 35 21.5zM482.5 379.5c4.843 1.918 9.177 4.584 13 8a63.881 63.881 0 0 1-12-6l-1-2z"/>
  <path style="opacity:1" fill="#797979" d="M379.5 381.5c-.933 2.87-2.6 5.204-5 7 .933-2.87 2.6-5.204 5-7z"/>
  <path style="opacity:1" fill="#6e6e6e" d="M720.5 369.5a116.728 116.728 0 0 1-11 25 140.056 140.056 0 0 1 11-25z"/>
  <path style="opacity:1" fill="#747474" d="M495.5 387.5a72.111 72.111 0 0 1 17 10c-6.192-2.544-11.859-5.877-17-10z"/>
  <path style="opacity:1" fill="#707070" d="M607.5 402.5a6790.527 6790.527 0 0 1-94-55.5c8.8 3.733 17.467 8.067 26 13l58 35a79.853 79.853 0 0 1 10 7.5z"/>
  <path style="opacity:1" fill="#6c6c6c" d="M709.5 394.5a98.215 98.215 0 0 1-9 21 98.215 98.215 0 0 1 9-21z"/>
  <path style="opacity:1" fill="#bfbfbf" d="M400.5 384.5c-3.776 9.094-9.443 17.427-17 25a245.155 245.155 0 0 0 13-23c1.105-1.1 2.438-1.767 4-2z"/>
  <path style="opacity:1" fill="#6b6b6b" d="M512.5 397.5c3.492.91 6.492 2.576 9 5-3.492-.91-6.492-2.576-9-5z"/>
  <path style="opacity:1" fill="#6f6f6f" d="M558.5 401.5c1.527-.073 2.527.594 3 2-1.527.073-2.527-.594-3-2z"/>
  <path style="opacity:1" fill="#727272" d="M485.5 416.5a232.876 232.876 0 0 1-18-9.5c-.951-.718-1.117-1.551-.5-2.5a118.153 118.153 0 0 1 18.5 12z"/>
  <path style="opacity:1" fill="#5a5a5a" d="M748.5 297.5h1v2a337.663 337.663 0 0 0-7.5 30c-4.66 13.311-9.326 26.645-14 40a3002.466 3002.466 0 0 0-25 58 213.31 213.31 0 0 1-12.5 23c-.53-2.216.137-4.382 2-6.5-1.269.109-2.269-.058-3-.5a538.57 538.57 0 0 0 33-75 81.316 81.316 0 0 0 2.5-3 1259.986 1259.986 0 0 0 21-66c.708-.881 1.542-1.547 2.5-2z"/>
  <path style="opacity:1" fill="#707070" d="M607.5 402.5a46.077 46.077 0 0 1 11 6.5c-4.502-.652-8.169-2.818-11-6.5z"/>
  <path style="opacity:1" fill="#424343" d="M787.5 306.5h-6c-1.651 7.953-5.485 14.953-11.5 21-3.075 8.306-6.242 16.14-9.5 23.5a31.435 31.435 0 0 0-2 6.5c-4.74 7.429-7.74 15.429-9 24a580.32 580.32 0 0 0-12 29c-.958.453-1.792 1.119-2.5 2a84.101 84.101 0 0 1-6.5 13.5c-.983.591-1.65.257-2-1a11.068 11.068 0 0 1 2-3.5 5.576 5.576 0 0 1-1-3 185.129 185.129 0 0 0 12-29c9.858-18.223 17.192-37.556 22-58 3.541-12.614 9.541-23.948 18-34 4.401-.08 8.568-.414 12.5-1 .374.916.874 1.75 1.5 2.5l-12 1 2 1-4 2c3.053.179 6.053.679 9 1.5-.363.683-.696 1.35-1 2z"/>
  <path style="opacity:1" fill="#6e6e6e" d="M561.5 403.5a239.74 239.74 0 0 1 31 18c1.021.502 1.188 1.168.5 2a1694.641 1694.641 0 0 0-31.5-20z"/>
  <path style="opacity:1" fill="#757575" d="M457.5 429.5a116.937 116.937 0 0 1-25-14.5c-.951-.718-1.117-1.551-.5-2.5a1164.99 1164.99 0 0 0 25.5 17z"/>
  <path style="opacity:1" fill="#6f6f6f" d="M521.5 402.5c9.612 5.476 19.279 10.976 29 16.5.881.708 1.547 1.542 2 2.5a243.799 243.799 0 0 1-31-19z"/>
  <path style="opacity:1" fill="#727272" d="M466.5 397.5c.06-.543.393-.876 1-1 4.694 2.679 9.361 5.345 14 8a28269.386 28269.386 0 0 1 30 19 1515.522 1515.522 0 0 1-45-26z"/>
  <path style="opacity:1" fill="#8c8c8c" d="M396.5 386.5a245.155 245.155 0 0 1-13 23 166.797 166.797 0 0 1-9.5 14c-.133 3.025-1.133 5.692-3 8-5.067 4.232-9.567 8.899-13.5 14-.342-.838-1.008-1.172-2-1 1.029-3.391 3.029-6.057 6-8a45.728 45.728 0 0 0 7-9c9.341-13.672 18.674-27.338 28-41z"/>
  <path style="opacity:1" fill="#b8b8b8" d="M722.5 368.5a538.57 538.57 0 0 1-33 75 237.642 237.642 0 0 0-10.5 18l-.5-1a32.128 32.128 0 0 0 3-7c-.172-.992.162-1.658 1-2 7.568-11.135 13.568-23.135 18-36a98.215 98.215 0 0 0 9-21 116.728 116.728 0 0 0 11-25l2-1z"/>
  <path style="opacity:1" fill="#656565" d="M368.5 427.5a45.728 45.728 0 0 1-7 9c1.225-3.888 3.559-6.888 7-9z"/>
  <path style="opacity:1" fill="#777" d="M485.5 416.5a101.181 101.181 0 0 1 17 8.5 2367.088 2367.088 0 0 1 84 53.5l-1 1a2368.61 2368.61 0 0 0-100-63z"/>
  <path style="opacity:1" fill="#717171" d="M700.5 415.5c-4.432 12.865-10.432 24.865-18 36 1.206-4.743 3.206-9.077 6-13a376.938 376.938 0 0 0 12-23z"/>
  <path style="opacity:1" fill="#898989" d="M387.5 414.5a195.732 195.732 0 0 1-32 42 38.708 38.708 0 0 1 4.5-10l1 2a332.586 332.586 0 0 1 26.5-34z"/>
  <path style="opacity:1" fill="#747474" d="M552.5 421.5a1724.837 1724.837 0 0 1 67 40.5l6-3c-1.173 3.528-3.506 4.861-7 4a137.933 137.933 0 0 0-19-11.5 568.19 568.19 0 0 1-47-30z"/>
  <path style="opacity:1" fill="#adadad" d="M749.5 299.5c2.281 1.773 2.614 3.939 1 6.5a32.93 32.93 0 0 1 2 11.5 57.904 57.904 0 0 1-5 17c-9.019 28.056-20.852 55.056-35.5 81a223.617 223.617 0 0 1-10 28 1016.855 1016.855 0 0 1-29.5 53c1.218 1.303.885 2.303-1 3 2.262 2.008 1.762 2.341-1.5 1-.717.544-1.217 1.211-1.5 2a752.883 752.883 0 0 1-33.5 47c-5.142 11.607-11.975 21.44-20.5 29.5a19.177 19.177 0 0 1-5 2.5 4.934 4.934 0 0 1 .5-3 1438.496 1438.496 0 0 0 58-84 1367.988 1367.988 0 0 0 22.5-44 213.31 213.31 0 0 0 12.5-23 3002.466 3002.466 0 0 1 25-58c4.674-13.355 9.34-26.689 14-40a337.663 337.663 0 0 1 7.5-30z"/>
  <path style="opacity:1" fill="#737373" d="M511.5 423.5a1257.84 1257.84 0 0 1 51 31 410.969 410.969 0 0 1-51-31z"/>
  <path style="opacity:1" fill="#4d4d4d" d="M737.5 410.5c.992-.172 1.658.162 2 1a4553.97 4553.97 0 0 0-74.5 138 645.248 645.248 0 0 0-30.5 44 251.284 251.284 0 0 1 25.5-40 894.772 894.772 0 0 0 35.5-70 6389.27 6389.27 0 0 1 24.5-46c1.839-6.699 4.339-13.033 7.5-19a5.576 5.576 0 0 0 1 3 11.068 11.068 0 0 0-2 3.5c.35 1.257 1.017 1.591 2 1a84.101 84.101 0 0 0 6.5-13.5c.708-.881 1.542-1.547 2.5-2z"/>
  <path style="opacity:1" fill="#707070" d="M355.5 444.5a47.427 47.427 0 0 1-10 13 47.427 47.427 0 0 1 10-13z"/>
  <path style="opacity:1" fill="#787878" d="M562.5 454.5c7.8 3.153 14.8 7.486 21 13a112.63 112.63 0 0 1-21-13z"/>
  <path style="opacity:1" fill="#656565" d="M371.5 392.5a749.812 749.812 0 0 1-40.5 61 1256.25 1256.25 0 0 1-49.5 54c-9.357 6.177-18.023 13.344-26 21.5-15.799 12.324-33.799 18.824-54 19.5 12.806-2.537 25.473-6.037 38-10.5a179.617 179.617 0 0 0 15-10c25.053-21.385 48.553-44.552 70.5-69.5a3854.35 3854.35 0 0 0 46.5-66z"/>
  <path style="opacity:1" fill="#797979" d="M440.5 471.5a279.312 279.312 0 0 1-30-18.5c2.098.032 4.098.699 6 2a661.519 661.519 0 0 1 24 16.5z"/>
  <path style="opacity:1" fill="#b4b4b4" d="M355.5 444.5c.992-.172 1.658.162 2 1a637.827 637.827 0 0 1-61 73c-1.333 0-2-.667-2-2 4.73-3.727 8.73-8.06 12-13 13.866-12.522 25.866-26.522 36-42 .238-1.904 1.238-3.238 3-4a47.427 47.427 0 0 0 10-13z"/>
  <path style="opacity:1" fill="#747474" d="M583.5 467.5a29.576 29.576 0 0 1 11 6c-1.29.908-2.623.741-4-.5-2.766-1.371-5.099-3.204-7-5.5z"/>
  <path style="opacity:1" fill="#7b7b7b" d="M474.5 501.5a2131.214 2131.214 0 0 1-74-46c.865-1.083 1.865-1.249 3-.5a1693.31 1693.31 0 0 0 66 42 208.311 208.311 0 0 1 5 4.5z"/>
  <path style="opacity:1" fill="#646464" d="M342.5 461.5c-10.134 15.478-22.134 29.478-36 42a1068.565 1068.565 0 0 0 36-42z"/>
  <path style="opacity:1" fill="#767676" d="M440.5 471.5a138.813 138.813 0 0 1 23 15 138.813 138.813 0 0 1-23-15z"/>
  <path style="opacity:1" fill="#747474" d="M434.5 405.5a347.513 347.513 0 0 0 37 23 73449.385 73449.385 0 0 0 45 29.5 806.195 806.195 0 0 1 80 48c2.405 1.615 2.405 2.281 0 2a768.454 768.454 0 0 0-78-47 2351.813 2351.813 0 0 0-85-53.5c-1.17-1.194-.837-1.861 1-2z"/>
  <path style="opacity:1" fill="#656565" d="M689.5 443.5c.731.442 1.731.609 3 .5-1.863 2.118-2.53 4.284-2 6.5a1367.988 1367.988 0 0 1-22.5 44 1438.496 1438.496 0 0 1-58 84 4.934 4.934 0 0 0-.5 3 851.225 851.225 0 0 0-35 42c-.941-2.625-2.107-2.625-3.5 0-4.991 7.661-9.991 15.327-15 23-7.2 7.012-13.367 14.679-18.5 23l-12 13h-1c.011-1.517.677-2.684 2-3.5-.228-.399-.562-.565-1-.5a96.913 96.913 0 0 1 13.5-15 80.001 80.001 0 0 1 14-16 77.5 77.5 0 0 0 9.5-18 6132.925 6132.925 0 0 1 59.5-74 2003.146 2003.146 0 0 0 42-63 214.094 214.094 0 0 0 11-22c.667-1 .667-2 0-3a258.46 258.46 0 0 1-10 19 441.15 441.15 0 0 1-16.5 24 2412.438 2412.438 0 0 0 33-57 32.128 32.128 0 0 1-3 7l.5 1a237.642 237.642 0 0 1 10.5-18z"/>
  <path style="opacity:1" fill="#666" d="M490.5 190.5a745.003 745.003 0 0 1-39 108 54.343 54.343 0 0 0-4 9 595.274 595.274 0 0 0-15 29 1314.352 1314.352 0 0 1-41 73 22.755 22.755 0 0 0-4 5 332.586 332.586 0 0 0-26.5 34l-1-2a38.708 38.708 0 0 0-4.5 10 689.099 689.099 0 0 1-19.5 26 1173.222 1173.222 0 0 1-47.5 49c-.617-.111-1.117-.444-1.5-1-9.161 8.676-18.994 16.343-29.5 23-.992-.172-1.658.162-2 1a343.375 343.375 0 0 1-29 6.5c-3.903 2.014-3.903 3.847 0 5.5 1.436.929 2.769 2.095 4 3.5l-1 .5a322.9 322.9 0 0 0-19-11.5 68.974 68.974 0 0 0-5-6.5c3.552 1.704 6.719 4.038 9.5 7 .398-2.732 1.898-4.565 4.5-5.5a163.76 163.76 0 0 0 33-6.5c-5.928 3.969-12.595 6.136-20 6.5l7 1c-2.095.556-2.262 1.056-.5 1.5 21.119-7.16 38.952-18.994 53.5-35.5 3.308-1.889 3.642-1.389 1 1.5.502 1.021 1.168 1.188 2 .5a39.463 39.463 0 0 1 5-5.5l-.5-1c-.816 1.323-1.983 1.989-3.5 2a637.827 637.827 0 0 0 61-73c3.933-5.101 8.433-9.768 13.5-14 1.867-2.308 2.867-4.975 3-8a166.797 166.797 0 0 0 9.5-14c7.557-7.573 13.224-15.906 17-25 4.481-4.845 7.648-10.511 9.5-17 4.302-4.545 7.302-9.878 9-16 3.989-4.312 6.655-9.312 8-15a194.565 194.565 0 0 0 9.5-16 769.154 769.154 0 0 0 31.5-72c.868-2.985 1.201-5.985 1-9a598.3 598.3 0 0 0-12 32c-1.986 4.806-4.153 8.806-6.5 12 7.39-18.5 14.39-37.166 21-56 .597.235.93.735 1 1.5-1.361 2.73-1.861 5.563-1.5 8.5a213.413 213.413 0 0 0 6.5-18l-.5-2c-1.312 3.486-2.812 6.153-4.5 8a53.76 53.76 0 0 1 2-8c1.174-1.014 1.84-2.347 2-4 .722.418 1.222 1.084 1.5 2 3.975-4.554 5.809-9.888 5.5-16 2.114-1.519 3.78-3.519 5-6-.96-1.312-.794-2.646.5-4 1.107-1.212 1.607-.879 1.5 1z"/>
  <path style="opacity:1" fill="#767676" d="M546.5 505.5a78.853 78.853 0 0 1-15-7.5 1160.777 1160.777 0 0 0-78-48 406.424 406.424 0 0 0-20-13.5c38.194 21.622 75.86 44.622 113 69z"/>
  <path style="opacity:1" fill="#7c7c7c" d="m420.5 498.5-7-3.5c-.951-.718-1.117-1.551-.5-2.5 2.844 1.659 5.344 3.659 7.5 6z"/>
  <path style="opacity:1" fill="#797979" d="M463.5 486.5a616.845 616.845 0 0 0 41 23.5 2541.072 2541.072 0 0 0 56 36.5c-.502 1.021-1.168 1.188-2 .5a3588.7 3588.7 0 0 0-95-60.5z"/>
  <path style="opacity:1" fill="#7c7c7c" d="M425.5 494.5c.751-1.073 1.751-1.24 3-.5a129.073 129.073 0 0 1 13 8 170.436 170.436 0 0 1-16-7.5z"/>
  <path style="opacity:1" fill="#777" d="M457.5 429.5a5592.84 5592.84 0 0 0 72 42.5 232.617 232.617 0 0 0 39 24l25 17.5c-.502 1.021-1.168 1.188-2 .5a311.181 311.181 0 0 0-45-28 465.075 465.075 0 0 0-55-34 870.144 870.144 0 0 1-34-22.5zM422.5 439.5c.751-1.073 1.751-1.24 3-.5a5364.104 5364.104 0 0 1 118 74 369.726 369.726 0 0 1 43 27.5c-22.132-12.939-44.132-26.772-66-41.5a3057.868 3057.868 0 0 1-98-59.5z"/>
  <path style="opacity:1" fill="white" d="M668.5 502.5a39.662 39.662 0 0 0 7 8 159.61 159.61 0 0 0-7 11 3.647 3.647 0 0 0 1 1.5c-2.685 5.235-6.019 10.568-10 16l1 1a82.5 82.5 0 0 1-2.5 7.5 124.062 124.062 0 0 0-7.5 11c-.825.886-1.825 1.219-3 1 .009 1.808-.491 3.475-1.5 5-2.77 2.101-4.77 4.768-6 8a3.647 3.647 0 0 0-1.5-1 31.783 31.783 0 0 0-2.5 9 413.36 413.36 0 0 1-28.5 31 170.043 170.043 0 0 1-9 15c-3.877 2.252-5.877 5.252-6 9a535.329 535.329 0 0 1-20.5 21l-3 5c-1.507-1.035-3.007-.868-4.5.5-6.124 8.089-9.124 6.922-9-3.5l-1-2-1 1c2.586 6.48 3.252 12.813 2 19-.996.086-1.829-.248-2.5-1a32.648 32.648 0 0 1-8.5 6c-.886.825-1.219 1.825-1 3-5.485 3.968-10.651 8.634-15.5 14l-1.5 6c-9.927 8.297-21.26 13.963-34 17-3.359-1.49-7.026-1.99-11-1.5 2.787-.288 4.453-1.788 5-4.5 16.998-6.335 29.998-17.335 39-33l12-13a238.43 238.43 0 0 0 37-46 851.225 851.225 0 0 1 35-42 19.177 19.177 0 0 0 5-2.5c8.525-8.06 15.358-17.893 20.5-29.5a752.883 752.883 0 0 0 33.5-47z"/>
  <path style="opacity:1" fill="#797979" d="M420.5 498.5a556.974 556.974 0 0 1 38 24 279.165 279.165 0 0 1-38-24z"/>
  <path style="opacity:1" fill="#5e5e5e" d="M306.5 503.5c-3.27 4.94-7.27 9.273-12 13 3.27-4.94 7.27-9.273 12-13z"/>
  <path style="opacity:1" fill="#6b6b6b" d="M648.5 510.5c-2.154 6.137-5.487 11.47-10 16a125.71 125.71 0 0 1 10-16z"/>
  <path style="opacity:1" fill="#8f8f8f" d="M357.5 516.5c1.548.321 2.215 1.321 2 3-2.748.098-3.414-.902-2-3z"/>
  <path style="opacity:1" fill="#767676" d="M498.5 538.5a588.891 588.891 0 0 1-55-34.5c1.408-.315 2.741.018 4 1l16 10a17422.14 17422.14 0 0 1 35 23.5z"/>
  <path style="opacity:1" fill="#747474" d="M546.5 505.5a23.423 23.423 0 0 1 6 2.5 286.834 286.834 0 0 0 34 22c-1 .667-2 .667-3 0a476.92 476.92 0 0 1-37-24.5z"/>
  <path style="opacity:1" fill="#7b7b7b" d="M406.5 548.5c-16.169-8.634-31.336-18.301-45.5-29a457.038 457.038 0 0 1 45.5 29z"/>
  <path style="opacity:1" fill="#767676" d="M420.5 531.5a100.49 100.49 0 0 1-16-10c.502-1.021 1.168-1.188 2-.5a232.4 232.4 0 0 1 14 10.5z"/>
  <path style="opacity:1" fill="#787878" d="M474.5 501.5a1899.515 1899.515 0 0 0 42 24.5 89.832 89.832 0 0 1 15 10.5 932.41 932.41 0 0 0-36-20.5 5717.029 5717.029 0 0 1-21-14.5z"/>
  <path style="opacity:1" fill="#eaeaea" d="M281.5 507.5c-.2 2.575-1.533 4.909-4 7a25.866 25.866 0 0 0-5 3 74.099 74.099 0 0 0-8 8.5c-4.458 1.291-7.458 4.125-9 8.5a26.585 26.585 0 0 1-3.5 2c-.396 2.46-1.563 4.46-3.5 6 .346 1.196.846 1.196 1.5 0 .483.948.649 1.948.5 3h3l-1 2a163.76 163.76 0 0 1-33 6.5c-2.602.935-4.102 2.768-4.5 5.5-2.781-2.962-5.948-5.296-9.5-7-1.027-1.694-2.361-3.027-4-4 20.201-.676 38.201-7.176 54-19.5 7.977-8.156 16.643-15.323 26-21.5z"/>
  <path style="opacity:1" fill="#717171" d="M531.5 536.5a73.609 73.609 0 0 1 10 5.5c-4.017-.51-7.35-2.343-10-5.5z"/>
  <path style="opacity:1" fill="#767676" d="M498.5 538.5c3.731.57 5.897 2.57 6.5 6a53.864 53.864 0 0 0-6.5-6z"/>
  <path style="opacity:1" fill="#797979" d="M420.5 531.5a221.145 221.145 0 0 1 29 19 221.145 221.145 0 0 1-29-19z"/>
  <path style="opacity:1" fill="#828282" d="M543.5 544.5c.397-1.025 1.063-1.192 2-.5 1.755.72 2.589 1.887 2.5 3.5a30.786 30.786 0 0 1-4.5-3z"/>
  <path style="opacity:1" fill="#6c6c6c" d="M638.5 526.5a428.508 428.508 0 0 1-24.5 36 4429.805 4429.805 0 0 1-48.5 60 119.493 119.493 0 0 1 11.5-17 798.462 798.462 0 0 0 58-76 14.698 14.698 0 0 1 3.5-3z"/>
  <path style="opacity:1" fill="#828282" d="M294.5 516.5c0 1.333.667 2 2 2 1.517-.011 2.684-.677 3.5-2l.5 1a39.463 39.463 0 0 0-5 5.5c-.832.688-1.498.521-2-.5 2.642-2.889 2.308-3.389-1-1.5-14.548 16.506-32.381 28.34-53.5 35.5-1.762-.444-1.595-.944.5-1.5l-7-1c7.405-.364 14.072-2.531 20-6.5l1-2a155.446 155.446 0 0 0 14-7.5c9.163-7 18.163-14.167 27-21.5z"/>
  <path style="opacity:1" fill="#a8a8a8" d="M288.5 531.5c-8.661 9.657-18.994 16.99-31 22 10.506-6.657 20.339-14.324 29.5-23 .383.556.883.889 1.5 1z"/>
  <path style="opacity:1" fill="#787878" d="M406.5 548.5c4.005.998 7.339 2.998 10 6a37.79 37.79 0 0 1-10-6z"/>
  <path style="opacity:1" fill="#767676" d="M449.5 550.5a320.204 320.204 0 0 1 36 20.5c-2.098-.032-4.098-.699-6-2a716.544 716.544 0 0 0-30-18.5z"/>
  <path style="opacity:1" fill="#7a7a7a" d="M458.5 522.5a66.78 66.78 0 0 1 10 4.5 1235.583 1235.583 0 0 0 71 45c-1 .667-2 .667-3 0a2075.253 2075.253 0 0 1-78-49.5z"/>
  <path style="opacity:1" fill="#828282" d="M352.5 562.5a246.847 246.847 0 0 1-18-10.5c2.517-.257 4.85.41 7 2 4.097 2.37 7.764 5.203 11 8.5z"/>
  <path style="opacity:1" fill="#bbb" d="M219.5 555.5c6.391-.215 6.558.785.5 3-.311 4.559-1.145 4.892-2.5 1 .252-1.573.918-2.906 2-4z"/>
  <path style="opacity:1" fill="#7f7f7f" d="M416.5 554.5a98.385 98.385 0 0 1 16 10c-6.014-2.335-11.348-5.669-16-10z"/>
  <path style="opacity:1" fill="#c7c7c7" d="M562.5 629.5v-2c.25-2.174 1.25-3.841 3-5a4429.805 4429.805 0 0 0 48.5-60 428.508 428.508 0 0 0 24.5-36c4.513-4.53 7.846-9.863 10-16a441.15 441.15 0 0 0 16.5-24 258.46 258.46 0 0 0 10-19c.667 1 .667 2 0 3a214.094 214.094 0 0 1-11 22 2003.146 2003.146 0 0 1-42 63 6132.925 6132.925 0 0 0-59.5 74z"/>
  <path style="opacity:1" fill="#a6a6a6" d="M255.5 554.5c-.111.617-.444 1.117-1 1.5a282.925 282.925 0 0 0-25 8c-1.442.377-2.442 1.21-3 2.5-3.903-1.653-3.903-3.486 0-5.5a343.375 343.375 0 0 0 29-6.5z"/>
  <path style="opacity:1" fill="#7b7b7b" d="M406.5 575.5a1962.769 1962.769 0 0 1-50-30.5c-1.755-.72-2.589-1.887-2.5-3.5a949.301 949.301 0 0 1 52.5 34z"/>
  <path style="opacity:1" fill="#797979" d="M432.5 564.5a138.813 138.813 0 0 1 23 15 4.934 4.934 0 0 1-3-.5 468.675 468.675 0 0 1-20-14.5z"/>
  <path style="opacity:1" fill="#dbdbdb" d="M184.5 558.5c.229 2.837.396 5.837.5 9 .414.457.914.791 1.5 1 1.991-.927 3.991-1.094 6-.5 1.939-.908 2.939-2.408 3-4.5-1.603.188-2.937-.312-4-1.5a15.91 15.91 0 0 0 4.5-2.5 24.304 24.304 0 0 0 7.5 5c7.579 1.891 14.246 5.558 20 11a9.86 9.86 0 0 1 1 6 8.43 8.43 0 0 1-4-.5 170.939 170.939 0 0 0-13-11 25.238 25.238 0 0 0-10 0 3.647 3.647 0 0 0-1 1.5c1.107 3.441 3.44 5.441 7 6 7.548 8.788 16.882 15.122 28 19a18.453 18.453 0 0 1-6-.5 238.538 238.538 0 0 1-29-15 21.53 21.53 0 0 0-5-6c-6.367-1.852-9.367-6.018-9-12.5.16-1.653.826-2.986 2-4z"/>
  <path style="opacity:1" fill="#7a7a7a" d="M394.5 598.5a1046.43 1046.43 0 0 1-73-46.5c1-.667 2-.667 3 0a588.29 588.29 0 0 1 34 23c12.919 6.613 24.919 14.446 36 23.5z"/>
  <path style="opacity:1" fill="#7b7b7b" d="M406.5 575.5a484.23 484.23 0 0 1 25 16c-9.19-4.089-17.523-9.422-25-16z"/>
  <path style="opacity:1" fill="#dcdcdc" d="M695.5 483.5a894.772 894.772 0 0 1-35.5 70 251.284 251.284 0 0 0-25.5 40 821.862 821.862 0 0 0-32 36c-.923-.803-1.923-.97-3-.5-1.897 2.734-4.23 4.9-7 6.5.123-3.748 2.123-6.748 6-9 3.254-4.84 6.254-9.84 9-15a413.36 413.36 0 0 0 28.5-31 31.783 31.783 0 0 1 2.5-9 3.647 3.647 0 0 1 1.5 1c1.23-3.232 3.23-5.899 6-8 1.009-1.525 1.509-3.192 1.5-5 1.175.219 2.175-.114 3-1a124.062 124.062 0 0 1 7.5-11 82.5 82.5 0 0 0 2.5-7.5l-1-1c3.981-5.432 7.315-10.765 10-16a3.647 3.647 0 0 1-1-1.5 159.61 159.61 0 0 1 7-11c2.609-3.459 2.609-6.959 0-10.5 2.593.546 4.76 2.046 6.5 4.5a95.554 95.554 0 0 0 7.5-17c2.373-.703 4.373-2.036 6-4z"/>
  <path style="opacity:1" fill="#7c7c7c" d="M352.5 562.5a363.129 363.129 0 0 1 22 12.5 30732.99 30732.99 0 0 1 47 31.5 1175.509 1175.509 0 0 1-69-44z"/>
  <path style="opacity:1" fill="#787878" d="M257.5 586.5a142.311 142.311 0 0 1-24-13.5c2.775.374 5.442 1.374 8 3a310.804 310.804 0 0 1 16 10.5z"/>
  <path style="opacity:1" fill="#d7d7d7" d="M757.5 624.5a346.06 346.06 0 0 0 21 14c4.959 6.285 11.293 10.618 19 13a18.473 18.473 0 0 0 2 3.5c-1.016.519-1.682 1.353-2 2.5 1.748 4.493 2.415 9.16 2 14h16v32h4v16h12v48h4v15c-5.141.925-9.808 2.592-14 5a179.71 179.71 0 0 1-31 5c-.709-.904-1.709-1.237-3-1v-32h-4v-24h-8v-16h-6c-2.499-5.012-3.832-10.345-4-16h-6v-8h-8v-8h-8v-8h-4v-8h-4v-4h-12v-8h-4v-12h-8v-8h-8v-4h-8v-8h-8v-4a38.469 38.469 0 0 1-12-2v-6h-4v-8h-8c-.214-1.644.12-3.144 1-4.5a45.296 45.296 0 0 1 7 .5c.05-3.296-1.283-4.629-4-4a5.727 5.727 0 0 1 1-3 85.207 85.207 0 0 1 15-11.5 32.462 32.462 0 0 1 8-.5c-.219 1.175.114 2.175 1 3 11.69 5.505 22.69 12.005 33 19.5 6.667 1.748 12.5 4.915 17.5 9.5a175.673 175.673 0 0 0 14.5 8z"/>
  <path style="opacity:1" fill="#797979" d="M257.5 586.5a393.106 393.106 0 0 1 24 11.5c2.766 1.371 5.099 3.204 7 5.5a444.079 444.079 0 0 1-31-17z"/>
  <path style="opacity:1" fill="#595959" d="M201.5 548.5c1.639.973 2.973 2.306 4 4a42.302 42.302 0 0 1-8-3.5c-7.233-.947-11.567 2.22-13 9.5-1.174 1.014-1.84 2.347-2 4-1.283 3.8-2.283 7.8-3 12a10.413 10.413 0 0 0 1.5 5 1745.605 1745.605 0 0 1 34.5 25 461.417 461.417 0 0 1-34-22c-1.797-1.631-2.964-3.631-3.5-6 .363-10.894 4.197-20.394 11.5-28.5a28.214 28.214 0 0 1 12 .5z"/>
  <path style="opacity:1" fill="#646464" d="M375.5 593.5c-1.256.039-2.256-.461-3-1.5 1.498-.585 2.498-.085 3 1.5z"/>
  <path style="opacity:1" fill="gray" d="M455.5 579.5a573.017 573.017 0 0 1 48 31 41.002 41.002 0 0 1-8-3.5 1223.641 1223.641 0 0 1-40-27.5z"/>
  <path style="opacity:1" fill="#6f6f6f" d="M375.5 593.5a60.02 60.02 0 0 1 15 10c-5.869-2.096-10.869-5.429-15-10z"/>
  <path style="opacity:1" fill="#d1d1d1" d="M790.5 792.5a70.247 70.247 0 0 1-7 3 696.632 696.632 0 0 0-24 3.5c-4.922 2.752-10.256 3.919-16 3.5 2.407-.588 4.74-1.588 7-3a681.171 681.171 0 0 1 3-39 72.905 72.905 0 0 0-2-11h-8v-14h-6v-12h-4l-2-8h-8v-12h-4v-8h-8v-12h-8v-8h-8v-8h-8v-8h-4v-4h-8v-8h-4v-4a109.595 109.595 0 0 1-18-8v-8a41.333 41.333 0 0 1-10-2v-4c-1.992.172-3.658-.495-5-2a15.967 15.967 0 0 1-.5-7c-4.431.405-8.931 1.405-13.5 3 1.074-1.385 2.407-2.551 4-3.5 6.968.063 13.301-1.77 19-5.5a202.691 202.691 0 0 0 20-7c2.717-.629 4.05.704 4 4a45.296 45.296 0 0 0-7-.5c-.88 1.356-1.214 2.856-1 4.5h8v8h4v6a38.469 38.469 0 0 0 12 2v4h8v8h8v4h8v8h8v12h4v8h12v4h4v8h4v8h8v8h8v8h6c.168 5.655 1.501 10.988 4 16h6v16h8v24h4v32c1.291-.237 2.291.096 3 1z"/>
  <path style="opacity:1" fill="#616161" d="M288.5 603.5c3.52.853 6.187 2.853 8 6a27.68 27.68 0 0 1-8-6z"/>
  <path style="opacity:1" fill="#6f6f6f" d="m390.5 603.5 11 5.5c.881.708 1.547 1.542 2 2.5-4.843-1.918-9.177-4.584-13-8z"/>
  <path style="opacity:1" fill="#454545" d="M340.5 618.5c-1-.333-1.667-1-2-2a133.191 133.191 0 0 1 12-4.5c-3.281-2.874-7.114-4.041-11.5-3.5-3.523.207-7.023.54-10.5 1 .905 4.149 3.572 6.482 8 7 0 .667-.333 1-1 1l-8-3v-7c7.507-1.816 14.84-1.316 22 1.5 1.829 1.113 2.663 2.613 2.5 4.5-4.195 1.003-8.029 2.67-11.5 5z"/>
  <path style="opacity:1" fill="#f2f2f2" d="M338.5 616.5h-2c-4.428-.518-7.095-2.851-8-7a144.78 144.78 0 0 1 10.5-1c4.386-.541 8.219.626 11.5 3.5a133.191 133.191 0 0 0-12 4.5z"/>
  <path style="opacity:1" fill="#787878" d="M296.5 609.5c2.589.919 4.589 2.586 6 5-2.589-.919-4.589-2.586-6-5zM403.5 611.5c2.872.135 4.372 1.469 4.5 4-1.992-.828-3.492-2.161-4.5-4zM503.5 610.5h3c-.499 5.138-1.499 5.138-3 0z"/>
  <path style="opacity:1" fill="#eee" d="M330.5 641.5c-3.01 2.68-5.01 6.013-6 10 .368 1.675 1.368 2.675 3 3v3c-5.09-1.59-10.09-3.59-15-6a124.951 124.951 0 0 1-16-16.5 121.28 121.28 0 0 1-12-8 35.61 35.61 0 0 0-3-6l-12-1a177.828 177.828 0 0 0-9-5.5c-.528-1.836-1.194-3.503-2-5v-2c.622-3.276 2.622-4.609 6-4a18.453 18.453 0 0 0 .5 6l1-2a29.517 29.517 0 0 0 2.5 4.5c1.049.492 2.049.326 3-.5a844.216 844.216 0 0 1 34 19.5c2.908 2.403 5.241 5.237 7 8.5a98.592 98.592 0 0 0 8.5 4 294.278 294.278 0 0 1 9.5-2z"/>
  <path style="opacity:1" fill="#cbcbcb" d="M743.5 802.5c-6.601 2.889-13.601 4.722-21 5.5-4.677 2.218-9.677 3.384-15 3.5v-60h-4v-16h-4v-12h-8a107.552 107.552 0 0 0-4-20h-4v-8h-8v-8h-4v-4h-4v-8h-8v-4h-4v-4h-8v-8h-4v-4h-4v-4h-8v-4h-8v-6h-4v-4a51.78 51.78 0 0 1-12.5-5c-1.107 1.212-1.607.879-1.5-1a50.433 50.433 0 0 1 7.5-11 38.47 38.47 0 0 1 5.5-5c1.889 1.242 3.889 1.242 6 0 4.569-1.595 9.069-2.595 13.5-3a15.967 15.967 0 0 0 .5 7c1.342 1.505 3.008 2.172 5 2v4a41.333 41.333 0 0 0 10 2v8a109.595 109.595 0 0 0 18 8v4h4v8h8v4h4v8h8v8h8v8h8v12h8v8h4v12h8l2 8h4v12h6v14h8a72.905 72.905 0 0 1 2 11 681.171 681.171 0 0 0-3 39c-2.26 1.412-4.593 2.412-7 3z"/>
  <path style="opacity:1" fill="#787878" d="M431.5 591.5a42.494 42.494 0 0 1 11 5.5 1213.562 1213.562 0 0 0 39 26c-3.123-.721-6.123-2.054-9-4a23937.717 23937.717 0 0 1-41-27.5z"/>
  <path style="opacity:1" fill="#f5f5f5" d="m327.5 614.5 8 3 3 2c-3.94 2.703-8.273 3.536-13 2.5a6.293 6.293 0 0 1-1-3c.508-1.893 1.508-3.393 3-4.5z"/>
  <path style="opacity:1" fill="#ececec" d="M757.5 624.5a175.673 175.673 0 0 1-14.5-8c-5-4.585-10.833-7.752-17.5-9.5-10.31-7.495-21.31-13.995-33-19.5-.886-.825-1.219-1.825-1-3a32.462 32.462 0 0 0-8 .5 85.207 85.207 0 0 0-15 11.5 4.934 4.934 0 0 1 .5-3 45.255 45.255 0 0 0 7.5-8.5c4.646-2.796 9.646-3.796 15-3a381.02 381.02 0 0 0 39 23 103.105 103.105 0 0 0 21 13c2.256 2.083 4.256 4.25 6 6.5z"/>
  <path style="opacity:1" fill="#7d7d7d" d="M421.5 606.5a2536.264 2536.264 0 0 1 54 33.5c-1 .667-2 .667-3 0a169.27 169.27 0 0 0-15-9 342.342 342.342 0 0 1-36-24.5z"/>
  <path style="opacity:1" fill="#a9a9a9" d="M302.5 614.5a73.38 73.38 0 0 1 12 8c-2.89.222-5.557-.445-8-2a18.633 18.633 0 0 0-4-6z"/>
  <path style="opacity:1" fill="#4d4d4d" d="M324.5 614.5h3c-1.492 1.107-2.492 2.607-3 4.5a6.293 6.293 0 0 0 1 3c4.727 1.036 9.06.203 13-2.5 1.006.438 1.006 1.104 0 2-3.988 2.547-8.321 3.38-13 2.5-3.544-2.873-3.877-6.04-1-9.5z"/>
  <path style="opacity:1" fill="#828282" d="M336.5 616.5h2c.333 1 1 1.667 2 2a53.968 53.968 0 0 1 9 4l-2 1h-1c-1.356-2.038-3.023-2.372-5-1-.709-.904-1.709-1.237-3-1 1.006-.896 1.006-1.562 0-2l-3-2c.667 0 1-.333 1-1z"/>
  <path style="opacity:1" fill="#c5c5c5" d="M257.5 611.5c.544 4.972 3.21 7.806 8 8.5 3.832 2.75 7.832 5.25 12 7.5.847-1.561.514-3.061-1-4.5l1.5-1.5c.781 5.193 2.614 9.859 5.5 14 2.726-.236 5.059.597 7 2.5a59.101 59.101 0 0 0 11 10.5c-.704 1.844-2.037 2.344-4 1.5-4.726-5.973-10.393-10.806-17-14.5-.886-.825-1.219-1.825-1-3-7.456-2.433-14.123-6.266-20-11.5-2.887-2.848-3.554-6.015-2-9.5z"/>
  <path style="opacity:1" fill="#252525" d="M346.5 623.5c-3.154.159-5.654 1.493-7.5 4-.747-2.428.086-4.094 2.5-5 1.977-1.372 3.644-1.038 5 1z"/>
  <path style="opacity:1" fill="#525252" d="M215.5 604.5a42.302 42.302 0 0 1 8 3.5 492.762 492.762 0 0 0 31 22 158.263 158.263 0 0 1 21 11.5c-7.009-3.172-14.009-6.338-21-9.5a608.463 608.463 0 0 1-39-27.5z"/>
  <path style="opacity:1" fill="#4a4a4a" d="M349.5 622.5c.304.65.637 1.317 1 2a11.494 11.494 0 0 0-5 3.5c4.868-1.04 9.868-1.54 15-1.5a20.69 20.69 0 0 1-1 5c-2.452.124-4.452 1.124-6 3l-2-1 6-4c1.021-.502 1.188-1.168.5-2a33.016 33.016 0 0 0-9 6c-.684-1.284-.517-2.451.5-3.5-1.399-.595-2.732-.428-4 .5-1-.333-1.667-1-2-2 1.357-1.686 2.69-3.352 4-5l2-1z"/>
  <path style="opacity:1" fill="#e3e3e3" d="M332.5 640.5c-.342.838-1.008 1.172-2 1a294.278 294.278 0 0 0-9.5 2 98.592 98.592 0 0 1-8.5-4c-1.759-3.263-4.092-6.097-7-8.5a844.216 844.216 0 0 0-34-19.5c-.951.826-1.951.992-3 .5a29.517 29.517 0 0 1-2.5-4.5l-1 2a18.453 18.453 0 0 1-.5-6c-3.378-.609-5.378.724-6 4a428.45 428.45 0 0 0-5.5 5c-2.041-.923-4.208-1.256-6.5-1-.117-1.984.55-3.65 2-5-5.171-4.351-10.838-7.684-17-10a306.357 306.357 0 0 1 20.5 5c.684-1.284.517-2.451-.5-3.5a205.993 205.993 0 0 1-17-9c-3.1-1.591-4.767-4.091-5-7.5a24.362 24.362 0 0 1 10 1.5 137.896 137.896 0 0 1 13 9 26.585 26.585 0 0 0 2 3.5c11.816 5.072 22.482 11.906 32 20.5a76.665 76.665 0 0 1 16 9c4.612 5.275 10.278 8.942 17 11 3.73 3.937 8.063 5.437 13 4.5z"/>
  <path style="opacity:1" fill="#c4c4c4" d="M605.5 631.5c-.107 1.879.393 2.212 1.5 1a51.78 51.78 0 0 0 12.5 5v4h4v6h8v4h8v4h4v4h4v8h8v4h4v4h8v8h4v4h4v8h8v8h4a107.552 107.552 0 0 1 4 20h8v12h4v16h4v60a145.923 145.923 0 0 1-16 6.5c-7.079.643-13.746 2.477-20 5.5 1.98-1.605 4.313-2.772 7-3.5-2.986.128-5.986.128-9 0 1.938-6.548 2.605-13.382 2-20.5h4v-16h8v-32h-8v-16h-4v-12h-4v-4h-4v-12h-4l-2-8h-4v-8h-6v-4h-4v-4h-4v-8h-4v-4h-8v-4h-4v-4h-4v-4h-8v-4c-7.689.328-13.356-2.672-17-9a121.644 121.644 0 0 1 11-15z"/>
  <path style="opacity:1" fill="#a9a9a9" d="M182.5 562.5c-.367 6.482 2.633 10.648 9 12.5a21.53 21.53 0 0 1 5 6 238.538 238.538 0 0 0 29 15c1.973.495 3.973.662 6 .5 6.162 2.316 11.829 5.649 17 10-1.45 1.35-2.117 3.016-2 5 2.292-.256 4.459.077 6.5 1a428.45 428.45 0 0 1 5.5-5v2c-.838.342-1.172 1.008-1 2-1.554 3.485-.887 6.652 2 9.5 5.877 5.234 12.544 9.067 20 11.5-.219 1.175.114 2.175 1 3 6.607 3.694 12.274 8.527 17 14.5 1.963.844 3.296.344 4-1.5a10.134 10.134 0 0 1 1.5-4c.498 2.982.665 5.982.5 9a8.43 8.43 0 0 1 4 .5c3.951 3.641 8.617 5.641 14 6a104.634 104.634 0 0 0 18 10.5c.798-.457 1.131-1.124 1-2 4.531 3.132 8.531 6.965 12 11.5 11.334 2.981 20.334 9.314 27 19-.951.718-1.117 1.551-.5 2.5l4 4c1.113-1.211 2.28-1.211 3.5 0 1.205-1.077 1.872-2.41 2-4a147.318 147.318 0 0 0 2.5 8 35.3 35.3 0 0 1 8.5 3.5l23 23a54.628 54.628 0 0 1 7 2c4.94 4.996 10.94 6.829 18 5.5-.116 3.41 1.55 4.744 5 4 2.772-5.176 4.606-10.51 5.5-16l1 3c1.802-1.289 2.969-2.956 3.5-5h3a84.475 84.475 0 0 0-11.5 18c-.941 6.332-.441 12.499 1.5 18.5a2.428 2.428 0 0 1-2 .5 24.187 24.187 0 0 0-9-7 1459.079 1459.079 0 0 0-61-41.5c-5.455-6.461-11.788-11.794-19-16a267.741 267.741 0 0 0-15-16 82.68 82.68 0 0 0-19-9c-8.013-6.011-16.68-11.011-26-15a281.296 281.296 0 0 0-18-12.5c-2.772-3.887-6.439-6.554-11-8a158.263 158.263 0 0 0-21-11.5 492.762 492.762 0 0 1-31-22 42.302 42.302 0 0 0-8-3.5 1745.605 1745.605 0 0 0-34.5-25 10.413 10.413 0 0 1-1.5-5c.717-4.2 1.717-8.2 3-12z"/>
  <path style="opacity:1" fill="#3c3c3c" d="M365.5 632.5c-3.816.654-6.649 2.654-8.5 6a4.457 4.457 0 0 1-1.5-2c1.357-1.686 2.69-3.352 4-5a86.137 86.137 0 0 0 12.5-3l2.5 1a95.307 95.307 0 0 1-9 3z"/>
  <path style="opacity:1" fill="#777" d="M394.5 598.5a1708.356 1708.356 0 0 1 84 53c-.502 1.021-1.168 1.188-2 .5a5996.191 5996.191 0 0 0-82-53.5z"/>
  <path style="opacity:1" fill="#888" d="M574.5 623.5a238.43 238.43 0 0 1-37 46c5.133-8.321 11.3-15.988 18.5-23 5.009-7.673 10.009-15.339 15-23 1.393-2.625 2.559-2.625 3.5 0z"/>
  <path style="opacity:1" fill="#3d3d3d" d="M367.5 634.5a81.316 81.316 0 0 1-3 2.5 7.492 7.492 0 0 1 5 .5l-7 2c3.523 2.631 6.856 2.298 10-1-.561-2.687.106-2.687 2 0-6.852 6.147-6.185 7.147 2 3 2.687-.159 5.02.675 7 2.5-2.496 1.331-4.496 3.164-6 5.5v1c-1.725-.343-2.225-1.343-1.5-3l4.5-4.5c-3.582.251-6.916 1.417-10 3.5a56.12 56.12 0 0 0-11-7.5c2.345-2.202 5.011-3.702 8-4.5z"/>
  <path style="opacity:1" fill="#595959" d="M275.5 641.5c4.561 1.446 8.228 4.113 11 8a32.728 32.728 0 0 1-11-8z"/>
  <path style="opacity:1" fill="#cacaca" d="M602.5 629.5c-14 17.333-29.667 33-47 47 1.252-6.187.586-12.52-2-19l1-1 1 2c-.124 10.422 2.876 11.589 9 3.5 1.493-1.368 2.993-1.535 4.5-.5l3-5a535.329 535.329 0 0 0 20.5-21c2.77-1.6 5.103-3.766 7-6.5 1.077-.47 2.077-.303 3 .5z"/>
  <path style="opacity:1" fill="#bebebe" d="M594.5 646.5c3.644 6.328 9.311 9.328 17 9v4h8v4h4v4h4v4h8v4h4v8h4v4h4v4h6v8h4l2 8h4v12h4v4h4v12h4v16h8v32h-8v16h-4c.605 7.118-.062 13.952-2 20.5 3.014.128 6.014.128 9 0-2.687.728-5.02 1.895-7 3.5-5.037 2.6-10.371 4.6-16 6a579.476 579.476 0 0 0-36 13v-11h8v-4h8v-8h8v-20h4v-16h8v-32h-8v-32h-4v-12h-8v-8h-8v-8h-8v-4h-8v-4h-4v-8h-4v-4h-8v-4h-4c-.254-2.514-1.087-4.848-2.5-7a4.934 4.934 0 0 0-.5 3 8.43 8.43 0 0 1-4-.5c2.821-1.621 3.487-3.788 2-6.5a58.524 58.524 0 0 1 8-10z"/>
  <path style="opacity:1" fill="#e1e1e1" d="m360.5 652.5 2 3c-2.578-.754-5.244-.754-8 0 .541-3.152-.459-5.652-3-7.5-3.399-1.39-6.733-1.89-10-1.5a14.72 14.72 0 0 1 5-1.5c-5.639-1.755-9.973-.255-13 4.5a25.936 25.936 0 0 0 4 4.5c-11.994-.341-12.994-4.341-3-12 2.577-1.25 5.243-1.584 8-1a242.104 242.104 0 0 1 18 11.5z"/>
  <path style="opacity:1" fill="#828282" d="M377.5 649.5c2.357-.163 4.69.003 7 .5-2.395 1.598-4.728 1.764-7 .5v-1z"/>
  <path style="opacity:1" fill="#666" d="M314.5 622.5a269.588 269.588 0 0 1 42 25.5 25.14 25.14 0 0 1 4 4.5 242.104 242.104 0 0 0-18-11.5c-2.757-.584-5.423-.25-8 1-9.994 7.659-8.994 11.659 3 12a25.936 25.936 0 0 1-4-4.5c3.027-4.755 7.361-6.255 13-4.5a14.72 14.72 0 0 0-5 1.5c3.267-.39 6.601.11 10 1.5 2.541 1.848 3.541 4.348 3 7.5-2.161.326-3.994 1.326-5.5 3-1.356-.88-2.856-1.214-4.5-1 .067 1.459-.266 2.792-1 4h-1c-.086-.996.248-1.829 1-2.5-1.167-.5-2-1.333-2.5-2.5a6.293 6.293 0 0 1-3 1 93.721 93.721 0 0 0-10.5-3c-1.632-.325-2.632-1.325-3-3 .99-3.987 2.99-7.32 6-10 .992.172 1.658-.162 2-1 2.301-.56 4.634-1.06 7-1.5l-2-2a180.02 180.02 0 0 1-23-14.5z"/>
  <path style="opacity:1" fill="white" d="M337.5 646.5c1.288 1.535 1.288 3.201 0 5a11.38 11.38 0 0 1-2-2.5c.881-.708 1.547-1.542 2-2.5z"/>
  <path style="opacity:1" fill="#dcdcdc" d="M797.5 651.5c4.89 2.724 9.89 5.224 15 7.5 6.717.204 13.383.704 20 1.5a163.057 163.057 0 0 1 11.5 10l1 9c8.962 10.076 19.796 17.576 32.5 22.5l2 3a168.789 168.789 0 0 0 13 8.5c2.3 3.772 5.633 6.106 10 7a177.15 177.15 0 0 1 14 10.5 243.189 243.189 0 0 1 39 26c-4.052 3.186-8.719 4.853-14 5l1 1a19.24 19.24 0 0 1-9 3l2 1c-2.677.249-5.01 1.249-7 3a1441.31 1441.31 0 0 1-64 14 587.027 587.027 0 0 1-43 3.5c4.192-2.408 8.859-4.075 14-5v-15h-4v-48h-12v-16h-4v-32h-16c.415-4.84-.252-9.507-2-14 .318-1.147.984-1.981 2-2.5a18.473 18.473 0 0 1-2-3.5z"/>
  <path style="opacity:1" fill="#dbdbdb" d="M258.5 609.5c.806 1.497 1.472 3.164 2 5a177.828 177.828 0 0 1 9 5.5l12 1a35.61 35.61 0 0 1 3 6c3.8 2.877 7.8 5.544 12 8a124.951 124.951 0 0 0 16 16.5c4.91 2.41 9.91 4.41 15 6v-3a93.721 93.721 0 0 1 10.5 3 6.293 6.293 0 0 0 3-1c.5 1.167 1.333 2 2.5 2.5-.752.671-1.086 1.504-1 2.5-1.663 1.938-2.329 4.272-2 7 .131.876-.202 1.543-1 2a104.634 104.634 0 0 1-18-10.5c-5.383-.359-10.049-2.359-14-6a8.43 8.43 0 0 0-4-.5 40.914 40.914 0 0 0-.5-9 10.134 10.134 0 0 0-1.5 4 59.101 59.101 0 0 1-11-10.5c-1.941-1.903-4.274-2.736-7-2.5-2.886-4.141-4.719-8.807-5.5-14l-1.5 1.5c1.514 1.439 1.847 2.939 1 4.5a110.979 110.979 0 0 1-12-7.5c-4.79-.694-7.456-3.528-8-8.5-.172-.992.162-1.658 1-2z"/>
  <path style="opacity:1" fill="#f7f7f7" d="M362.5 655.5a233.2 233.2 0 0 1 24 16c2.424 3.752 5.757 6.419 10 8a100.08 100.08 0 0 0 11 13c4.565 2.109 8.565 4.942 12 8.5a12.93 12.93 0 0 0 5 .5 221.506 221.506 0 0 0 31 18c1.618 1.816 3.618 3.149 6 4 2.88 1.07 3.38 2.736 1.5 5a118.042 118.042 0 0 1-21.5-9.5c-5.695.766-10.029-1.234-13-6a45.972 45.972 0 0 1-12-7.5 45.055 45.055 0 0 0-10-9.5 10100.372 10100.372 0 0 0-24-16 146.758 146.758 0 0 0-15-14 94.093 94.093 0 0 0-14-9c.556-.383.889-.883 1-1.5 2.756-.754 5.422-.754 8 0z"/>
  <path style="opacity:1" fill="#b9b9b9" d="M586.5 656.5c1.487 2.712.821 4.879-2 6.5a8.43 8.43 0 0 0 4 .5 4.934 4.934 0 0 1 .5-3c1.413 2.152 2.246 4.486 2.5 7h4v4h8v4h4v8h4v4h8v4h8v8h8v8h8v12h4v32h8v32h-8v16h-4v20h-8v8h-8v4h-8v11a579.73 579.73 0 0 0-43 17.5 54.124 54.124 0 0 1-16 8.5c-.798.457-1.131 1.124-1 2a5.727 5.727 0 0 0-3 1 441.082 441.082 0 0 0-25 13c-.069 2.584-1.235 4.584-3.5 6a43.073 43.073 0 0 0-2 9c-2.737 1.11-5.571 1.277-8.5.5a489.713 489.713 0 0 1-25-17c-4.835-2.15-9.168-5.15-13-9-3.995-.834-6.995-3.001-9-6.5-7.399-3.693-14.066-8.359-20-14 .934-1.068 1.268-2.401 1-4a765.821 765.821 0 0 0 76 2v-4h8v-4c3.857.538 7.191-.462 10-3a49.87 49.87 0 0 1 14-1v-4h8v-4h16v-8h8v-4h4v-8h8v-8h8v-18l8-2v-56h-8v-8h-4v-4h-4v-12h-8v-4h-4v-4h-4v-4h-4a29.753 29.753 0 0 0-2-7 9.108 9.108 0 0 1-5-1c-3.163-3.17-3.496-6.503-1-10a43.836 43.836 0 0 1-1-2 45.59 45.59 0 0 0 7-9 16.635 16.635 0 0 1 5-6z"/>
  <path style="opacity:1" fill="#747474" d="M360.5 652.5c6.945 4.144 13.945 8.311 21 12.5 4.097 2.37 7.764 5.203 11 8.5l-6-2a233.2 233.2 0 0 0-24-16l-2-3z"/>
  <path style="opacity:1" fill="#b1b1b1" d="M574.5 671.5c.304.65.637 1.317 1 2-2.496 3.497-2.163 6.83 1 10a9.108 9.108 0 0 0 5 1 29.753 29.753 0 0 1 2 7h4v4h4v4h4v4h8v12h4v4h4v8h8v56l-8 2v18h-8v8h-8v8h-4v4h-8v8h-16v4h-8v4a49.87 49.87 0 0 0-14 1c-2.809 2.538-6.143 3.538-10 3v4h-8v4a765.821 765.821 0 0 1-76-2c.268 1.599-.066 2.932-1 4-2.106-1.283-4.44-2.116-7-2.5a131.515 131.515 0 0 0-13-8c-6.632-6.808-13.965-12.641-22-17.5a10.165 10.165 0 0 0-3-3c.213-2.1 1.713-3.767 4.5-5 2.935 1.692 6.102 2.358 9.5 2v4h12v4a111.652 111.652 0 0 1 32 3 576.95 576.95 0 0 0 48 1v-4h16v-4h16v-4h14v-4a41.333 41.333 0 0 1 10-2v-6h6l2-8h4v-8h4v-8h4v-8h4v-24h-4v-24h-8v-12h-8v-12h-4v-4h-4a142.773 142.773 0 0 0-5-12c5-5.667 10.333-11 16-16z"/>
  <path style="opacity:1" fill="#e4e4e4" d="M354.5 655.5c-.111.617-.444 1.117-1 1.5a94.093 94.093 0 0 1 14 9 146.758 146.758 0 0 1 15 14c7.979 5.303 15.979 10.636 24 16a45.055 45.055 0 0 1 10 9.5 45.972 45.972 0 0 0 12 7.5c2.971 4.766 7.305 6.766 13 6a118.042 118.042 0 0 0 21.5 9.5c1.88-2.264 1.38-3.93-1.5-5a1259.64 1259.64 0 0 1 25-8c-.547 2.712-2.213 4.212-5 4.5 3.974-.49 7.641.01 11 1.5v1c-9.605.185-18.605 2.518-27 7h-3a104.618 104.618 0 0 1-9-1c1.362 5.471-.305 9.971-5 13.5a12.494 12.494 0 0 1-7 0 152.977 152.977 0 0 0-15-7c-5.311-7.484-11.977-13.317-20-17.5-3.122-4.461-7.122-7.795-12-10a22.581 22.581 0 0 1-4-8 1676.86 1676.86 0 0 0 19 15.5c1.798 1.505 3.632 1.672 5.5.5 7.336 12.518 18.169 19.518 32.5 21-.06-4.014-1.727-7.181-5-9.5-9.202-3.37-16.869-8.87-23-16.5-3.833-1.762-7.166-4.095-10-7-3.286-.54-6.286-1.706-9-3.5-2.502-3.896-6.169-7.229-11-10-3.523-5.718-8.19-6.885-14-3.5 4.746 4.419 9.413 8.752 14 13l-1 2a83.998 83.998 0 0 1-8-7.5 4.934 4.934 0 0 0-3-.5v-3a4.934 4.934 0 0 1-3-.5c-4.03-5.41-9.363-8.91-16-10.5-2.01-2.517-4.677-4.017-8-4.5-2.343-2.544-5.01-4.378-8-5.5-.221-2.779.112-5.446 1-8 .734-1.208 1.067-2.541 1-4 1.644-.214 3.144.12 4.5 1 1.506-1.674 3.339-2.674 5.5-3z"/>
  <path style="opacity:1" fill="#ececec" d="M327.5 677.5c10.418 3.038 19.418 8.372 27 16a55.35 55.35 0 0 0-15 6c-2.827.084-5.494.75-8 2a357.42 357.42 0 0 1-34 13 175.525 175.525 0 0 1-18 4l-18-2c-5.878.083-7.378 2.75-4.5 8 3.969 2.147 7.469 4.813 10.5 8-6.334-2.151-11-6.151-14-12-.014-2.093.652-3.926 2-5.5 8.377-.15 16.711.183 25 1 8.521.266 15.854-2.401 22-8l10-1 2-2a10.258 10.258 0 0 1-4-1.5c.779-4.613 1.279-9.28 1.5-14 2.133-1.638 4.633-2.471 7.5-2.5 2.897-1.715 4.231-4.215 4-7.5 1.983.343 3.317-.324 4-2z"/>
  <path style="opacity:1" fill="#c1c1c1" d="M342.5 661.5h1c-.888 2.554-1.221 5.221-1 8 2.99 1.122 5.657 2.956 8 5.5 3.323.483 5.99 1.983 8 4.5 6.637 1.59 11.97 5.09 16 10.5a4.934 4.934 0 0 0 3 .5v3a4.934 4.934 0 0 1 3 .5 83.998 83.998 0 0 0 8 7.5c-.128 1.59-.795 2.923-2 4-1.22-1.211-2.387-1.211-3.5 0l-4-4c-.617-.949-.451-1.782.5-2.5-6.666-9.686-15.666-16.019-27-19-3.469-4.535-7.469-8.368-12-11.5-.329-2.728.337-5.062 2-7z"/>
  <path style="opacity:1" fill="white" d="m386.5 671.5 6 2a393.399 393.399 0 0 1 17 16.5 50.433 50.433 0 0 0 11 7.5c1.027 1.694 2.361 3.027 4 4a12.93 12.93 0 0 1-5-.5c-3.435-3.558-7.435-6.391-12-8.5a100.08 100.08 0 0 1-11-13c-4.243-1.581-7.576-4.248-10-8z"/>
  <path style="opacity:1" fill="#707070" d="M392.5 673.5a19.177 19.177 0 0 1 5 2.5 231.25 231.25 0 0 0 23 21.5 50.433 50.433 0 0 1-11-7.5 393.399 393.399 0 0 0-17-16.5z"/>
  <path style="opacity:1" fill="#ababab" d="M558.5 687.5a142.773 142.773 0 0 1 5 12h4v4h4v12h8v12h8v24h4v24h-4v8h-4v8h-4v8h-4l-2 8h-6v6a41.333 41.333 0 0 0-10 2v4h-14v4h-16v4h-16v4a576.95 576.95 0 0 1-48-1 111.652 111.652 0 0 0-32-3v-4h-12v-4c-3.398.358-6.565-.308-9.5-2-2.787 1.233-4.287 2.9-4.5 5a34.768 34.768 0 0 1-9-6.5 125.583 125.583 0 0 0-23-4c-3.781-1.618-6.781-4.118-9-7.5 3.562-3.378 3.562-6.545 0-9.5a109.88 109.88 0 0 0-16-9c-8.547-9.061-18.547-15.895-30-20.5-3.235-4.622-7.568-7.789-13-9.5-7.704-5.18-15.37-10.346-23-15.5a9.108 9.108 0 0 0-5-1c-2.63-3.317-5.963-5.65-10-7-3.031-3.187-6.531-5.853-10.5-8-2.878-5.25-1.378-7.917 4.5-8l18 2a175.525 175.525 0 0 0 18-4c-1.8 2.741-4.466 4.241-8 4.5a49.67 49.67 0 0 0 18 4.5v4h4v4h4v8h4a8.43 8.43 0 0 1 .5-4c.497 2.646.664 5.313.5 8h3v4h4v3l8 1v4h4v4h4v4h4v4l12 4v4h4v4h8v4c5.012 2.499 10.345 3.832 16 4v4h8v4a38.469 38.469 0 0 0 12 2v4l24 2v4c15.99 1.996 31.99 3.996 48 6 10.677-.669 21.344-1.335 32-2v-4h16v-4h14l-2-8h8v-8h8v-12h4v-8h8v-36h-4v-8h-4v-4h-4v-4h-4a25.879 25.879 0 0 0-1-10c-1.393-1.363-3.059-2.196-5-2.5l2-1c-1.098-.77-1.098-1.603 0-2.5a47.229 47.229 0 0 1 11-12z"/>
  <path style="opacity:1" fill="#8f8f8f" d="M562.5 627.5v2a77.5 77.5 0 0 1-9.5 18 80.001 80.001 0 0 0-14 16 96.913 96.913 0 0 0-13.5 15 85.436 85.436 0 0 0-16 15c-.617-.111-1.117-.444-1.5-1a6341.89 6341.89 0 0 0-18.5 12.5c-4.461 2.158-9.127 3.158-14 3a135.67 135.67 0 0 1 10-3 215.783 215.783 0 0 0 17-10 1132 1132 0 0 0 40.5-39.5 10.134 10.134 0 0 0 1.5-4 140.186 140.186 0 0 0 13.5-20 25.14 25.14 0 0 1 4.5-4z"/>
  <path style="opacity:1" fill="#444" d="M634.5 593.5a253.64 253.64 0 0 1-16 22 38.47 38.47 0 0 0-5.5 5 50.433 50.433 0 0 0-7.5 11 121.644 121.644 0 0 0-11 15 58.524 58.524 0 0 0-8 10 16.635 16.635 0 0 0-5 6c-.996.086-1.829-.248-2.5-1a1137.732 1137.732 0 0 1-57.5 55.5 351.942 351.942 0 0 0-21 14c-1.902 1.301-3.902 1.968-6 2a271.34 271.34 0 0 0 28-19.5c-.891-1.09-1.891-1.09-3 0a4138.241 4138.241 0 0 0-21 14 171.268 171.268 0 0 1-15 6.5c-1.941 2.454-4.275 4.287-7 5.5-.734-1.208-1.067-2.541-1-4 1.322-.17 2.489.163 3.5 1a43.105 43.105 0 0 1 7.5-8.5 107.582 107.582 0 0 1 13-5 24.935 24.935 0 0 0-7-.5v-1c12.74-3.037 24.073-8.703 34-17a126.884 126.884 0 0 0 11-8.5 500.95 500.95 0 0 1 18-19.5c17.333-14 33-29.667 47-47a821.862 821.862 0 0 1 32-36z"/>
  <path style="opacity:1" fill="#4f4f4f" d="M525.5 678.5c.438-.065.772.101 1 .5-1.323.816-1.989 1.983-2 3.5a60.364 60.364 0 0 0-8 5.5c-2.591 4.927-6.258 8.927-11 12-7.754 6.043-16.42 10.21-26 12.5-.543-.06-.876-.393-1-1a56.863 56.863 0 0 0 14-5 243.956 243.956 0 0 0 17-13 85.436 85.436 0 0 1 16-15z"/>
  <path style="opacity:1" fill="#989898" d="M354.5 693.5a1042.389 1042.389 0 0 1 29 26.5 783.627 783.627 0 0 1 44 30c5.721 3.191 11.388 6.358 17 9.5 2.137 3.473 5.137 5.806 9 7 2.335 2.665 5.335 3.998 9 4 7.36-5.865 13.526-12.865 18.5-21l7.5-7.5a326.864 326.864 0 0 0 32-19.5c.709.904 1.709 1.237 3 1v8h4a91.607 91.607 0 0 1-2 24h-6v8h-4v5h-4v3h-4v4h-8v4a85.126 85.126 0 0 0-23.5 2c-2.725-.482-4.892-1.815-6.5-4a14.506 14.506 0 0 0-5 4c-1.333-2.667-2.667-2.667-4 0-6.787-1.912-13.787-2.578-21-2v-4h-8v-4h-12v-4h-12v-4h-12v-4h-8v-4h-8v-4h-4v-4h-4v-4h-8v-4h-4v-8h-4v-8h-4v-4h-4v-14a13.116 13.116 0 0 1-7-1c-.468-1.634-1.468-2.8-3-3.5.916-.278 1.582-.778 2-1.5a55.35 55.35 0 0 1 15-6z"/>
  <path style="opacity:1" fill="white" d="M555.5 676.5a500.95 500.95 0 0 0-18 19.5 126.884 126.884 0 0 1-11 8.5l1.5-6c4.849-5.366 10.015-10.032 15.5-14-.219-1.175.114-2.175 1-3a32.648 32.648 0 0 0 8.5-6c.671.752 1.504 1.086 2.5 1z"/>
  <path style="opacity:1" fill="white" d="M390.5 699.5h-1a7107.783 7107.783 0 0 1-14-13c5.81-3.385 10.477-2.218 14 3.5 4.831 2.771 8.498 6.104 11 10 2.714 1.794 5.714 2.96 9 3.5 2.834 2.905 6.167 5.238 10 7 6.131 7.63 13.798 13.13 23 16.5 3.273 2.319 4.94 5.486 5 9.5-14.331-1.482-25.164-8.482-32.5-21-1.868 1.172-3.702 1.005-5.5-.5a1676.86 1676.86 0 0 1-19-15.5z"/>
  <path style="opacity:1" fill="#9f9f9f" d="M339.5 699.5c-.418.722-1.084 1.222-2 1.5 1.532.7 2.532 1.866 3 3.5a13.116 13.116 0 0 0 7 1v14h4v4h4v8h4v8h4v4h8v4h4v4h4v4h8v4h8v4h12v4h12v4h12v4h8v4c7.213-.578 14.213.088 21 2 1.333-2.667 2.667-2.667 4 0a14.506 14.506 0 0 1 5-4c1.608 2.185 3.775 3.518 6.5 4a85.126 85.126 0 0 1 23.5-2v-4h8v-4h4v-3h4v-5h4v-8h6a91.607 91.607 0 0 0 2-24h-4v-8c-1.291.237-2.291-.096-3-1a49.074 49.074 0 0 1 13-10c.05 2.652 1.05 3.652 3 3 .929 1.189 1.262 2.522 1 4h4a38.469 38.469 0 0 1 2 12h4v20h-4a64.873 64.873 0 0 1-1 16c-2.05.577-3.05 1.91-3 4h-8v8h-4v4h-4v4h-8v4h-20v4c-10.656.665-21.323 1.331-32 2-10.677-.669-21.344-1.335-32-2v-4h-8v-4a49.862 49.862 0 0 0-16-2v-4a49.862 49.862 0 0 1-16-2v-4h-4v-4a38.469 38.469 0 0 1-12-2v-4a38.469 38.469 0 0 0-12-2v-4h-4v-4h-4v-4h-4v-4h-4v-4h-4v-4h-4v-4h-4v-4h-4v-4h-4v-4c-2.588-.043-4.754-1.043-6.5-3a301.41 301.41 0 0 1 2.5-9c-1.478.262-2.811-.071-4-1 2.106-1.397 3.773-3.23 5-5.5 2.674-.67 5.007-1.837 7-3.5a18.974 18.974 0 0 1 8-2z"/>
  <path style="opacity:1" fill="#a5a5a5" d="M547.5 699.5c-1.098.897-1.098 1.73 0 2.5l-2 1c1.941.304 3.607 1.137 5 2.5a25.879 25.879 0 0 1 1 10h4v4h4v4h4v8h4v36h-8v8h-4v12h-8v8h-8l2 8h-14v4h-16v4c-10.656.665-21.323 1.331-32 2-16.01-2.004-32.01-4.004-48-6v-4l-24-2v-4a38.469 38.469 0 0 1-12-2v-4h-8v-4c-5.655-.168-10.988-1.501-16-4v-4h-8v-4h-4v-4l-12-4v-4h-4v-4h-4v-4h-4v-4l-8-1v-3h-4v-4h-3a32.462 32.462 0 0 0-.5-8 8.43 8.43 0 0 0-.5 4h-4v-8h-4v-4h-4v-4a49.67 49.67 0 0 1-18-4.5c3.534-.259 6.2-1.759 8-4.5a357.42 357.42 0 0 0 34-13c-1.993 1.663-4.326 2.83-7 3.5-1.227 2.27-2.894 4.103-5 5.5 1.189.929 2.522 1.262 4 1a301.41 301.41 0 0 0-2.5 9c1.746 1.957 3.912 2.957 6.5 3v4h4v4h4v4h4v4h4v4h4v4h4v4h4v4h4v4h4v4c4.13.034 8.13.701 12 2v4a38.469 38.469 0 0 0 12 2v4h4v4a49.862 49.862 0 0 0 16 2v4a49.862 49.862 0 0 1 16 2v4h8v4c10.656.665 21.323 1.331 32 2 10.677-.669 21.344-1.335 32-2v-4h20v-4h8v-4h4v-4h4v-8h8c-.05-2.09.95-3.423 3-4a64.873 64.873 0 0 0 1-16h4v-20h-4a38.469 38.469 0 0 0-2-12h-4c.262-1.478-.071-2.811-1-4-1.95.652-2.95-.348-3-3 4.059-5.062 8.726-9.395 14-13z"/>
  <path style="opacity:1" fill="#676767" d="M544.5 651.5a10.134 10.134 0 0 1-1.5 4 1132 1132 0 0 1-40.5 39.5 215.783 215.783 0 0 1-17 10 135.67 135.67 0 0 0-10 3c4.873.158 9.539-.842 14-3a6341.89 6341.89 0 0 1 18.5-12.5c.383.556.883.889 1.5 1a243.956 243.956 0 0 1-17 13 56.863 56.863 0 0 1-14 5c.124.607.457.94 1 1-7.109 1.514-14.442 2.347-22 2.5-1.362 1.651-2.029 3.151-2 4.5a221.506 221.506 0 0 1-31-18c-1.639-.973-2.973-2.306-4-4a308.418 308.418 0 0 1 26 16c2.943-5.892 7.776-8.559 14.5-8 8.758 1.784 17.258.951 25.5-2.5a56.81 56.81 0 0 1 15-9 862.595 862.595 0 0 0 43-42.5z"/>
  <path style="opacity:1" fill="#a1a1a1" d="M454.5 707.5c14.419-.28 14.419.72 0 3a18.453 18.453 0 0 1-.5 6c-3.771-.43-5.105-2.43-4-6a29.01 29.01 0 0 0 4.5-3z"/>
  <path style="opacity:1" fill="#b0b0b0" d="M524.5 682.5h1c-9.002 15.665-22.002 26.665-39 33a1259.64 1259.64 0 0 0-25 8c-2.382-.851-4.382-2.184-6-4-.029-1.349.638-2.849 2-4.5 7.558-.153 14.891-.986 22-2.5 9.58-2.29 18.246-6.457 26-12.5 4.742-3.073 8.409-7.073 11-12a60.364 60.364 0 0 1 8-5.5z"/>
  <path style="opacity:1" fill="#505050" d="M286.5 649.5a281.296 281.296 0 0 1 18 12.5c9.32 3.989 17.987 8.989 26 15a82.68 82.68 0 0 1 19 9 267.741 267.741 0 0 1 15 16c7.212 4.206 13.545 9.539 19 16a1459.079 1459.079 0 0 1 61 41.5c-5.612-3.142-11.279-6.309-17-9.5a783.627 783.627 0 0 0-44-30 1042.389 1042.389 0 0 0-29-26.5c-7.582-7.628-16.582-12.962-27-16-1.216-1.951-2.882-3.451-5-4.5-13.526-5.73-25.526-13.563-36-23.5z"/>
  <path style="opacity:1" fill="#616161" d="M581.5 662.5a45.59 45.59 0 0 1-7 9c-5.667 5-11 10.333-16 16a47.229 47.229 0 0 0-11 12c-5.274 3.605-9.941 7.938-14 13a49.074 49.074 0 0 0-13 10 326.864 326.864 0 0 1-32 19.5l-7.5 7.5c-4.974 8.135-11.14 15.135-18.5 21-1.28-1.431-2.947-2.098-5-2-.878-5.492.788-6.825 5-4 1.772-.86 3.105-2.193 4-4a17.903 17.903 0 0 0-8-.5l-3-5 12-1c1-2 2-2 3 0-2.276 1.03-2.943 2.53-2 4.5a35.42 35.42 0 0 0 6-10 52.108 52.108 0 0 0 8-5.5c-7.289 1.049-13.956 3.883-20 8.5.413-5.316 3.246-9.316 8.5-12 1.626.354 3.459.354 5.5 0 2.725-1.213 5.059-3.046 7-5.5a171.268 171.268 0 0 0 15-6.5 4138.241 4138.241 0 0 1 21-14c1.109-1.09 2.109-1.09 3 0a271.34 271.34 0 0 1-28 19.5c2.098-.032 4.098-.699 6-2a351.942 351.942 0 0 1 21-14 1137.732 1137.732 0 0 0 57.5-55.5c.671.752 1.504 1.086 2.5 1z"/>
  <path style="opacity:1" fill="#c9c9c9" d="M389.5 699.5h1a22.581 22.581 0 0 0 4 8c4.878 2.205 8.878 5.539 12 10 8.023 4.183 14.689 10.016 20 17.5a152.977 152.977 0 0 1 15 7c2.333.667 4.667.667 7 0 4.695-3.529 6.362-8.029 5-13.5 2.982.463 5.982.796 9 1-.531 2.044-1.698 3.711-3.5 5l-1-3c-.894 5.49-2.728 10.824-5.5 16-3.45.744-5.116-.59-5-4-7.06 1.329-13.06-.504-18-5.5a54.628 54.628 0 0 0-7-2l-23-23a35.3 35.3 0 0 0-8.5-3.5 147.318 147.318 0 0 1-2.5-8l1-2z"/>
  <path style="opacity:1" fill="#3b3b3b" d="M492.5 722.5c2.357-.163 4.69.003 7 .5a107.582 107.582 0 0 0-13 5 43.105 43.105 0 0 0-7.5 8.5c-1.011-.837-2.178-1.17-3.5-1-.067 1.459.266 2.792 1 4-2.041.354-3.874.354-5.5 0-5.254 2.684-8.087 6.684-8.5 12 6.044-4.617 12.711-7.451 20-8.5a52.108 52.108 0 0 1-8 5.5 35.42 35.42 0 0 1-6 10c-.943-1.97-.276-3.47 2-4.5-1-2-2-2-3 0l-12 1 3 5a17.903 17.903 0 0 1 8 .5c-.895 1.807-2.228 3.14-4 4-4.212-2.825-5.878-1.492-5 4 2.053-.098 3.72.569 5 2-3.665-.002-6.665-1.335-9-4a2.428 2.428 0 0 0 2-.5c-1.941-6.001-2.441-12.168-1.5-18.5a84.475 84.475 0 0 1 11.5-18c8.395-4.482 17.395-6.815 27-7z"/>
  <path style="opacity:1" fill="#545454" d="M444.5 759.5a24.187 24.187 0 0 1 9 7c-3.863-1.194-6.863-3.527-9-7z"/>
  <path style="opacity:1" fill="white" d="M757.5 624.5a55.37 55.37 0 0 1 17 10.5 211.094 211.094 0 0 0 21 9 169.237 169.237 0 0 0 14 10.5 80.344 80.344 0 0 0 19 2.5c14.056 2.724 21.889 11.224 23.5 25.5a47.662 47.662 0 0 1 7.5 8.5c6.579 3.619 13.246 6.619 20 9l27 19c8.862 3.258 16.529 8.258 23 15l10 5a203.945 203.945 0 0 1 18.5 15.5c1.056 4.624-.777 7.457-5.5 8.5a668.356 668.356 0 0 1-39 13 1729.338 1729.338 0 0 0-56 11.5c-7.337.075-14.67.075-22 0l-3 1.5a581.341 581.341 0 0 0-49 6.5 70.247 70.247 0 0 0 7-3 179.71 179.71 0 0 0 31-5 587.027 587.027 0 0 0 43-3.5 1441.31 1441.31 0 0 0 64-14c1.99-1.751 4.323-2.751 7-3l-2-1a19.24 19.24 0 0 0 9-3l-1-1c5.281-.147 9.948-1.814 14-5a243.189 243.189 0 0 0-39-26 177.15 177.15 0 0 0-14-10.5c-4.367-.894-7.7-3.228-10-7a168.789 168.789 0 0 1-13-8.5l-2-3c-12.704-4.924-23.538-12.424-32.5-22.5l-1-9a163.057 163.057 0 0 0-11.5-10 224.398 224.398 0 0 0-20-1.5 187.935 187.935 0 0 1-15-7.5c-7.707-2.382-14.041-6.715-19-13a346.06 346.06 0 0 1-21-14z"/>
  <path style="opacity:1" fill="#ececec" d="M277.5 739.5a9.108 9.108 0 0 1 5 1c7.63 5.154 15.296 10.32 23 15.5 5.432 1.711 9.765 4.878 13 9.5 11.453 4.605 21.453 11.439 30 20.5a109.88 109.88 0 0 1 16 9c3.562 2.955 3.562 6.122 0 9.5 2.219 3.382 5.219 5.882 9 7.5 7.803.621 15.47 1.955 23 4a34.768 34.768 0 0 0 9 6.5 10.165 10.165 0 0 1 3 3c-2.97-.54-5.47-1.873-7.5-4a3.943 3.943 0 0 0-2 1 25.893 25.893 0 0 1-6.5-5.5 206.238 206.238 0 0 1-23-2 25.893 25.893 0 0 0-5.5-6.5 4.934 4.934 0 0 0-.5 3h-3a73.314 73.314 0 0 1-1-12h-8v-4h-4v-4h-3c.016-5.134-1.984-9.301-6-12.5a302.184 302.184 0 0 0-29-15.5c-1.147.318-1.981.984-2.5 2-.71-1.473-1.876-2.14-3.5-2a252.55 252.55 0 0 0-4-9c-3.816-.744-6.816-2.744-9-6a93.148 93.148 0 0 1-13-9z"/>
  <path style="opacity:1" fill="white" d="M655.5 829.5a178.853 178.853 0 0 1-18 8 3.647 3.647 0 0 0 1 1.5 38.929 38.929 0 0 1-5 5.5l-12 3v4c-2.644.34-4.977-.327-7-2a21.028 21.028 0 0 1-7 2v10c-7.213.578-14.213-.088-21-2a312.84 312.84 0 0 0-27 11c-.131-.876.202-1.543 1-2a54.124 54.124 0 0 0 16-8.5 579.73 579.73 0 0 1 43-17.5 579.476 579.476 0 0 1 36-13z"/>
  <path style="opacity:1" fill="white" d="M408.5 825.5c8.035 4.859 15.368 10.692 22 17.5 4.47 2.404 8.803 5.07 13 8 2.56.384 4.894 1.217 7 2.5 5.934 5.641 12.601 10.307 20 14 2.005 3.499 5.005 5.666 9 6.5 3.832 3.85 8.165 6.85 13 9a489.713 489.713 0 0 0 25 17c2.929.777 5.763.61 8.5-.5a43.073 43.073 0 0 1 2-9c2.265-1.416 3.431-3.416 3.5-6a441.082 441.082 0 0 1 25-13 16.332 16.332 0 0 1-2 4 2311.52 2311.52 0 0 0-14 7c-1.403 4.92-4.237 8.92-8.5 12l-1-1a50.729 50.729 0 0 1-3.5 10.5c-2.727.818-5.394.652-8-.5a89.653 89.653 0 0 0-16-8c.219-1.175-.114-2.175-1-3-10.496-4.587-20.496-10.254-30-17-.547-3.761-2.547-6.428-6-8-8.559-3.387-16.226-8.221-23-14.5a103.59 103.59 0 0 0-12-6.5 52.31 52.31 0 0 0-11-8.5c-2.575-3.936-5.909-6.936-10-9-1.323-.816-1.989-1.983-2-3.5z"/>
</svg>