<svg xmlns="http://www.w3.org/2000/svg" width="1024" height="1024" style="shape-rendering:geometricPrecision;text-rendering:geometricPrecision;image-rendering:optimizeQuality;fill-rule:evenodd;clip-rule:evenodd">
  <path fill="#444" d="M658.5 209.5c9.119 8.257 19.452 14.757 31 19.5 2.212.789 4.212.622 6-.5 1.274.689 1.274 1.523 0 2.5l-4 .5c-4.58-.701-8.914-1.867-13-3.5 5.374 3.745 11.374 5.412 18 5-4.305 4.641-8.639 9.307-13 14a2.428 2.428 0 0 0 2 .5c-.296 1.903-.963 3.57-2 5 .086-.996-.248-1.829-1-2.5-9.684-1.827-18.35-5.661-26-11.5a2.428 2.428 0 0 0 2-.5 7463.33 7463.33 0 0 0 12-14c-2.391-1.309-2.391-2.309 0-3-.744-1.039-1.744-1.539-3-1.5-2.4-3.403-5.4-6.07-9-8v-2z"/>
  <path fill="#a0a0a0" d="M634.5 307.5c-8.964 12.255-16.131 25.588-21.5 40-8.588 8.176-13.088 18.176-13.5 30-1.25-.077-2.083-.744-2.5-2-.383.556-.883.889-1.5 1a32.462 32.462 0 0 1 .5-8 518.289 518.289 0 0 1 12.5-22c1.125-.848 1.125-1.848 0-3l2-3a2.428 2.428 0 0 0 .5 2 423.9 423.9 0 0 1 19-34c1.356-.88 2.856-1.214 4.5-1z"/>
  <path fill="#dadada" d="M557.5 308.5c2.014-.108 3.68.558 5 2 .838.342 1.172 1.008 1 2 .325 4.343 2.158 8.343 5.5 12 6.545 7.06 14.045 12.727 22.5 17a44.445 44.445 0 0 1-6 12c-1.478-.262-2.811.071-4 1a3.647 3.647 0 0 0 1 1.5c-1.216 1.74-2.882 2.74-5 3l2 1a22.755 22.755 0 0 0-5 4c1.333 1 1.333 2 0 3l4 4-1 3a47.148 47.148 0 0 1 3 11.5 6.895 6.895 0 0 1-2 4c1.86 2.26 1.86 4.76 0 7.5l1 1a15.096 15.096 0 0 0-3 6 78.827 78.827 0 0 1 3 8l-4 2c.457.414.791.914 1 1.5-3.049 3.432-5.049 7.432-6 12l-3-2a5.727 5.727 0 0 0-1-3c2.651-2.624 4.485-6.291 5.5-11 1.281.119 2.448-.381 3.5-1.5a7.293 7.293 0 0 0-3-2c2.029-5.043 3.362-10.043 4-15-.258-4.331-.925-9.165-2-14.5 2.269-2.381 2.269-4.881 0-7.5l1-1c-1.705-2.477-3.705-3.811-6-4a7.293 7.293 0 0 1 3-2c-4.678-.197-5.012-1.197-1-3a11.333 11.333 0 0 1-1.5-3.5c-.833 2.5-2 2.667-3.5.5a9.454 9.454 0 0 0 2.5-1.5c2.277-4.484 1.111-6.818-3.5-7 .582-3.378.582-6.545 0-9.5a7.293 7.293 0 0 1 3-2 11.532 11.532 0 0 1-4.5-3.5c-.677 2.189-1.844 2.522-3.5 1-1.693 1.779-3.693 2.279-6 1.5 1.104-1.131.771-1.965-1-2.5a31.71 31.71 0 0 1-6 2 174.149 174.149 0 0 0 11.5-11c1.301-1.865 1.635-3.865 1-6-.232 1.237-.732 2.237-1.5 3-.689-2.853-2.522-4.519-5.5-5-1.356.88-2.856 1.214-4.5 1a32.295 32.295 0 0 0 9-10z"/>
  <path fill="#e9e9e9" d="M588.5 281.5a25810.953 25810.953 0 0 1-18 17c-5.352 2.157-9.686 5.491-13 10a96.558 96.558 0 0 0-17 16 34.482 34.482 0 0 0 8-6c1.644.214 3.144-.12 4.5-1 2.978.481 4.811 2.147 5.5 5-4.076 5.41-9.076 9.743-15 13 1.189.929 2.522 1.262 4 1a31.71 31.71 0 0 0 6-2c1.771.535 2.104 1.369 1 2.5 2.307.779 4.307.279 6-1.5 1.656 1.522 2.823 1.189 3.5-1a11.532 11.532 0 0 0 4.5 3.5 7.293 7.293 0 0 0-3 2c.582 2.955.582 6.122 0 9.5 4.611.182 5.777 2.516 3.5 7a9.454 9.454 0 0 1-2.5 1.5c1.5 2.167 2.667 2 3.5-.5a11.333 11.333 0 0 0 1.5 3.5c-4.012 1.803-3.678 2.803 1 3a7.293 7.293 0 0 0-3 2c2.295.189 4.295 1.523 6 4l-1 1c2.269 2.619 2.269 5.119 0 7.5 1.075 5.335 1.742 10.169 2 14.5-.638 4.957-1.971 9.957-4 15a7.293 7.293 0 0 1 3 2c-1.052 1.119-2.219 1.619-3.5 1.5-1.015 4.709-2.849 8.376-5.5 11a25.619 25.619 0 0 0-6-6c-1.667-3.667-4.333-6.333-8-8-1-1.667-2.333-3-4-4-1.411-2.414-3.411-4.081-6-5a47.427 47.427 0 0 0-13-10 53.622 53.622 0 0 0-8-6.5 184.748 184.748 0 0 0-16-8.5 236.714 236.714 0 0 0 12-13.5c-3.472-1.58-7.138-1.913-11-1-6.481.736-12.481 2.903-18 6.5-1.333 1-1.333 2 0 3 1.412 1.306 3.079 2.14 5 2.5a13.015 13.015 0 0 0-4 4.5c-.825.886-1.825 1.219-3 1a87.925 87.925 0 0 0-2-9c1.273-.577 1.273-1.243 0-2a67.103 67.103 0 0 0-22-5c-1.419-.951-3.085-1.284-5-1a20.69 20.69 0 0 1 1-5 87.255 87.255 0 0 1-6 5.5c2.646.497 5.313.664 8 .5a87.978 87.978 0 0 1-9 13l-1-2a60.931 60.931 0 0 0-.5-11 9.454 9.454 0 0 0-2.5-1.5c1.939-1.432 3.272-3.265 4-5.5 20.049-26.312 46.716-37.145 80-32.5 10.921-3.57 19.587-10.236 26-20 12.018-8.01 22.852-17.51 32.5-28.5.87.608 1.37 1.441 1.5 2.5a25.194 25.194 0 0 0-3 5.5z"/>
  <path fill="white" d="M497.5 339.5c5.344-.166 10.677.001 16 .5-1.801.317-2.134.984-1 2 3.907 1.202 7.407 3.035 10.5 5.5 1.356-.88 2.856-1.214 4.5-1-.438 3.692-2.438 6.192-6 7.5a4648.274 4648.274 0 0 0-38 4.5c-.14-1.624.527-2.79 2-3.5-6.95-2.17-7.617-5.503-2-10 2.994-.406 5.161-1.906 6.5-4.5l1 1a96.578 96.578 0 0 0 6.5-2z"/>
  <path fill="#484848" d="M481.5 335.5a1625.135 1625.135 0 0 1-11 7.5 264.146 264.146 0 0 1-12 12.5c5.207-9.543 12.873-16.21 23-20z"/>
  <path fill="#929292" d="M458.5 355.5a20.69 20.69 0 0 0-1 5c1.915-.284 3.581.049 5 1h-2a32.462 32.462 0 0 1-8-.5 87.255 87.255 0 0 0 6-5.5z"/>
  <path fill="white" d="M505.5 374.5c-6.401 9.751-14.734 12.251-25 7.5-5.608 5.43-10.608 11.264-15 17.5-2.475-1.187-3.475-3.187-3-6a72.132 72.132 0 0 0 16.5-21 33.673 33.673 0 0 0 5.5-4 87.925 87.925 0 0 1 2 9c1.175.219 2.175-.114 3-1a13.015 13.015 0 0 1 4-4.5c-1.921-.36-3.588-1.194-5-2.5-1.333-1-1.333-2 0-3 5.519-3.597 11.519-5.764 18-6.5 3.862-.913 7.528-.58 11 1a236.714 236.714 0 0 1-12 13.5z"/>
  <path fill="#3b3b3b" d="M608.5 346.5a518.289 518.289 0 0 0-12.5 22 32.462 32.462 0 0 0-.5 8c.131.876-.202 1.543-1 2-3.766-4.806-3.933-9.806-.5-15a72.493 72.493 0 0 0 11.5-16 5.727 5.727 0 0 1 3-1z"/>
  <path fill="#555" d="M460.5 361.5h2a67.103 67.103 0 0 1 22 5c1.273.757 1.273 1.423 0 2a33.673 33.673 0 0 1-5.5 4 72.132 72.132 0 0 1-16.5 21c-5.436-5.191-9.102-11.525-11-19a87.978 87.978 0 0 0 9-13z"/>
  <path fill="#fafafb" d="M448.5 382.5c-.045 2.577.955 4.577 3 6-.073 1.527.594 2.527 2 3 .25 2.174 1.25 3.841 3 5-.073 1.527.594 2.527 2 3 .58 2.249 1.913 3.915 4 5a56.72 56.72 0 0 0 8 10c-.689 1.274-1.523 1.274-2.5 0l-.5 2.5c1.003 2.468 1.503 4.968 1.5 7.5a122.201 122.201 0 0 1-18.5 16.5c1.782 4.579.115 7.079-5 7.5-4.518 4.727-6.851 10.393-7 17-2.489-.202-4.823.298-7 1.5a249.22 249.22 0 0 0-15 16.5 19.276 19.276 0 0 0-4.5 8c-.869-5.008-1.536-4.675-2 1a29.62 29.62 0 0 0-7 11c-2.743 2.403-5.076 5.069-7 8-.869-5.008-1.536-4.675-2 1a222.1 222.1 0 0 1-9.5 10.5c1.211.893 1.211 1.726 0 2.5l-2-2a22.725 22.725 0 0 1-7 3l2 2c-1.455 1.72-2.288 3.72-2.5 6-1.011.837-2.178 1.17-3.5 1 .05 2.09-.95 3.423-3 4 .134 5.377-1.866 9.711-6 13-1.187-1.153-2.187-1.153-3 0l-4-3c-.919-2.589-2.586-4.589-5-6 .073-1.527-.594-2.527-2-3 .073-1.527-.594-2.527-2-3 .073-1.527-.594-2.527-2-3a36.87 36.87 0 0 0-2-5.5c1.381-2.146.714-3.313-2-3.5a35.666 35.666 0 0 0-4-7c.237-1.291-.096-2.291-1-3a4.934 4.934 0 0 1 .5-3l106-146c1.506 5.703 3.672 11.037 6.5 16z"/>
  <path fill="#b9b9b9" d="M603.5 346.5c.992-.172 1.658.162 2 1a72.493 72.493 0 0 1-11.5 16c-3.433 5.194-3.266 10.194.5 15 .798-.457 1.131-1.124 1-2 .617-.111 1.117-.444 1.5-1 .417 1.256 1.25 1.923 2.5 2a182.156 182.156 0 0 0 5.5 26 59.497 59.497 0 0 1-.5 18c-.728-1.791-1.728-2.458-3-2a128.507 128.507 0 0 0-.5-16 195.912 195.912 0 0 1-5.5-18c-.064.865-.397 1.865-1 3 1.446 2.118 2.113 4.451 2 7-.783-1.576-1.95-2.909-3.5-4a43.385 43.385 0 0 0-2-8c-1 1.333-2 1.333-3 0a38.852 38.852 0 0 0-1.5-7c-.825-.886-1.825-1.219-3-1-.535-2.738.465-4.572 3-5.5l-2-1c.551-1.398.884-2.732 1-4-2.555-1.258-3.222-3.091-2-5.5a25.513 25.513 0 0 0 4.5-4l1 2a34.041 34.041 0 0 1 1.5-7.5 40.914 40.914 0 0 1 9-.5 8.43 8.43 0 0 0 .5 4c.174-2.96 1.34-5.294 3.5-7z"/>
  <path fill="#484848" d="M451.5 388.5c1.406.473 2.073 1.473 2 3-1.406-.473-2.073-1.473-2-3z"/>
  <path fill="#525252" d="M456.5 396.5c1.406.473 2.073 1.473 2 3-1.406-.473-2.073-1.473-2-3z"/>
  <path fill="#c9c9c9" d="M591.5 341.5a47.386 47.386 0 0 0 12 5c-2.16 1.706-3.326 4.04-3.5 7a8.43 8.43 0 0 1-.5-4 40.914 40.914 0 0 0-9 .5 34.041 34.041 0 0 0-1.5 7.5l-1-2a25.513 25.513 0 0 1-4.5 4c-1.222 2.409-.555 4.242 2 5.5-.116 1.268-.449 2.602-1 4l2 1c-2.535.928-3.535 2.762-3 5.5 1.175-.219 2.175.114 3 1a38.852 38.852 0 0 1 1.5 7c1 1.333 2 1.333 3 0a43.385 43.385 0 0 1 2 8c1.55 1.091 2.717 2.424 3.5 4 3.401 9.133 3.901 18.466 1.5 28a189.446 189.446 0 0 1-8.5 23 65.342 65.342 0 0 1-6.5 8c-1.683-1.387-2.85-3.053-3.5-5a79.523 79.523 0 0 0-9-22c.951-4.568 2.951-8.568 6-12a3.647 3.647 0 0 0-1-1.5l4-2a78.827 78.827 0 0 0-3-8 15.096 15.096 0 0 1 3-6l-1-1c1.86-2.74 1.86-5.24 0-7.5a6.895 6.895 0 0 0 2-4 47.148 47.148 0 0 0-3-11.5l1-3-4-4c1.333-1 1.333-2 0-3a22.755 22.755 0 0 1 5-4l-2-1c2.118-.26 3.784-1.26 5-3a3.647 3.647 0 0 1-1-1.5c1.189-.929 2.522-1.262 4-1a44.445 44.445 0 0 0 6-12z"/>
  <path fill="#4e4e4e" d="M458.5 399.5c2.087 1.085 3.42 2.751 4 5-2.087-1.085-3.42-2.751-4-5z"/>
  <path fill="#525252" d="M462.5 404.5c4.066 3.063 7.399 6.729 10 11l-2-1a56.72 56.72 0 0 1-8-10z"/>
  <path fill="#4d4d4d" d="M477.5 420.5c3.264 1.594 5.931 3.927 8 7-3.264-1.594-5.931-3.927-8-7z"/>
  <path fill="#292929" d="M448.5 354.5h3c-.728 2.235-2.061 4.068-4 5.5.916.374 1.75.874 2.5 1.5.499 3.652.665 7.318.5 11-.958-.453-1.792-1.119-2.5-2a2.428 2.428 0 0 0-.5 2c-.904-2.138-1.571-4.471-2-7-.233-1.432-.9-1.932-2-1.5a151.744 151.744 0 0 0 5 18.5c-2.828-4.963-4.994-10.297-6.5-16l-106 146a4.934 4.934 0 0 0-.5 3c-.624.417-.957 1.084-1 2 1.633 6.588 4.3 12.588 8 18 9.886 16.555 22.886 30.221 39 41l6 5a2.428 2.428 0 0 0-2 .5c1.473.71 2.14 1.876 2 3.5a329.427 329.427 0 0 1-27-20.5c-4.361-2.512-8.694-5.012-13-7.5a146.156 146.156 0 0 0-15-6 51.569 51.569 0 0 0-7-1c-5.04-1.462-10.04-1.129-15 1-1.068-.934-2.401-1.268-4-1a6814.562 6814.562 0 0 1 142-196z"/>
  <path fill="#434343" d="M485.5 427.5c2.609.943 4.609 2.61 6 5l-6-3v-2z"/>
  <path fill="#202020" d="M685.5 247.5a2.428 2.428 0 0 1-2-.5c4.361-4.693 8.695-9.359 13-14-6.626.412-12.626-1.255-18-5 4.086 1.633 8.42 2.799 13 3.5l4-.5c1.274-.977 1.274-1.811 0-2.5-6.099-10.6-14.433-19.1-25-25.5-4.88-2.607-9.88-4.94-15-7a12.494 12.494 0 0 0-7 0c3.961 4.114 7.294 8.614 10 13.5a86.253 86.253 0 0 1-8.5-10 4.934 4.934 0 0 0-.5 3c-1.292-1.755-2.292-3.755-3-6a71.923 71.923 0 0 0-12 17.5c1.921 7.007 5.921 12.507 12 16.5 1.943 2.971 4.609 4.971 8 6 .333 1 1 1.667 2 2 7.65 5.839 16.316 9.673 26 11.5.752.671 1.086 1.504 1 2.5a77.384 77.384 0 0 0-9 11.5 38.806 38.806 0 0 0-8.5 5.5 826.958 826.958 0 0 0-40 56l-11 24a58.76 58.76 0 0 0-12 19c-.667 5-.667 10 0 15 8.058 20.173 7.058 39.84-3 59a141.55 141.55 0 0 0-17 23L430.5 650c-9.951 3.206-19.951 3.206-30 0-35.571-13.908-64.404-36.408-86.5-67.5a79.183 79.183 0 0 1-8-19c-.706-4.387-.54-8.72.5-13 1.599-.268 2.932.066 4 1l-1 2c-1.447.634-2.113 1.801-2 3.5.028 1.07.361 1.903 1 2.5 5.45 19.237 16.116 34.904 32 47a30.039 30.039 0 0 0 4 5.5c3.62 3.467 7.62 6.3 12 8.5 3.501 4.162 7.835 7.162 13 9 4.207 4.272 9.207 7.272 15 9 11.076 7.633 23.41 11.133 37 10.5l8-2c.752-.671 1.086-1.504 1-2.5a1048.94 1048.94 0 0 0 25-28.5 47.987 47.987 0 0 1-11-2.5 132.493 132.493 0 0 1-38-15 144.8 144.8 0 0 0-5-4.5c-1.249-.74-2.249-.573-3 .5a71.94 71.94 0 0 1-11-9c.14-1.624-.527-2.79-2-3.5a2.428 2.428 0 0 1 2-.5 71.12 71.12 0 0 0 12 8c16.772 12.545 35.606 20.545 56.5 24l2.5-1a20.2 20.2 0 0 0-6-1.5 4.934 4.934 0 0 1 3-.5 9.108 9.108 0 0 0 5-1 10619.276 10619.276 0 0 1 90.5-110 19.177 19.177 0 0 0 2.5-5 294.69 294.69 0 0 1 21.5-23c.239-1.288-.261-2.288-1.5-3 1.291.237 2.291-.096 3-1-11.745-.253-23.745-2.753-36-7.5-34.863-15.871-63.363-39.371-85.5-70.5a96.07 96.07 0 0 1-7.5-17 2.428 2.428 0 0 1 .5-2c.708.881 1.542 1.547 2.5 2l1 2c1.898 7.475 5.564 13.809 11 19-.475 2.813.525 4.813 3 6a85.199 85.199 0 0 0 15 16c1.739 2.743 4.073 4.743 7 6a25.913 25.913 0 0 0 9 8 152.21 152.21 0 0 0 30 20c.342.838 1.008 1.172 2 1 6.788 4.392 14.122 7.725 22 10 1.208.734 2.541 1.067 4 1 7.878 2.944 15.878 3.444 24 1.5 13.38-10.937 22.047-24.77 26-41.5a59.497 59.497 0 0 0 .5-18 182.156 182.156 0 0 1-5.5-26c.412-11.824 4.912-21.824 13.5-30 5.369-14.412 12.536-27.745 21.5-40-1.419-.951-3.085-1.284-5-1-1.792.134-3.458-.199-5-1-7.778-3.118-14.778-7.451-21-13a86.078 86.078 0 0 1-11-14 514.367 514.367 0 0 1-4 3 25.194 25.194 0 0 1 3-5.5c-.13-1.059-.63-1.892-1.5-2.5-9.648 10.99-20.482 20.49-32.5 28.5-6.413 9.764-15.079 16.43-26 20-33.284-4.645-59.951 6.188-80 32.5h-3c19.272-27.296 45.606-38.796 79-34.5 5.112-.549 9.779-2.216 14-5a169.323 169.323 0 0 0 15-16l11-7c19.35-18.011 36.516-37.845 51.5-59.5-.004-3.692.996-7.025 3-10 2.999-4.192 6.666-7.859 11-11 3.413-7.006 7.913-13.173 13.5-18.5 7.809-.069 15.142 1.931 22 6 12.273 6.553 22.107 15.719 29.5 27.5a12.494 12.494 0 0 1 0 7 50.197 50.197 0 0 1-12.5 14z"/>
  <path fill="#454545" d="M601.5 419.5a1195.506 1195.506 0 0 1-5.5 18c-1.699 3.421-3.865 6.421-6.5 9a189.446 189.446 0 0 0 8.5-23c2.401-9.534 1.901-18.867-1.5-28 .113-2.549-.554-4.882-2-7 .603-1.135.936-2.135 1-3a195.912 195.912 0 0 0 5.5 18c.499 5.323.666 10.656.5 16z"/>
  <path fill="#444" d="M560.5 416.5a25.619 25.619 0 0 1 6 6c.61.891.943 1.891 1 3a45.728 45.728 0 0 1-7-9z"/>
  <path fill="#838383" d="M529.5 389.5a47.427 47.427 0 0 1 13 10 67.904 67.904 0 0 1-9-6c-1.003 2.042-2.337 2.375-4 1a7.248 7.248 0 0 0-2.5 2c-1.297-1.284-2.464-1.117-3.5.5l4 1a4.457 4.457 0 0 1-2 1.5c-1.216-.502-2.383-.835-3.5-1-.667 2.667-1.333 2.667-2 0a29.517 29.517 0 0 1-4.5 2.5l2 1c-1.42 1.53-2.42 3.363-3 5.5-1.232.645-2.565.811-4 .5 1.017 1.049 1.184 2.216.5 3.5l-1-1a40.943 40.943 0 0 1-5 7c-.617.949-.451 1.782.5 2.5-3.044.359-3.378 1.026-1 2-3.857 1.361-6.524 3.861-8 7.5a25.913 25.913 0 0 1-9-8 5.576 5.576 0 0 1 3 1c1.211-.774 1.211-1.607 0-2.5 1.884-.216 3.551-.883 5-2-.799-1.749-.132-3.082 2-4-2.267-1.081-2.434-2.581-.5-4.5l1 2a22.508 22.508 0 0 0 2-7c.667 2.667 1.333 2.667 2 0l1 2c.049-2.916 1.216-3.916 3.5-3a4.457 4.457 0 0 0 2-1.5c-1.017-1.049-1.184-2.216-.5-3.5 1.183 1.231 2.349 1.231 3.5 0-2.491-1.041-2.491-1.874 0-2.5l-1-3c1.759-2.271 3.759-3.271 6-3-1.333-2-1.333-4 0-6-1.208-.921-2.542-1.421-4-1.5.343-1.725 1.343-2.225 3-1.5a153.674 153.674 0 0 0 14 8.5z"/>
  <path fill="#383838" d="M542.5 399.5c2.589.919 4.589 2.586 6 5-2.589-.919-4.589-2.586-6-5z"/>
  <path fill="#727272" d="M512.5 382.5c1.458.079 2.792.579 4 1.5-1.333 2-1.333 4 0 6-2.241-.271-4.241.729-6 3l1 3c-2.491.626-2.491 1.459 0 2.5-1.151 1.231-2.317 1.231-3.5 0-.684 1.284-.517 2.451.5 3.5a4.457 4.457 0 0 1-2 1.5c-2.284-.916-3.451.084-3.5 3l-1-2c-.667 2.667-1.333 2.667-2 0a22.508 22.508 0 0 1-2 7l-1-2c-1.934 1.919-1.767 3.419.5 4.5-2.132.918-2.799 2.251-2 4-1.449 1.117-3.116 1.784-5 2 1.211.893 1.211 1.726 0 2.5a5.576 5.576 0 0 0-3-1c-2.927-1.257-5.261-3.257-7-6a44.093 44.093 0 0 0 2-3c3.569.639 5.736-1.028 6.5-5l1 4a176.05 176.05 0 0 1 2.5-8 10.258 10.258 0 0 1 1.5 4c.863-2.249.363-4.082-1.5-5.5 2.415-1.465 3.415-3.632 3-6.5h3c.284-2.377.284-4.544 0-6.5 2.928-1.26 4.761-3.427 5.5-6.5l1 1c2.071-2.916 3.405-2.582 4 1 .816-1.323 1.983-1.989 3.5-2z"/>
  <path fill="#949494" d="M542.5 399.5c1.411 2.414 3.411 4.081 6 5 1.667 1 3 2.333 4 4 1.613 1.338 2.113 3.005 1.5 5a459.141 459.141 0 0 1-23 28 47.848 47.848 0 0 0-4.5 8 152.21 152.21 0 0 1-30-20c1.476-3.639 4.143-6.139 8-7.5-2.378-.974-2.044-1.641 1-2-.951-.718-1.117-1.551-.5-2.5a40.943 40.943 0 0 0 5-7l1 1c.684-1.284.517-2.451-.5-3.5 1.435.311 2.768.145 4-.5.58-2.137 1.58-3.97 3-5.5l-2-1a29.517 29.517 0 0 0 4.5-2.5c.667 2.667 1.333 2.667 2 0 1.117.165 2.284.498 3.5 1a4.457 4.457 0 0 0 2-1.5l-4-1c1.036-1.617 2.203-1.784 3.5-.5a7.248 7.248 0 0 1 2.5-2c1.663 1.375 2.997 1.042 4-1a67.904 67.904 0 0 0 9 6z"/>
  <path fill="#606060" d="M505.5 374.5a184.748 184.748 0 0 1 16 8.5 53.622 53.622 0 0 1 8 6.5 153.674 153.674 0 0 1-14-8.5c-1.657-.725-2.657-.225-3 1.5-1.517.011-2.684.677-3.5 2-.595-3.582-1.929-3.916-4-1l-1-1c-.739 3.073-2.572 5.24-5.5 6.5.284 1.956.284 4.123 0 6.5h-3c.415 2.868-.585 5.035-3 6.5 1.863 1.418 2.363 3.251 1.5 5.5a10.258 10.258 0 0 0-1.5-4 176.05 176.05 0 0 0-2.5 8l-1-4c-.764 3.972-2.931 5.639-6.5 5a44.093 44.093 0 0 1-2 3 85.199 85.199 0 0 1-15-16c4.392-6.236 9.392-12.07 15-17.5 10.266 4.751 18.599 2.251 25-7.5z"/>
  <path fill="#242424" d="M569.5 320.5h1c7.939 9.967 17.939 16.967 30 21 2.405 1.268 5.072 1.935 8 2 1.125 1.152 1.125 2.152 0 3-14.969-4.448-27.802-12.448-38.5-24a2.428 2.428 0 0 1-.5-2z"/>
  <path fill="#838383" d="M563.5 312.5a27.68 27.68 0 0 1 6 8 2.428 2.428 0 0 0 .5 2c10.698 11.552 23.531 19.552 38.5 24a5.727 5.727 0 0 0-3 1c-.342-.838-1.008-1.172-2-1a47.386 47.386 0 0 1-12-5c-8.455-4.273-15.955-9.94-22.5-17-3.342-3.657-5.175-7.657-5.5-12z"/>
  <path fill="#bfbfbf" d="M624.5 305.5c1.542.801 3.208 1.134 5 1a212.163 212.163 0 0 0-19 34l-2 3c-2.928-.065-5.595-.732-8-2 3.231-.598 3.564-1.764 1-3.5 2.415-1.465 3.415-3.632 3-6.5 1.175.219 2.175-.114 3-1 6.308-7.164 11.974-14.664 17-22.5-1.098-.77-1.098-1.603 0-2.5z"/>
  <path fill="#707070" d="M547.5 336.5c-1.478.262-2.811-.071-4-1 5.924-3.257 10.924-7.59 15-13 .768-.763 1.268-1.763 1.5-3 .635 2.135.301 4.135-1 6a174.149 174.149 0 0 1-11.5 11z"/>
  <path fill="#6c6c6c" d="M481.5 335.5c5.921-4.315 12.588-6.148 20-5.5a218.923 218.923 0 0 0-20 5.5z"/>
  <path fill="#404040" d="M629.5 306.5c1.915-.284 3.581.049 5 1-1.644-.214-3.144.12-4.5 1a423.9 423.9 0 0 0-19 34 2.428 2.428 0 0 1-.5-2 212.163 212.163 0 0 1 19-34z"/>
  <path fill="#434343" d="M537.5 326.5c-1.976 1.511-4.309 2.344-7 2.5-9.333.667-18.667.667-28 0a266.57 266.57 0 0 0 35-2.5z"/>
  <path fill="#424242" d="M540.5 324.5c-.473 1.406-1.473 2.073-3 2 .473-1.406 1.473-2.073 3-2z"/>
  <path fill="#393939" d="M557.5 308.5a32.295 32.295 0 0 1-9 10 34.482 34.482 0 0 1-8 6 96.558 96.558 0 0 1 17-16z"/>
  <path fill="#555" d="M606.5 288.5a251.055 251.055 0 0 1 16 11.5c5.047 1.67 10.047 3.337 15 5-8.502.5-16.169-1.833-23-7a101.245 101.245 0 0 1-9-7.5c.838-.342 1.172-1.008 1-2z"/>
  <path fill="#4d4c4d" d="m570.5 298.5 1 2a42.992 42.992 0 0 1-9.5 5c-.384 1.697-.218 3.363.5 5-1.32-1.442-2.986-2.108-5-2 3.314-4.509 7.648-7.843 13-10z"/>
  <path fill="#eaebeb" d="M603.5 292.5c6.222 5.549 13.222 9.882 21 13-1.098.897-1.098 1.73 0 2.5-5.026 7.836-10.692 15.336-17 22.5-.825.886-1.825 1.219-3 1 .415 2.868-.585 5.035-3 6.5 2.564 1.736 2.231 2.902-1 3.5-12.061-4.033-22.061-11.033-30-21 2.562-.68 5.229-.847 8-.5a984.211 984.211 0 0 0 25-27.5z"/>
  <path fill="#929292" d="M588.5 281.5c.862.89 1.362 1.89 1.5 3a74.464 74.464 0 0 0-9.5 10.5 2.428 2.428 0 0 1-2 .5 26.707 26.707 0 0 1-7 5l-1-2c5.947-5.611 11.947-11.278 18-17z"/>
  <path fill="#e1e1e1" d="M578.5 295.5a2.428 2.428 0 0 1-2-.5l4.5-4.5c-.058 1.935-.891 3.602-2.5 5z"/>
  <path fill="white" d="M603.5 292.5a984.211 984.211 0 0 1-25 27.5c-2.771-.347-5.438-.18-8 .5h-1a27.68 27.68 0 0 0-6-8c.172-.992-.162-1.658-1-2-.718-1.637-.884-3.303-.5-5a42.992 42.992 0 0 0 9.5-5 26.707 26.707 0 0 0 7-5 2.428 2.428 0 0 0 2-.5 74.464 74.464 0 0 1 9.5-10.5c-.138-1.11-.638-2.11-1.5-3a514.367 514.367 0 0 0 4-3 86.078 86.078 0 0 0 11 14z"/>
  <path fill="#464646" d="M598.5 277.5c2.087 1.085 3.42 2.751 4 5-2.087-1.085-3.42-2.751-4-5z"/>
  <path fill="#dbdbdb" d="M595.5 272.5c.25 2.174 1.25 3.841 3 5 .58 2.249 1.913 3.915 4 5a18.33 18.33 0 0 0 4 6c.172.992-.162 1.658-1 2-7.126-5.055-11.126-11.722-12-20a31.147 31.147 0 0 0 2 2z"/>
  <path fill="#5b5a5b" d="m639.5 253.5 6 4c-4.437 5.3-8.27 10.633-11.5 16-.853 1.625-1.853 1.958-3 1-2.172 6.284-6.339 11.784-12.5 16.5-.299 1.073-.299 2.24 0 3.5-1.527.073-2.527-.594-3-2a4.934 4.934 0 0 1 .5-3c1.509-2.21 3.342-4.043 5.5-5.5l-1-1c1.817-1.8 2.984-3.966 3.5-6.5a23.65 23.65 0 0 1 3.5-3 3.647 3.647 0 0 0-1-1.5c2.684-3.067 5.35-5.4 8-7-.837-1.011-1.17-2.178-1-3.5a8.43 8.43 0 0 0 4-.5c-.546-2.643.12-5.143 2-7.5z"/>
  <path fill="#7f7f7f" d="m636.5 251.5 3 2c-1.88 2.357-2.546 4.857-2 7.5a8.43 8.43 0 0 1-4 .5c-.17 1.322.163 2.489 1 3.5-2.65 1.6-5.316 3.933-8 7 .457.414.791.914 1 1.5a23.65 23.65 0 0 0-3.5 3c-.516 2.534-1.683 4.7-3.5 6.5l1 1c-2.158 1.457-3.991 3.29-5.5 5.5a4.934 4.934 0 0 0-.5 3c-2.254-.624-3.921-1.957-5-4 1.453-1.325 1.119-2.158-1-2.5a9.454 9.454 0 0 0 1.5-2.5c.667 1.333 1.333 1.333 2 0a252.694 252.694 0 0 0 4.5-10c7.007-4.178 11.507-9.844 13.5-17 1.073.78 2.24.613 3.5-.5-.336-1.629.33-3.129 2-4.5z"/>
  <path fill="#3f3f3f" d="M595.5 272.5c1.75 1.159 2.75 2.826 3 5-1.75-1.159-2.75-2.826-3-5z"/>
  <path fill="#b3b3b3" d="m632.5 248.5 4 3c-1.67 1.371-2.336 2.871-2 4.5-1.26 1.113-2.427 1.28-3.5.5-1.993 7.156-6.493 12.822-13.5 17a252.694 252.694 0 0 1-4.5 10c-.667 1.333-1.333 1.333-2 0a9.454 9.454 0 0 1-1.5 2.5c2.119.342 2.453 1.175 1 2.5-2-.667-3.333-2-4-4-.111-.617-.444-1.117-1-1.5 1.393-1.171 2.227-2.671 2.5-4.5 1.74-1.216 2.74-2.882 3-5 5.163-2.795 8.163-7.129 9-13 4.203-2.46 8.37-5.626 12.5-9.5-1.098-.77-1.098-1.603 0-2.5z"/>
  <path fill="#434343" d="M645.5 257.5c5.785 3.707 12.118 6.041 19 7 1.001 1.289.834 2.622-.5 4a466.18 466.18 0 0 0-24.5 33c-8.043.813-15.043-1.52-21-7-.299-1.26-.299-2.427 0-3.5 6.161-4.716 10.328-10.216 12.5-16.5 1.147.958 2.147.625 3-1 3.23-5.367 7.063-10.7 11.5-16z"/>
  <path fill="#474747" d="M647.5 247.5c7.085 5.709 15.085 9.542 24 11.5 1.333 1.667 1.333 3.333 0 5-2.31.497-4.643.663-7 .5a177.514 177.514 0 0 1-16-7.5c-1.593-.949-2.926-2.115-4-3.5-.111-.617-.444-1.117-1-1.5 2.251-.748 3.584-2.248 4-4.5z"/>
  <path fill="#868686" d="M644.5 246.5a5.727 5.727 0 0 1 3 1c-.416 2.252-1.749 3.752-4 4.5.556.383.889.883 1 1.5-5.82-2.148-10.486-5.814-14-11 .397-1.025 1.063-1.192 2-.5l6.5 6.5 1-2c1.299.466 2.799.466 4.5 0z"/>
  <path fill="#464646" d="M657.5 242.5a24.598 24.598 0 0 1 10 5.5 284.29 284.29 0 0 0 13 3.5l-6 7a210.731 210.731 0 0 1-11-3.5c-5.197-2.092-9.864-4.926-14-8.5 1.702-3.025 4.369-4.359 8-4z"/>
  <path fill="#6f6f6f" d="M649.5 236.5a35.916 35.916 0 0 1 8 6c-3.631-.359-6.298.975-8 4-2.254-.624-3.921-1.957-5-4 .973-2.635 2.64-4.635 5-6z"/>
  <path fill="#e2e2e2" d="M632.5 248.5c-1.098.897-1.098 1.73 0 2.5-4.13 3.874-8.297 7.04-12.5 9.5-.837 5.871-3.837 10.205-9 13-.26 2.118-1.26 3.784-3 5-.273 1.829-1.107 3.329-2.5 4.5.556.383.889.883 1 1.5l-4-2c-.58-2.249-1.913-3.915-4-5-.25-2.174-1.25-3.841-3-5a29.812 29.812 0 0 1-.5-5 974.374 974.374 0 0 0 26-33 77.418 77.418 0 0 0 11.5 14z"/>
  <path fill="#acacac" d="M646.5 234.5c1.527-.073 2.527.594 3 2-2.36 1.365-4.027 3.365-5 6-1.21-.432-2.21-1.099-3-2 .832-.829.499-1.662-1-2.5a27.227 27.227 0 0 1 6-3.5z"/>
  <path fill="#696969" d="M664.5 219.5h3c1.256-.039 2.256.461 3 1.5-2.391.691-2.391 1.691 0 3a7463.33 7463.33 0 0 1-12 14 2.428 2.428 0 0 1-2 .5c-1-.333-1.667-1-2-2a43.836 43.836 0 0 0-1-2c1.363-1.393 2.196-3.059 2.5-5a6.978 6.978 0 0 1 3.5-2.5c-.466-1.299-.466-2.799 0-4.5 2.489.259 4.156-.741 5-3z"/>
  <path fill="#d1d1d1" d="M644.5 246.5c-1.701.466-3.201.466-4.5 0l-1 2-6.5-6.5c-.937-.692-1.603-.525-2 .5-5.215-4.099-8.049-9.432-8.5-16a14.972 14.972 0 0 1 3.5-3 46.928 46.928 0 0 1 4.5 8 103.076 103.076 0 0 0 14.5 15z"/>
  <path fill="#999" d="m661.5 217.5 3 2c-.844 2.259-2.511 3.259-5 3-.466 1.701-.466 3.201 0 4.5a6.978 6.978 0 0 0-3.5 2.5c-.304 1.941-1.137 3.607-2.5 5 .363.683.696 1.35 1 2-3.391-1.029-6.057-3.029-8-6 .996.086 1.829-.248 2.5-1a219.87 219.87 0 0 0 10-13c.671.752 1.504 1.086 2.5 1z"/>
  <path fill="#ddd" d="M646.5 234.5a27.227 27.227 0 0 0-6 3.5c1.499.838 1.832 1.671 1 2.5-5.924-4.504-10.424-10.171-13.5-17-.07-3.535 1.263-6.535 4-9a86.331 86.331 0 0 0 14.5 20z"/>
  <path fill="#dcdcdc" d="M649.5 202.5c.853 3.52 2.853 6.187 6 8l6 7c-.996.086-1.829-.248-2.5-1a219.87 219.87 0 0 1-10 13c-.671.752-1.504 1.086-2.5 1-6.079-3.993-10.079-9.493-12-16.5a71.923 71.923 0 0 1 12-17.5c.708 2.245 1.708 4.245 3 6z"/>
  <path fill="#cbcbc9" d="M658.5 211.5c3.6 1.93 6.6 4.597 9 8h-2l-7-8z"/>
  <path fill="#3f3f3d" d="M655.5 210.5a5.727 5.727 0 0 1 3 1l7 8h-1l-3-2-6-7z"/>
  <path fill="#dfdfde" d="M658.5 209.5v2a5.727 5.727 0 0 0-3-1 35.23 35.23 0 0 0-6-8 4.934 4.934 0 0 1 .5-3 86.253 86.253 0 0 0 8.5 10z"/>
  <path fill="#ececec" d="M695.5 228.5c-1.788 1.122-3.788 1.289-6 .5-11.548-4.743-21.881-11.243-31-19.5-2.706-4.886-6.039-9.386-10-13.5a12.494 12.494 0 0 1 7 0c5.12 2.06 10.12 4.393 15 7 10.567 6.4 18.901 14.9 25 25.5z"/>
  <path fill="#2b2b2b" d="M649.5 202.5a35.23 35.23 0 0 1 6 8c-3.147-1.813-5.147-4.48-6-8z"/>
  <path fill="#3f3f3f" d="M491.5 432.5c1.904.238 3.238 1.238 4 3h-2l-2-3z"/>
  <path fill="#c1c1c1" d="M560.5 416.5a45.728 45.728 0 0 0 7 9 82.343 82.343 0 0 0 4 7.5 272.635 272.635 0 0 0-21 27.5c-7.878-2.275-15.212-5.608-22-10a27765.182 27765.182 0 0 0 29-36c1.018.693 2.018 1.359 3 2z"/>
  <path fill="#3b3b3b" d="M502.5 440.5c3.525 1.259 6.525 3.259 9 6-3.549-1.223-6.549-3.223-9-6z"/>
  <path fill="#575757" d="M552.5 408.5c3.667 1.667 6.333 4.333 8 8a185.977 185.977 0 0 1-3-2 27765.182 27765.182 0 0 1-29 36c-.992.172-1.658-.162-2-1a47.848 47.848 0 0 1 4.5-8 459.141 459.141 0 0 0 23-28c.613-1.995.113-3.662-1.5-5z"/>
  <path fill="#d5d5d5" d="m485.5 429.5 6 3 2 3c-1.934 1.797-4.267 2.797-7 3a6.846 6.846 0 0 1-1 4 232.286 232.286 0 0 0-7.5 8 18.453 18.453 0 0 0-.5 6c-2.181-.216-3.847.617-5 2.5 1.154.914.987 1.747-.5 2.5l-1-1c-2.425 2.322-4.091 4.655-5 7l-1-2c-.277 4.277-2.444 7.111-6.5 8.5 1.017 1.049 1.184 2.216.5 3.5a11.494 11.494 0 0 0-3.5 5c-.925 1.141-1.759 1.141-2.5 0-2.034 1.243-2.867 2.743-2.5 4.5-2.31.497-4.643.663-7 .5-1.093 5.625-4.093 10.125-9 13.5l1 1c-1.049.492-2.049.326-3-.5-.054 1.03-.388 2.197-1 3.5a8.43 8.43 0 0 1-4 .5 6.846 6.846 0 0 1-1 4 134.216 134.216 0 0 1-10.5 9c-.617.949-.451 1.782.5 2.5-1.82 1.805-2.986 3.972-3.5 6.5a9.454 9.454 0 0 1-2.5 1.5l1 1c-1.049.492-2.049.326-3-.5-.952 1.545-1.285 3.212-1 5-2.861.013-3.861 1.179-3 3.5a26.67 26.67 0 0 0-1.5 6.5c-1.073-.78-2.24-.613-3.5.5l2 1c-1.544.29-2.877.956-4 2 2.209.957 2.043 2.124-.5 3.5l-1-1c-2.001 5.72-5.835 9.554-11.5 11.5 4.012 1.803 3.678 2.803-1 3l4 1c-3.984.142-6.65 1.975-8 5.5-1.398-1.609-3.065-2.442-5-2.5 1.289 1.802 2.956 2.969 5 3.5.437 1.574 1.437 2.741 3 3.5-.228.399-.562.565-1 .5-16.114-10.779-29.114-24.445-39-41-.091-2.198.575-2.531 2-1-.073 1.527.594 2.527 2 3-.073 1.527.594 2.527 2 3-.073 1.527.594 2.527 2 3 .919 2.589 2.586 4.589 5 6 2.936 4.605 6.602 8.605 11 12 1.411 2.414 3.411 4.081 6 5 3.65.994 3.65.16 0-2.5 4.535.645 6.869-1.521 7-6.5h4a12.93 12.93 0 0 1 .5-5 25.6 25.6 0 0 1 5.5-5l-2-1c.683-2.961 1.516-3.295 2.5-1a31.095 31.095 0 0 1 5.5-7.5l-1-1c1.052-1.119 2.219-1.619 3.5-1.5a8.905 8.905 0 0 1 3-4l1-5c9.411-9.508 18.911-18.008 28.5-25.5-2.391-.691-2.391-1.691 0-3 1.595.617 2.928.284 4-1-.951-.718-1.117-1.551-.5-2.5a12.14 12.14 0 0 0 4.5-3.5c-.388-1.808-.388-3.475 0-5 1.249-1.824 2.415-1.657 3.5.5l2-2c-.42-2.606-.086-5.272 1-8 1.827-1.654 3.66-2.488 5.5-2.5a3.647 3.647 0 0 1-1-1.5 28.043 28.043 0 0 0 1.5-5 10.258 10.258 0 0 0 1.5 4c1.771-.535 2.104-1.369 1-2.5a37.138 37.138 0 0 0 2-4.5c1.189-.929 2.522-1.262 4-1v-6c4.644-2.159 7.81-5.826 9.5-11a656.79 656.79 0 0 0 7.5-7c.929-1.189 1.262-2.522 1-4h5c-.14-1.624.527-2.79 2-3.5-.556-.383-.889-.883-1-1.5l2-1z"/>
  <path fill="#535353" d="m567.5 425.5 3 2a79.523 79.523 0 0 1 9 22 8.43 8.43 0 0 1-.5 4 255.444 255.444 0 0 1-4.5-15 4.934 4.934 0 0 0-3 .5 127.073 127.073 0 0 0-17 22.5c-1.459.067-2.792-.266-4-1a272.635 272.635 0 0 1 21-27.5 82.343 82.343 0 0 1-4-7.5z"/>
  <path fill="#bebebe" d="M493.5 435.5h2c.641.982 1.307 1.982 2 3a185.977 185.977 0 0 0-2 3c-2.89.027-3.89 1.193-3 3.5-4.408 1.371-6.741 4.038-7 8a8.905 8.905 0 0 0-4 3c-.739 1.765-.739 3.765 0 6-1.75 1.319-3.75 1.819-6 1.5-.166 2.668-1.166 5.002-3 7-.825.886-1.825 1.219-3 1-1.006 4.678-3.506 8.344-7.5 11-.574 2.821-1.908 5.154-4 7-2.14 1.228-3.807 2.895-5 5-.805-2.401-1.638-2.234-2.5.5-4.701.386-7.201 3.22-7.5 8.5-2.845 2.841-4.345 6.008-4.5 9.5-1.249 1.824-2.415 1.657-3.5-.5a36.078 36.078 0 0 1-3.5 4.5c2.779.149 3.279.983 1.5 2.5l-1-1a15.256 15.256 0 0 1-4.5 1.5l4 2-6 3 2 1c-5.375 1.565-7.375 4.565-6 9-.862 2.734-1.695 2.901-2.5.5-.823 6.634-1.323 6.634-1.5 0-2.608.106-4.608 1.272-6 3.5l1 1c-1.325-.148-2.492.018-3.5.5-2.656 3.301-4.822 6.968-6.5 11-4.417 3.228-8.084 6.562-11 10 .928 1.268 1.095 2.601.5 4-2.249 3.644-5.083 6.644-8.5 9l-4-2v-1c1.35-3.525 4.016-5.358 8-5.5l-4-1c4.678-.197 5.012-1.197 1-3 5.665-1.946 9.499-5.78 11.5-11.5l1 1c2.543-1.376 2.709-2.543.5-3.5 1.123-1.044 2.456-1.71 4-2l-2-1c1.26-1.113 2.427-1.28 3.5-.5a26.67 26.67 0 0 1 1.5-6.5c-.861-2.321.139-3.487 3-3.5-.285-1.788.048-3.455 1-5 .951.826 1.951.992 3 .5l-1-1a9.454 9.454 0 0 0 2.5-1.5c.514-2.528 1.68-4.695 3.5-6.5-.951-.718-1.117-1.551-.5-2.5a134.216 134.216 0 0 0 10.5-9 6.846 6.846 0 0 0 1-4 8.43 8.43 0 0 0 4-.5c.612-1.303.946-2.47 1-3.5.951.826 1.951.992 3 .5l-1-1c4.907-3.375 7.907-7.875 9-13.5 2.357.163 4.69-.003 7-.5-.367-1.757.466-3.257 2.5-4.5.741 1.141 1.575 1.141 2.5 0a11.494 11.494 0 0 1 3.5-5c.684-1.284.517-2.451-.5-3.5 4.056-1.389 6.223-4.223 6.5-8.5l1 2c.909-2.345 2.575-4.678 5-7l1 1c1.487-.753 1.654-1.586.5-2.5 1.153-1.883 2.819-2.716 5-2.5a18.453 18.453 0 0 1 .5-6 232.286 232.286 0 0 1 7.5-8 6.846 6.846 0 0 0 1-4c2.733-.203 5.066-1.203 7-3z"/>
  <path fill="#9d9d9d" d="M601.5 419.5c1.272-.458 2.272.209 3 2-3.953 16.73-12.62 30.563-26 41.5-8.122 1.944-16.122 1.444-24-1.5a127.073 127.073 0 0 1 17-22.5 4.934 4.934 0 0 1 3-.5 255.444 255.444 0 0 0 4.5 15 8.43 8.43 0 0 0 .5-4c.65 1.947 1.817 3.613 3.5 5a65.342 65.342 0 0 0 6.5-8c2.635-2.579 4.801-5.579 6.5-9a1195.506 1195.506 0 0 0 5.5-18z"/>
  <path fill="#dadada" d="M447.5 372.5a96.07 96.07 0 0 0 7.5 17c22.137 31.129 50.637 54.629 85.5 70.5 12.255 4.747 24.255 7.247 36 7.5-14.018 1.053-27.351-1.447-40-7.5l-15-7.5a48.22 48.22 0 0 0-10-6c-2.475-2.741-5.475-4.741-9-6a26.175 26.175 0 0 0-7-5c-.762-1.762-2.096-2.762-4-3-1.391-2.39-3.391-4.057-6-5-2.069-3.073-4.736-5.406-8-7-2-1.333-3.667-3-5-5-2.601-4.271-5.934-7.937-10-11-.58-2.249-1.913-3.915-4-5 .073-1.527-.594-2.527-2-3-1.75-1.159-2.75-2.826-3-5 .073-1.527-.594-2.527-2-3-2.045-1.423-3.045-3.423-3-6a151.744 151.744 0 0 1-5-18.5c1.1-.432 1.767.068 2 1.5.429 2.529 1.096 4.862 2 7z"/>
  <path fill="#adadad" d="M460.5 499.5c-.578-1.943-1.578-2.277-3-1-.698 2.99-2.365 5.823-5 8.5-1.435-.311-2.768-.145-4 .5-1.361 5.197-4.694 8.03-10 8.5l1 3c-2.606 1.938-4.439 4.438-5.5 7.5l-1-2a34.099 34.099 0 0 1-3 6c-4.126-1.396-4.459-.73-1 2 .718-.951 1.551-1.117 2.5-.5-1.123 1.044-2.456 1.71-4 2a12.14 12.14 0 0 1-3.5 4.5l-1-1c-.442 2.179-1.442 2.845-3 2-.311 1.242.189 2.242 1.5 3-.535 1.771-1.369 2.104-2.5 1-2.734.862-2.901 1.695-.5 2.5-2.179.442-2.845 1.442-2 3-5.025-.31-8.525 1.856-10.5 6.5-.149-2.779-.983-3.279-2.5-1.5l1 1a15.256 15.256 0 0 0-1.5 4.5c-.914-1.154-1.747-.987-2.5.5l2 3c-2.021.513-3.521 1.68-4.5 3.5-1.558-.845-2.558-.179-3 2-.914-1.154-1.747-.987-2.5.5-.481 2.347-1.981 4.513-4.5 6.5l-1-1c-.47 1.077-.303 2.077.5 3-1.904-.238-3.238-1.238-4-3 3.417-2.356 6.251-5.356 8.5-9 .595-1.399.428-2.732-.5-4 2.916-3.438 6.583-6.772 11-10 1.678-4.032 3.844-7.699 6.5-11 1.008-.482 2.175-.648 3.5-.5l-1-1c1.392-2.228 3.392-3.394 6-3.5.177 6.634.677 6.634 1.5 0 .805 2.401 1.638 2.234 2.5-.5-1.375-4.435.625-7.435 6-9l-2-1 6-3-4-2a15.256 15.256 0 0 0 4.5-1.5l1 1c1.779-1.517 1.279-2.351-1.5-2.5a36.078 36.078 0 0 0 3.5-4.5c1.085 2.157 2.251 2.324 3.5.5.155-3.492 1.655-6.659 4.5-9.5.299-5.28 2.799-8.114 7.5-8.5.862-2.734 1.695-2.901 2.5-.5 1.193-2.105 2.86-3.772 5-5 2.092-1.846 3.426-4.179 4-7 3.994-2.656 6.494-6.322 7.5-11 1.175.219 2.175-.114 3-1 1.834-1.998 2.834-4.332 3-7 2.25.319 4.25-.181 6-1.5-.739-2.235-.739-4.235 0-6a8.905 8.905 0 0 1 4-3c.259-3.962 2.592-6.629 7-8-.89-2.307.11-3.473 3-3.5a98.36 98.36 0 0 0 6 0 14.603 14.603 0 0 0-.5 7c-1 1.333-2 1.333-3 0a66.06 66.06 0 0 0-5 8c-1.566-.561-2.899.106-4 2-2.435 1.937-2.602 3.77-.5 5.5-1.937 2.435-3.77 2.602-5.5.5a9.454 9.454 0 0 1-1.5 2.5c3.745 2.496 3.078 3.663-2 3.5v5c-3.426-.15-3.759 1.016-1 3.5l-5 1 1 1a40.658 40.658 0 0 0-8 7l1 3c-1.801.317-2.134.984-1 2a11.38 11.38 0 0 1-2 2.5 7.492 7.492 0 0 1-.5-5 9.454 9.454 0 0 1-2.5 1.5c-.176 1.66.491 3.326 2 5a10.515 10.515 0 0 1-3 2.5z"/>
  <path fill="#e6e6e6" d="M483.5 430.5c.111.617.444 1.117 1 1.5-1.473.71-2.14 1.876-2 3.5h-5c.262 1.478-.071 2.811-1 4a656.79 656.79 0 0 1-7.5 7c-1.69 5.174-4.856 8.841-9.5 11v6c-1.478-.262-2.811.071-4 1a37.138 37.138 0 0 1-2 4.5c1.104 1.131.771 1.965-1 2.5a10.258 10.258 0 0 1-1.5-4 28.043 28.043 0 0 1-1.5 5 3.647 3.647 0 0 0 1 1.5c-1.84.012-3.673.846-5.5 2.5-1.086 2.728-1.42 5.394-1 8l-2 2c-1.085-2.157-2.251-2.324-3.5-.5-.388 1.525-.388 3.192 0 5a12.14 12.14 0 0 1-4.5 3.5c-.617.949-.451 1.782.5 2.5-1.072 1.284-2.405 1.617-4 1-2.391 1.309-2.391 2.309 0 3-9.589 7.492-19.089 15.992-28.5 25.5l-1 5a8.905 8.905 0 0 0-3 4c-1.281-.119-2.448.381-3.5 1.5l1 1a31.095 31.095 0 0 0-5.5 7.5c-.984-2.295-1.817-1.961-2.5 1l2 1a25.6 25.6 0 0 0-5.5 5 12.93 12.93 0 0 0-.5 5h-4c-.131 4.979-2.465 7.145-7 6.5 3.65 2.66 3.65 3.494 0 2.5l-4-5a146.475 146.475 0 0 0 10.5-10l1-6c3.951-2.155 6.284-5.488 7-10 2.95.732 4.45-.601 4.5-4h3c3.529-8.843 9.362-16.843 17.5-24a4.934 4.934 0 0 0 .5-3c5.645-2.147 9.478-6.147 11.5-12l1 1a10.756 10.756 0 0 1 2.5-3c-.368-2.006.132-4.006 1.5-6l1 2c3.958-2.584 5.792-6.25 5.5-11h6a34.455 34.455 0 0 1 2.5-11c.667 2.667 1.333 2.667 2 0a4.457 4.457 0 0 0 1.5 2c.169-.897.502-1.897 1-3 1.826.42 3.826.42 6 0-.077-3.009 1.256-5.176 4-6.5l-1-1c1.902-.199 3.402-1.033 4.5-2.5.852-3.555 1.519-6.888 2-10a7.293 7.293 0 0 1 2 3 119.908 119.908 0 0 0 11.5-14.5l6-1.5z"/>
  <path fill="#f4f4f4" d="m470.5 414.5 2 1c1.333 2 3 3.667 5 5 2.069 3.073 4.736 5.406 8 7v2l-2 1-6 1.5a119.908 119.908 0 0 1-11.5 14.5 7.293 7.293 0 0 0-2-3c-.481 3.112-1.148 6.445-2 10-1.098 1.467-2.598 2.301-4.5 2.5l1 1c-2.744 1.324-4.077 3.491-4 6.5-2.174.42-4.174.42-6 0-.498 1.103-.831 2.103-1 3a4.457 4.457 0 0 1-1.5-2c-.667 2.667-1.333 2.667-2 0a34.455 34.455 0 0 0-2.5 11h-6c.292 4.75-1.542 8.416-5.5 11l-1-2c-1.368 1.994-1.868 3.994-1.5 6a10.756 10.756 0 0 0-2.5 3l-1-1c-2.022 5.853-5.855 9.853-11.5 12a4.934 4.934 0 0 1-.5 3c-8.138 7.157-13.971 15.157-17.5 24h-3c-.05 3.399-1.55 4.732-4.5 4-.716 4.512-3.049 7.845-7 10l-1 6a146.475 146.475 0 0 1-10.5 10h-2a44.91 44.91 0 0 0-7-9c.813-1.153 1.813-1.153 3 0 4.134-3.289 6.134-7.623 6-13 2.05-.577 3.05-1.91 3-4 1.322.17 2.489-.163 3.5-1 .212-2.28 1.045-4.28 2.5-6l-2-2a22.725 22.725 0 0 0 7-3l2 2c1.211-.774 1.211-1.607 0-2.5a222.1 222.1 0 0 0 9.5-10.5c.464-5.675 1.131-6.008 2-1 1.924-2.931 4.257-5.597 7-8a29.62 29.62 0 0 1 7-11c.464-5.675 1.131-6.008 2-1a19.276 19.276 0 0 1 4.5-8 249.22 249.22 0 0 1 15-16.5c2.177-1.202 4.511-1.702 7-1.5.149-6.607 2.482-12.273 7-17 5.115-.421 6.782-2.921 5-7.5a122.201 122.201 0 0 0 18.5-16.5c.003-2.532-.497-5.032-1.5-7.5l.5-2.5c.977 1.274 1.811 1.274 2.5 0z"/>
  <path fill="#747474" d="M511.5 446.5a48.22 48.22 0 0 1 10 6c4.103 3.561 8.77 6.394 14 8.5a47.69 47.69 0 0 0-7 5.5c1.952.603 3.952.27 6-1a9.86 9.86 0 0 1 1 6 8.43 8.43 0 0 0-4 .5c.466 1.299.466 2.799 0 4.5-4.68.071-7.347 2.071-8 6a4.457 4.457 0 0 1-1.5-2 18.117 18.117 0 0 1-4.5 5.5c2.284 1.363 2.451 2.863.5 4.5-.667-2-2-3.333-4-4-.456 1.244.044 2.077 1.5 2.5l-3 1c1.247 1.494 1.247 2.994 0 4.5a3.647 3.647 0 0 1-1.5-1c-.667 8-1.333 8-2 0a4.934 4.934 0 0 0-.5 3c-5.294.182-5.294.682 0 1.5a7.293 7.293 0 0 1-3 2l3 1a390.273 390.273 0 0 0-14.5 14.5c-1.012-2.364-2.345-3.698-4-4a11.333 11.333 0 0 1-3.5 1.5l2 1a8.905 8.905 0 0 1-4 3c3.867 1.987 3.867 2.487 0 1.5-2.541 2.409-3.874 5.076-4 8-1.638 1.458-3.305 1.792-5 1-1.832 1.798-2.165 3.632-1 5.5-.753 1.487-1.586 1.654-2.5.5-.317 1.801-.984 2.134-2 1l-1 3-1-1c-1.564 2.165-1.397 3.832.5 5-1.922 1.687-3.755 2.687-5.5 3a21.438 21.438 0 0 1 0 5c-1.016-1.134-1.683-.801-2 1-1.085-2.157-2.251-2.324-3.5-.5 2.528 1.017 2.528 2.184 0 3.5.985 1.598 1.151 3.265.5 5a6.802 6.802 0 0 0-1.5-3 19.883 19.883 0 0 0-2.5 8c-.497-7.003-1.163-7.337-2-1-1.316 2.528-2.483 2.528-3.5 0a4.457 4.457 0 0 0-2 1.5v3c-2.215.388-3.548 1.388-4 3 2.429.451 2.596 1.285.5 2.5l-2-2c.365 5.006-1.302 6.673-5 5-.456 1.244.044 2.077 1.5 2.5-2.675 1.629-5.342 3.963-8 7l2 1c-2.557.685-4.391 2.185-5.5 4.5-.317-1.801-.984-2.134-2-1a20.64 20.64 0 0 0-2 6c-1 1.333-2 1.333-3 0-.47 1.077-.303 2.077.5 3a58.88 58.88 0 0 1-9-5c4.262-.693 4.595-1.526 1-2.5a165.413 165.413 0 0 1 14-13l-1-1c2.179-.442 2.845-1.442 2-3l1.5-1.5c1.68 1.103 3.18.77 4.5-1-2.283-1.986-1.616-3.153 2-3.5-1.333-.667-1.333-1.333 0-2 .949-.617 1.782-.451 2.5.5.667-1 .667-2 0-3-.654 1.196-1.154 1.196-1.5 0 1.797-2.252 4.13-3.252 7-3 .392-2.646.392-5.146 0-7.5a11.532 11.532 0 0 0 3.5-4.5c.423 1.456 1.256 1.956 2.5 1.5a3.647 3.647 0 0 1-1-1.5c1.697-.864 2.863-2.197 3.5-4l1 1c.667-4 1.333-4 2 0a38.852 38.852 0 0 1 1.5-7c1.189-.929 2.522-1.262 4-1a4.934 4.934 0 0 0-.5-3c-.654 1.196-1.154 1.196-1.5 0 1.545-1.94 3.545-3.106 6-3.5-1.211-.893-1.211-1.726 0-2.5a4.457 4.457 0 0 1 1.5 2c2.257-2.457 3.257-5.124 3-8 4.071-3.343 7.071-7.009 9-11l1 2a21.274 21.274 0 0 1 4-5l1 2c-1.2-4.998.8-8.998 6-12a8.192 8.192 0 0 1 2.5-4c-1.09-1.109-1.09-2.109 0-3 1.124 5.221 1.958 5.221 2.5 0 .914 1.154 1.747.987 2.5-.5-1.134-1.016-.801-1.683 1-2l-2-1c1.546-1.44 2.379-3.273 2.5-5.5 1.971 1.6 3.804 1.766 5.5.5.09-3.27.09-6.604 0-10a9.454 9.454 0 0 0 2.5-1.5c1.852 1.73 1.686 2.896-.5 3.5a8.43 8.43 0 0 0 4 .5c-.262-1.478.071-2.811 1-4 1.465 1.109 2.465.609 3-1.5-1.507-.837-2.007-2.004-1.5-3.5 1.566.561 2.899-.106 4-2 1.049 1.017 2.216 1.184 3.5.5-1.078-.674-1.745-1.674-2-3 1.063-1.787 1.563-3.621 1.5-5.5l-1 2c-1.279-4.12-3.779-5.12-7.5-3-1.539-2.273-1.206-4.273 1-6 1.369 1.624 3.036 2.124 5 1.5-2.118-1.049-3.784-2.549-5-4.5z"/>
  <path fill="#969696" d="M495.5 435.5a26.175 26.175 0 0 1 7 5c2.451 2.777 5.451 4.777 9 6 1.216 1.951 2.882 3.451 5 4.5-1.964.624-3.631.124-5-1.5-2.206 1.727-2.539 3.727-1 6-1.109.79-2.442 1.29-4 1.5l6 1a60.75 60.75 0 0 0-9 3l4 1c-2.466.665-4.633 1.165-6.5 1.5l-1-2c.57 2.193.236 4.193-1 6-1.154-2.457-2.488-2.457-4 0l-1-1c-.711 1.867-.211 3.367 1.5 4.5-1.325-.148-2.492.018-3.5.5-.758 2.269-.591 4.436.5 6.5-1.405 1.269-3.071 1.769-5 1.5v3a32.462 32.462 0 0 0-8 .5 14.972 14.972 0 0 1 3 3.5c-.891 1.09-1.891 1.09-3 0-1.205 2.359-.872 4.526 1 6.5l-6 6 1 1c-1.052 1.119-2.219 1.619-3.5 1.5-1.236 1.807-1.57 3.807-1 6-.667 1.333-1.333 1.333-2 0-2.941 3.585-4.941 7.585-6 12-.667-5.333-1.333-5.333-2 0a8.43 8.43 0 0 1-.5-4c-2.442-.381-3.109.286-2 2l-3.5 7c-.718-.951-1.551-1.117-2.5-.5a7.248 7.248 0 0 1 2 2.5c-1.489.033-2.822.533-4 1.5 1.054 1.388 1.22 2.888.5 4.5-.359-3.044-1.026-3.378-2-1-.383-.556-.883-.889-1.5-1-1.068-.934-2.401-1.268-4-1a46.122 46.122 0 0 0 0-9.5c1.167-.5 2-1.333 2.5-2.5l1 2c1.584-4.187 4.084-8.187 7.5-12a48.165 48.165 0 0 1 5-2.5l-2-1c1.617-1.092 2.617-2.592 3-4.5a10.515 10.515 0 0 0 3-2.5c-1.509-1.674-2.176-3.34-2-5a9.454 9.454 0 0 0 2.5-1.5 7.492 7.492 0 0 0 .5 5 11.38 11.38 0 0 0 2-2.5c-1.134-1.016-.801-1.683 1-2l-1-3a40.658 40.658 0 0 1 8-7l-1-1 5-1c-2.759-2.484-2.426-3.65 1-3.5v-5c5.078.163 5.745-1.004 2-3.5a9.454 9.454 0 0 0 1.5-2.5c1.73 2.102 3.563 1.935 5.5-.5-2.102-1.73-1.935-3.563.5-5.5 1.101-1.894 2.434-2.561 4-2a66.06 66.06 0 0 1 5-8c1 1.333 2 1.333 3 0a14.603 14.603 0 0 1 .5-7 98.36 98.36 0 0 1-6 0c.641-.982 1.307-1.982 2-3a185.977 185.977 0 0 1-2-3z"/>
  <path fill="#848484" d="M410.5 593.5c-2.831-.579-5.164-1.912-7-4 .789-.283 1.456-.783 2-1.5-1.247-1.494-1.247-2.994 0-4.5a14.72 14.72 0 0 1 1.5 5c.186-2.4.686-4.734 1.5-7 3.02-1.621 4.186-3.954 3.5-7 .667-1.333 1.333-1.333 2 0 1.277-2.412 2.943-5.079 5-8 1.281.119 2.448-.381 3.5-1.5.561-1.566-.106-2.899-2-4l1.5-1.5c1.699.906 3.533 1.239 5.5 1a4.934 4.934 0 0 0-.5-3l-3 1c-2-1-2-2 0-3l3 1a11.333 11.333 0 0 1 3.5-1.5l-2-1c1.318-.694 2.151-1.527 2.5-2.5.945.405 1.612 1.072 2 2l1-2c1.044 1.123 1.71 2.456 2 4 .825-2.201.325-4.034-1.5-5.5 1.967-2.064 3.967-4.731 6-8-1.211-.893-1.211-1.726 0-2.5 1.634-.468 2.8-1.468 3.5-3l1 4c1.608-3.121 2.441-6.454 2.5-10 .617.111 1.117.444 1.5 1 .974-2.378 1.641-2.044 2 1 .72-1.612.554-3.112-.5-4.5 1.178-.967 2.511-1.467 4-1.5a7.248 7.248 0 0 0-2-2.5c.949-.617 1.782-.451 2.5.5l3.5-7c-1.109-1.714-.442-2.381 2-2a8.43 8.43 0 0 0 .5 4c.667-5.333 1.333-5.333 2 0 1.059-4.415 3.059-8.415 6-12 .667 1.333 1.333 1.333 2 0-.57-2.193-.236-4.193 1-6 1.281.119 2.448-.381 3.5-1.5l-1-1 6-6c-1.872-1.974-2.205-4.141-1-6.5 1.109 1.09 2.109 1.09 3 0a14.972 14.972 0 0 0-3-3.5 32.462 32.462 0 0 1 8-.5v-3c1.929.269 3.595-.231 5-1.5-1.091-2.064-1.258-4.231-.5-6.5 1.008-.482 2.175-.648 3.5-.5-1.711-1.133-2.211-2.633-1.5-4.5l1 1c1.512-2.457 2.846-2.457 4 0 1.236-1.807 1.57-3.807 1-6l1 2c1.867-.335 4.034-.835 6.5-1.5l-4-1a60.75 60.75 0 0 1 9-3l-6-1c1.558-.21 2.891-.71 4-1.5 3.721-2.12 6.221-1.12 7.5 3l1-2c.063 1.879-.437 3.713-1.5 5.5.255 1.326.922 2.326 2 3-1.284.684-2.451.517-3.5-.5-1.101 1.894-2.434 2.561-4 2-.507 1.496-.007 2.663 1.5 3.5-.535 2.109-1.535 2.609-3 1.5-.929 1.189-1.262 2.522-1 4a8.43 8.43 0 0 1-4-.5c2.186-.604 2.352-1.77.5-3.5a9.454 9.454 0 0 1-2.5 1.5c.09 3.396.09 6.73 0 10-1.696 1.266-3.529 1.1-5.5-.5-.121 2.227-.954 4.06-2.5 5.5l2 1c-1.801.317-2.134.984-1 2-.753 1.487-1.586 1.654-2.5.5-.542 5.221-1.376 5.221-2.5 0-1.09.891-1.09 1.891 0 3a8.192 8.192 0 0 0-2.5 4c-5.2 3.002-7.2 7.002-6 12l-1-2a21.274 21.274 0 0 0-4 5l-1-2c-1.929 3.991-4.929 7.657-9 11 .257 2.876-.743 5.543-3 8a4.457 4.457 0 0 0-1.5-2c-1.211.774-1.211 1.607 0 2.5-2.455.394-4.455 1.56-6 3.5.346 1.196.846 1.196 1.5 0 .483.948.649 1.948.5 3-1.478-.262-2.811.071-4 1a38.852 38.852 0 0 0-1.5 7c-.667-4-1.333-4-2 0l-1-1c-.637 1.803-1.803 3.136-3.5 4a3.647 3.647 0 0 0 1 1.5c-1.244.456-2.077-.044-2.5-1.5a11.532 11.532 0 0 1-3.5 4.5c.392 2.354.392 4.854 0 7.5-2.87-.252-5.203.748-7 3 .346 1.196.846 1.196 1.5 0 .667 1 .667 2 0 3-.718-.951-1.551-1.117-2.5-.5-1.333.667-1.333 1.333 0 2-3.616.347-4.283 1.514-2 3.5-1.32 1.77-2.82 2.103-4.5 1l-1.5 1.5c.845 1.558.179 2.558-2 3l1 1a165.413 165.413 0 0 0-14 13c3.595.974 3.262 1.807-1 2.5z"/>
  <path fill="#a1a0a1" d="M460.5 499.5c-.383 1.908-1.383 3.408-3 4.5l2 1a48.165 48.165 0 0 0-5 2.5c-3.416 3.813-5.916 7.813-7.5 12l-1-2c-.5 1.167-1.333 2-2.5 2.5a46.122 46.122 0 0 1 0 9.5c1.599-.268 2.932.066 4 1a15.418 15.418 0 0 1-7-1c-1.641 3.058-2.474 6.392-2.5 10-.149-2.779-.983-3.279-2.5-1.5l1 1c-1.759.98-3.426 1.647-5 2l1 1-6 2 2 1c-.829 1.816-1.663 3.649-2.5 5.5a7.293 7.293 0 0 0-2-3c-.667 1.333-1.333 1.333-2 0 1.048 2.278 1.881 4.444 2.5 6.5-1.244.456-2.077-.044-2.5-1.5-1.655.302-2.988 1.636-4 4-.667-2.667-1.333-2.667-2 0l-1-2-5 11c-1.826 1.574-3.993 2.407-6.5 2.5l4 1a20.431 20.431 0 0 0-5.5 1.5l-1-2c-1.47 2.489-2.47 4.823-3 7l-1-1a64.233 64.233 0 0 0-8 5c-.717-.544-1.217-1.211-1.5-2-.803-.923-.97-1.923-.5-3l1 1c2.519-1.987 4.019-4.153 4.5-6.5.753-1.487 1.586-1.654 2.5-.5.442-2.179 1.442-2.845 3-2 .979-1.82 2.479-2.987 4.5-3.5l-2-3c.753-1.487 1.586-1.654 2.5-.5a15.256 15.256 0 0 1 1.5-4.5l-1-1c1.517-1.779 2.351-1.279 2.5 1.5 1.975-4.644 5.475-6.81 10.5-6.5-.845-1.558-.179-2.558 2-3-2.401-.805-2.234-1.638.5-2.5 1.131 1.104 1.965.771 2.5-1-1.311-.758-1.811-1.758-1.5-3 1.558.845 2.558.179 3-2l1 1a12.14 12.14 0 0 0 3.5-4.5c1.544-.29 2.877-.956 4-2-.949-.617-1.782-.451-2.5.5-3.459-2.73-3.126-3.396 1-2a34.099 34.099 0 0 0 3-6l1 2c1.061-3.062 2.894-5.562 5.5-7.5l-1-3c5.306-.47 8.639-3.303 10-8.5 1.232-.645 2.565-.811 4-.5 2.635-2.677 4.302-5.51 5-8.5 1.422-1.277 2.422-.943 3 1z"/>
  <path fill="#505050" d="M336.5 518.5a35.666 35.666 0 0 1 4 7 2.428 2.428 0 0 1-.5 2 25.93 25.93 0 0 1-3.5-9z"/>
  <path fill="#565656" d="M324.5 544.5v-2c-2.49-.477-4.49-1.811-6-4a425.941 425.941 0 0 0 14.5-20 144.058 144.058 0 0 0 8 21 229.705 229.705 0 0 0 8.5 12.5c-.598 1.301-1.598 2.135-3 2.5-7.192-3.81-14.858-6.31-23-7.5a84.927 84.927 0 0 1 14 1 120.874 120.874 0 0 1-11.5-4.5c-.383.556-.883.889-1.5 1z"/>
  <path fill="#b1b1b1" d="M335.5 515.5c.904.709 1.237 1.709 1 3a25.93 25.93 0 0 0 3.5 9 2.428 2.428 0 0 0 .5-2c2.714.187 3.381 1.354 2 3.5a36.87 36.87 0 0 1 2 5.5c-1.425-1.531-2.091-1.198-2 1-3.7-5.412-6.367-11.412-8-18 .043-.916.376-1.583 1-2z"/>
  <path fill="#656565" d="m521.5 452.5 15 7.5c12.649 6.053 25.982 8.553 40 7.5-.709.904-1.709 1.237-3 1a32.462 32.462 0 0 0-8 .5c7.577-.442 8.41 1.058 2.5 4.5-.617-.949-.451-1.782.5-2.5-2.936.893-5.436 2.726-7.5 5.5a1785.78 1785.78 0 0 1-44.5 51.5c-15.157 16.914-30.657 34.747-46.5 53.5a5859.282 5859.282 0 0 0-8.5 12.5c.35 1.257 1.017 1.591 2 1a9399.355 9399.355 0 0 1 64.5-73.5c7.875-8.734 16.375-17.734 25.5-27a19.177 19.177 0 0 1-2.5 5 10619.276 10619.276 0 0 0-90.5 110 9.108 9.108 0 0 1-5 1c-12.666-1.837-24.666-5.837-36-12-.803-.923-.97-1.923-.5-3 1 1.333 2 1.333 3 0a20.64 20.64 0 0 1 2-6c1.016-1.134 1.683-.801 2 1 1.109-2.315 2.943-3.815 5.5-4.5l-2-1c2.658-3.037 5.325-5.371 8-7-1.456-.423-1.956-1.256-1.5-2.5 3.698 1.673 5.365.006 5-5l2 2c2.096-1.215 1.929-2.049-.5-2.5.452-1.612 1.785-2.612 4-3v-3a4.457 4.457 0 0 1 2-1.5c1.017 2.528 2.184 2.528 3.5 0 .837-6.337 1.503-6.003 2 1a19.883 19.883 0 0 1 2.5-8 6.802 6.802 0 0 1 1.5 3c.651-1.735.485-3.402-.5-5 2.528-1.316 2.528-2.483 0-3.5 1.249-1.824 2.415-1.657 3.5.5.317-1.801.984-2.134 2-1a21.438 21.438 0 0 0 0-5c1.745-.313 3.578-1.313 5.5-3-1.897-1.168-2.064-2.835-.5-5l1 1 1-3c1.016 1.134 1.683.801 2-1 .914 1.154 1.747.987 2.5-.5-1.165-1.868-.832-3.702 1-5.5 1.695.792 3.362.458 5-1 .126-2.924 1.459-5.591 4-8 3.867.987 3.867.487 0-1.5a8.905 8.905 0 0 0 4-3l-2-1a11.333 11.333 0 0 0 3.5-1.5c1.655.302 2.988 1.636 4 4a390.273 390.273 0 0 1 14.5-14.5l-3-1a7.293 7.293 0 0 0 3-2c-5.294-.818-5.294-1.318 0-1.5a4.934 4.934 0 0 1 .5-3c.667 8 1.333 8 2 0 .414.457.914.791 1.5 1 1.247-1.506 1.247-3.006 0-4.5l3-1c-1.456-.423-1.956-1.256-1.5-2.5 2 .667 3.333 2 4 4 1.951-1.637 1.784-3.137-.5-4.5a18.117 18.117 0 0 0 4.5-5.5 4.457 4.457 0 0 0 1.5 2c.653-3.929 3.32-5.929 8-6 .466-1.701.466-3.201 0-4.5a8.43 8.43 0 0 1 4-.5 9.86 9.86 0 0 0-1-6c-2.048 1.27-4.048 1.603-6 1a47.69 47.69 0 0 1 7-5.5c-5.23-2.106-9.897-4.939-14-8.5z"/>
  <path fill="#515151" d="M344.5 534.5c1.406.473 2.073 1.473 2 3-1.406-.473-2.073-1.473-2-3z"/>
  <path fill="#404040" d="M346.5 537.5c1.406.473 2.073 1.473 2 3-1.406-.473-2.073-1.473-2-3z"/>
  <path fill="#e7e7e7" d="M324.5 542.5v2c-2.093-1.473-3.76-.973-5 1.5-2.655 1.115-5.321 1.782-8 2a34.706 34.706 0 0 0 7.5-6.5c1.699.906 3.533 1.239 5.5 1z"/>
  <path fill="#343434" d="M348.5 540.5c1.406.473 2.073 1.473 2 3-1.406-.473-2.073-1.473-2-3z"/>
  <path fill="#454545" d="M350.5 543.5c2.414 1.411 4.081 3.411 5 6-2.414-1.411-4.081-3.411-5-6z"/>
  <path fill="#949494" d="M325.5 550.5a8.43 8.43 0 0 0-4 .5c2.095.556 2.262 1.056.5 1.5-3.426-1.491-6.926-1.158-10.5 1-.896 1.006-1.562 1.006-2 0l1-2c4.96-2.129 9.96-2.462 15-1z"/>
  <path fill="#3f3f3f" d="m355.5 549.5 4 3a44.91 44.91 0 0 1 7 9c-4.398-3.395-8.064-7.395-11-12z"/>
  <path fill="#cecece" d="M325.5 550.5c2.361.174 4.694.507 7 1a5.576 5.576 0 0 1-1 3c1.353 1.024 2.02 2.357 2 4-7.402-.9-14.736-.9-22 0v-5c3.574-2.158 7.074-2.491 10.5-1 1.762-.444 1.595-.944-.5-1.5a8.43 8.43 0 0 1 4-.5z"/>
  <path fill="#b0b0b0" d="M332.5 551.5a146.156 146.156 0 0 1 15 6c-1.416 2.36-1.083 4.36 1 6 .925 1.141 1.759 1.141 2.5 0 3.857 2.702 8.357 5.202 13.5 7.5-1.104 1.131-.771 1.965 1 2.5a3.647 3.647 0 0 0 1.5-1 78.515 78.515 0 0 1 6.5 6c-1.38 1.206-2.547.873-3.5-1-1.039.744-1.539 1.744-1.5 3a76.077 76.077 0 0 0-15.5-9 19.25 19.25 0 0 1-6.5 3 79.88 79.88 0 0 0-11-2v3a177.939 177.939 0 0 0-19-10c-2.823-1.492-4.49-3.826-5-7 7.264-.9 14.598-.9 22 0 .02-1.643-.647-2.976-2-4a5.576 5.576 0 0 0 1-3z"/>
  <path fill="#4c4c4c" d="M366.5 561.5h2l4 5c-2.589-.919-4.589-2.586-6-5z"/>
  <path fill="#434343" d="M573.5 468.5c1.239.712 1.739 1.712 1.5 3a294.69 294.69 0 0 0-21.5 23c-9.125 9.266-17.625 18.266-25.5 27a9399.355 9399.355 0 0 0-64.5 73.5c-.983.591-1.65.257-2-1 2.818-4.156 5.652-8.323 8.5-12.5 15.843-18.753 31.343-36.586 46.5-53.5a1785.78 1785.78 0 0 0 44.5-51.5c2.064-2.774 4.564-4.607 7.5-5.5-.951.718-1.117 1.551-.5 2.5 5.91-3.442 5.077-4.942-2.5-4.5a32.462 32.462 0 0 1 8-.5z"/>
  <path fill="#40413e" d="M379.5 571.5v1c-2.044-.531-3.711-1.698-5-3.5 1.935.058 3.602.891 5 2.5z"/>
  <path fill="#929292" d="M447.5 530.5c-.059 3.546-.892 6.879-2.5 10l-1-4c-.7 1.532-1.866 2.532-3.5 3-1.211.774-1.211 1.607 0 2.5-2.033 3.269-4.033 5.936-6 8 1.825 1.466 2.325 3.299 1.5 5.5-.29-1.544-.956-2.877-2-4l-1 2c-.388-.928-1.055-1.595-2-2-.349.973-1.182 1.806-2.5 2.5l2 1a11.333 11.333 0 0 0-3.5 1.5l-3-1c-2 1-2 2 0 3l3-1c.483.948.649 1.948.5 3-1.967.239-3.801-.094-5.5-1l-1.5 1.5c1.894 1.101 2.561 2.434 2 4-1.052 1.119-2.219 1.619-3.5 1.5-2.057 2.921-3.723 5.588-5 8-.667-1.333-1.333-1.333-2 0 .686 3.046-.48 5.379-3.5 7a26.724 26.724 0 0 0-1.5 7 14.72 14.72 0 0 0-1.5-5c-1.247 1.506-1.247 3.006 0 4.5-.544.717-1.211 1.217-2 1.5a1673.982 1673.982 0 0 1-9-6l-1 .5a32.859 32.859 0 0 1 6 5.5 71.12 71.12 0 0 1-12-8l-6-5c.438.065.772-.101 1-.5-1.563-.759-2.563-1.926-3-3.5l4 2c.762 1.762 2.096 2.762 4 3 .283.789.783 1.456 1.5 2a64.233 64.233 0 0 1 8-5l1 1c.53-2.177 1.53-4.511 3-7l1 2a20.431 20.431 0 0 1 5.5-1.5l-4-1c2.507-.093 4.674-.926 6.5-2.5l5-11 1 2c.667-2.667 1.333-2.667 2 0 1.012-2.364 2.345-3.698 4-4 .423 1.456 1.256 1.956 2.5 1.5-.619-2.056-1.452-4.222-2.5-6.5.667 1.333 1.333 1.333 2 0a7.293 7.293 0 0 1 2 3c.837-1.851 1.671-3.684 2.5-5.5l-2-1 6-2-1-1c1.574-.353 3.241-1.02 5-2l-1-1c1.517-1.779 2.351-1.279 2.5 1.5.026-3.608.859-6.942 2.5-10a15.418 15.418 0 0 0 7 1z"/>
  <path fill="#484848" d="M346.5 574.5c12.62 5.065 24.12 12.065 34.5 21a44.852 44.852 0 0 1 3.5 10.5c-.208 6.578-3.541 8.911-10 7a82.844 82.844 0 0 1-9-5.5 159.435 159.435 0 0 1-15-15 91.841 91.841 0 0 1-15-17v-3a79.88 79.88 0 0 1 11 2z"/>
  <path fill="#e8e8e8" d="M350.5 592.5c-1.008-5.65.992-6.983 6-4 1.361 2.484 1.194 4.817-.5 7a24.257 24.257 0 0 0-5.5-3z"/>
  <path fill="#4d4d4d" d="M403.5 589.5c1.836 2.088 4.169 3.421 7 4a58.88 58.88 0 0 0 9 5c11.334 6.163 23.334 10.163 36 12a4.934 4.934 0 0 0-3 .5 20.2 20.2 0 0 1 6 1.5l-2.5 1c-20.894-3.455-39.728-11.455-56.5-24a32.859 32.859 0 0 0-6-5.5l1-.5c3.018 2.026 6.018 4.026 9 6z"/>
  <path fill="#636363" d="M340.5 606.5c-15.884-12.096-26.55-27.763-32-47a8.43 8.43 0 0 1 .5-4 84.512 84.512 0 0 0 8.5 23 240.101 240.101 0 0 0 15.5 16c1.646 1.555 1.979 3.221 1 5a63.707 63.707 0 0 1 6.5 7z"/>
  <path fill="#999" d="M347.5 557.5c4.306 2.488 8.639 4.988 13 7.5a329.427 329.427 0 0 0 27 20.5 71.94 71.94 0 0 0 11 9 207.077 207.077 0 0 1 28 38c.391 3.883-.276 7.55-2 11-.502 1.021-1.168 1.188-2 .5 1.543-2.045 1.21-3.545-1-4.5a12.93 12.93 0 0 0-.5-5 50.548 50.548 0 0 1-6-12l-13-17a54.511 54.511 0 0 0-11.5-10c-.153-2.61-1.486-4.943-4-7a48.89 48.89 0 0 0-13-10 78.515 78.515 0 0 0-6.5-6 3.647 3.647 0 0 1-1.5 1c-1.771-.535-2.104-1.369-1-2.5-5.143-2.298-9.643-4.798-13.5-7.5-.741 1.141-1.575 1.141-2.5 0-2.083-1.64-2.416-3.64-1-6z"/>
  <path fill="#767676" d="M316.5 565.5a177.939 177.939 0 0 1 19 10 91.841 91.841 0 0 0 15 17 159.435 159.435 0 0 0 15 15c.086 2.177.753 4.177 2 6a3.647 3.647 0 0 1-1 1.5c5.763.952 6.097 2.286 1 4a21.53 21.53 0 0 1 5 6c-.228.399-.562.565-1 .5-19.522-13.019-36.356-29.019-50.5-48-2.364-3.719-3.864-7.719-4.5-12z"/>
  <path fill="#8d8d8d" d="M368.5 580.5c16.385 12.054 30.051 26.721 41 44l-.5 1c-1.676-.561-3.009-1.561-4-3-1.285.098-2.451.098-3.5 0-4.302-4.324-9.302-6.658-15-7-1.021.502-1.188 1.168-.5 2a49.903 49.903 0 0 1 8.5 12 4.934 4.934 0 0 0-3 .5c.511 2.319-.156 4.486-2 6.5a32.508 32.508 0 0 0-7-3l-11-8c.438.065.772-.101 1-.5a21.53 21.53 0 0 0-5-6c5.097-1.714 4.763-3.048-1-4a3.647 3.647 0 0 0 1-1.5c-1.247-1.823-1.914-3.823-2-6a82.844 82.844 0 0 0 9 5.5c6.459 1.911 9.792-.422 10-7a44.852 44.852 0 0 0-3.5-10.5c-10.38-8.935-21.88-15.935-34.5-21a19.25 19.25 0 0 0 6.5-3 76.077 76.077 0 0 1 15.5 9z"/>
  <path fill="#444" d="M309.5 553.5c.438 1.006 1.104 1.006 2 0v5c.51 3.174 2.177 5.508 5 7 .636 4.281 2.136 8.281 4.5 12 14.144 18.981 30.978 34.981 50.5 48l11 8c-1.073.751-1.24 1.751-.5 3 .995.566 1.828 1.233 2.5 2-5.793-1.728-10.793-4.728-15-9a87.978 87.978 0 0 0-13-9c-4.38-2.2-8.38-5.033-12-8.5a30.039 30.039 0 0 1-4-5.5 63.707 63.707 0 0 0-6.5-7c.979-1.779.646-3.445-1-5a240.101 240.101 0 0 1-15.5-16 84.512 84.512 0 0 1-8.5-23 8.43 8.43 0 0 0-.5 4c-.639-.597-.972-1.43-1-2.5-.113-1.699.553-2.866 2-3.5z"/>
  <path fill="#707070" d="M406.5 598.5a132.493 132.493 0 0 0 38 15c-2.248 3.754-5.081 7.088-8.5 10l-3-1c-.612 2.615-2.112 4.281-4.5 5-4.891-10.435-11.724-19.435-20.5-27-.667 1.333-1.333 1.333-2 0-.692-.937-.525-1.603.5-2z"/>
  <path fill="#484848" d="M444.5 613.5a47.987 47.987 0 0 0 11 2.5 1048.94 1048.94 0 0 1-25 28.5 5.727 5.727 0 0 0-3 1v-4c2.743.423 4.076-.744 4-3.5a49.05 49.05 0 0 0-3-10.5c2.388-.719 3.888-2.385 4.5-5l3 1c3.419-2.912 6.252-6.246 8.5-10z"/>
  <path fill="#464646" d="M401.5 622.5c1.97 3.19 2.636 6.523 2 10-3.858 1.571-6.858.571-9-3a49.903 49.903 0 0 0-8.5-12c-.688-.832-.521-1.498.5-2 5.698.342 10.698 2.676 15 7z"/>
  <path fill="#838383" d="M356.5 620.5a87.978 87.978 0 0 1 13 9c-5.165-1.838-9.499-4.838-13-9z"/>
  <path fill="#c3c3c3" d="M373.5 578.5a48.89 48.89 0 0 1 13 10c2.514 2.057 3.847 4.39 4 7a54.511 54.511 0 0 1 11.5 10l13 17a50.548 50.548 0 0 0 6 12 12.93 12.93 0 0 1 .5 5c.17 1.322-.163 2.489-1 3.5-5.318 1.929-10.651 1.929-16 0a83.704 83.704 0 0 1-15-6.5c1.844-2.014 2.511-4.181 2-6.5a4.934 4.934 0 0 1 3-.5c2.142 3.571 5.142 4.571 9 3 .636-3.477-.03-6.81-2-10 1.049.098 2.215.098 3.5 0 .991 1.439 2.324 2.439 4 3l.5-1c-10.949-17.279-24.615-31.946-41-44-.039-1.256.461-2.256 1.5-3 .953 1.873 2.12 2.206 3.5 1z"/>
  <path fill="#2e2e2e" d="M406.5 598.5c-1.025.397-1.192 1.063-.5 2 .667 1.333 1.333 1.333 2 0 8.776 7.565 15.609 16.565 20.5 27a49.05 49.05 0 0 1 3 10.5c.076 2.756-1.257 3.923-4 3.5v4c-.763.768-1.763 1.268-3 1.5-5 .667-10 .667-15 0a122.826 122.826 0 0 1-25-8.5c-.672-.767-1.505-1.434-2.5-2-.74-1.249-.573-2.249.5-3a32.508 32.508 0 0 1 7 3 83.704 83.704 0 0 0 15 6.5c5.349 1.929 10.682 1.929 16 0 .837-1.011 1.17-2.178 1-3.5 2.21.955 2.543 2.455 1 4.5.832.688 1.498.521 2-.5 1.724-3.45 2.391-7.117 2-11a207.077 207.077 0 0 0-28-38c.751-1.073 1.751-1.24 3-.5a144.8 144.8 0 0 1 5 4.5z"/>
  <path fill="#9a9a9a" d="M426.5 632.5a240.024 240.024 0 0 1-.5-6c2.231 3.357 3.231 7.024 3 11a38.715 38.715 0 0 0-2.5-5z"/>
  <path fill="#7f7f7f" d="M384.5 638.5a122.826 122.826 0 0 0 25 8.5c5 .667 10 .667 15 0 1.237-.232 2.237-.732 3-1.5a5.727 5.727 0 0 1 3-1c.086.996-.248 1.829-1 2.5l-8 2c-13.59.633-25.924-2.867-37-10.5z"/>
  <path fill="#797979" d="M478.5 714.5c-.17 1.322.163 2.489 1 3.5-1.304.804-1.971 1.971-2 3.5 1.052 1.723 1.052 3.39 0 5 1.816 1.941 3.816 2.608 6 2a4.457 4.457 0 0 1-1.5 2c-1.183-1.231-2.349-1.231-3.5 0-.047 4.128.787 8.461 2.5 13-.245-2.163-1.245-3.83-3-5-.536 2.067-.036 3.901 1.5 5.5l-1 1c2.532.612 3.365 2.112 2.5 4.5-.957-2.209-2.124-2.043-3.5.5 2.267 1.081 2.434 2.581.5 4.5-.654-1.196-1.154-1.196-1.5 0a18.33 18.33 0 0 0 4 6c-1.885.697-2.218 1.697-1 3-7.924 1.462-7.924 2.629 0 3.5-1.333.667-1.333 1.333 0 2-1.547.333-2.88-.167-4-1.5-1.561.847-3.061.514-4.5-1-.974 2.378-1.641 2.044-2-1a12.795 12.795 0 0 0-3 6 18.453 18.453 0 0 1-.5-6 4.934 4.934 0 0 1-3-.5c1.196-.654 1.196-1.154 0-1.5a26.724 26.724 0 0 0-1.5 7c-.273-1.829-1.107-3.329-2.5-4.5 1.333-.667 1.333-1.333 0-2 2.429-.451 2.596-1.285.5-2.5-.667 1.333-1.333 1.333-2 0-1.113 1.26-1.28 2.427-.5 3.5-2.59 2.289-4.423 1.789-5.5-1.5-1.134 2.294-1.634 4.461-1.5 6.5l4 1a2.428 2.428 0 0 1-2 .5 213.814 213.814 0 0 1-44-11.5c-9.717-3.27-18.217-8.437-25.5-15.5-2.34-4.055-3.007-8.389-2-13 5.854-8.02 13.687-13.187 23.5-15.5a133.004 133.004 0 0 1 35-3.5c13.356.287 26.69.954 40 2z"/>
  <path fill="#818181" d="M478.5 714.5a1973.087 1973.087 0 0 1 76 10c-1.109.79-2.442 1.29-4 1.5l4 6a7.293 7.293 0 0 1-3 2c2.949.39 5.116 1.89 6.5 4.5 1.246-1.272 2.413-1.605 3.5-1a9.425 9.425 0 0 0-3 3 92.012 92.012 0 0 0 3 4.5c-1.801.317-2.134.984-1 2-4.016-.213-4.016.787 0 3-2.386.284-3.052 1.284-2 3a127.818 127.818 0 0 0-3 2c.392 1.011 1.059 1.511 2 1.5a6.802 6.802 0 0 1-3 1.5 499.122 499.122 0 0 0 6 6c-1.5.833-2.667 2-3.5 3.5l-1-2a22.755 22.755 0 0 0-4 5l-3-2a33.902 33.902 0 0 0-3.5 6c.897.169 1.897.502 3 1a22.226 22.226 0 0 1-6 2.5 10.756 10.756 0 0 1 3 2.5l2-2c1.333 1.333 1.333 2.667 0 4-3.633-1.542-5.966-.875-7 2a3.647 3.647 0 0 1-1.5-1c-1.401 1.692-3.234 2.359-5.5 2a876.91 876.91 0 0 1-82-14 2.428 2.428 0 0 0 2-.5l-4-1c-.134-2.039.366-4.206 1.5-6.5 1.077 3.289 2.91 3.789 5.5 1.5-.78-1.073-.613-2.24.5-3.5.667 1.333 1.333 1.333 2 0 2.096 1.215 1.929 2.049-.5 2.5 1.333.667 1.333 1.333 0 2 1.393 1.171 2.227 2.671 2.5 4.5.186-2.4.686-4.734 1.5-7 1.196.346 1.196.846 0 1.5a4.934 4.934 0 0 0 3 .5 18.453 18.453 0 0 0 .5 6 12.795 12.795 0 0 1 3-6c.359 3.044 1.026 3.378 2 1 1.439 1.514 2.939 1.847 4.5 1 1.12 1.333 2.453 1.833 4 1.5-1.333-.667-1.333-1.333 0-2-7.924-.871-7.924-2.038 0-3.5-1.218-1.303-.885-2.303 1-3a18.33 18.33 0 0 1-4-6c.346-1.196.846-1.196 1.5 0 1.934-1.919 1.767-3.419-.5-4.5 1.376-2.543 2.543-2.709 3.5-.5.865-2.388.032-3.888-2.5-4.5l1-1c-1.536-1.599-2.036-3.433-1.5-5.5 1.755 1.17 2.755 2.837 3 5-1.713-4.539-2.547-8.872-2.5-13 1.151-1.231 2.317-1.231 3.5 0a4.457 4.457 0 0 0 1.5-2c-2.184.608-4.184-.059-6-2 1.052-1.61 1.052-3.277 0-5 .029-1.529.696-2.696 2-3.5-.837-1.011-1.17-2.178-1-3.5z"/>
  <path fill="#8e8e8e" d="M554.5 724.5a2373.608 2373.608 0 0 1 39 6 44.093 44.093 0 0 1-3 2c1.355 1.175 1.188 2.175-.5 3-.122-3.595-1.956-5.261-5.5-5-.216 2.181.617 3.847 2.5 5l1-1 1 4 1-2a22.755 22.755 0 0 0 4 5c.893-1.211 1.726-1.211 2.5 0-1.291 2.459-3.291 3.959-6 4.5 1.17 1.755 2.837 2.755 5 3a10.258 10.258 0 0 0-4 1.5c.346 1.196.846 1.196 1.5 0 .667 2.667 1.333 2.667 2 0 2.349 2.244 1.849 3.411-1.5 3.5-.862 2.734-1.695 2.901-2.5.5-1.634 1.49-1.301 2.824 1 4 1.82 3.267 1.986 6.6.5 10-3.098-.087-3.432.413-1 1.5-1.658.725-2.158 1.892-1.5 3.5a6.547 6.547 0 0 0 3-3l.5 1.5a15.91 15.91 0 0 0-2.5 4.5c-1.087-2.432-1.587-2.098-1.5 1 3.297-.171 3.631.495 1 2 2.247 2.196 1.58 3.53-2 4a12.93 12.93 0 0 1-.5 5c-2.041-.923-4.208-1.256-6.5-1-.087 3.098.413 3.432 1.5 1a8.43 8.43 0 0 1 .5 4c5 .503 4.667.836-1 1a750.941 750.941 0 0 1-49-8c2.266.359 4.099-.308 5.5-2 .414.457.914.791 1.5 1 1.034-2.875 3.367-3.542 7-2 1.333-1.333 1.333-2.667 0-4l-2 2a10.756 10.756 0 0 0-3-2.5 22.226 22.226 0 0 0 6-2.5c-1.103-.498-2.103-.831-3-1a33.902 33.902 0 0 1 3.5-6l3 2a22.755 22.755 0 0 1 4-5l1 2c.833-1.5 2-2.667 3.5-3.5a499.122 499.122 0 0 1-6-6 6.802 6.802 0 0 0 3-1.5c-.941.011-1.608-.489-2-1.5.789-.546 1.789-1.213 3-2-1.052-1.716-.386-2.716 2-3-4.016-2.213-4.016-3.213 0-3-1.134-1.016-.801-1.683 1-2a92.012 92.012 0 0 1-3-4.5 9.425 9.425 0 0 1 3-3c-1.087-.605-2.254-.272-3.5 1-1.384-2.61-3.551-4.11-6.5-4.5a7.293 7.293 0 0 0 3-2l-4-6c1.558-.21 2.891-.71 4-1.5z"/>
  <path fill="#a8a8a8" d="m638.5 738.5 30 5a2.428 2.428 0 0 1-.5 2c-1.388-1.054-2.888-1.22-4.5-.5a8.905 8.905 0 0 1-4 3l2 2-5 3c2.667 1.333 2.667 2.667 0 4 2.048-.595 4.048-.095 6 1.5l1-2c2.083 2.507 2.25 4.84.5 7l-2-2c-.724 2.459-2.057 3.459-4 3-3.097.789-3.264 1.956-.5 3.5-4.036 3.32-3.37 4.653 2 4-1.363-2.129-1.029-2.629 1-1.5 2.528-.998 2.528-1.831 0-2.5 1.377-1.241 2.71-1.408 4-.5-1.141.925-1.141 1.759 0 2.5l-2 1c1.894 1.101 2.561 2.434 2 4a4.934 4.934 0 0 1-3 .5 12.93 12.93 0 0 0 .5 5c1.193-1.478 1.693-2.812 1.5-4 2.473 1.598 2.473 3.098 0 4.5l1 1a25.61 25.61 0 0 1-3.5 5.5l-1-1c.165 4.224-1.668 7.057-5.5 8.5l6 2a22.573 22.573 0 0 0-8 4c2.209.957 2.043 2.124-.5 3.5-1.726-1.076-3.559-1.243-5.5-.5 1.237.232 2.237.732 3 1.5-8.977-.663-17.644-2.33-26-5 .438.065.772-.101 1-.5l-2-1c3.465-.934 3.798-2.434 1-4.5 1.885-.697 2.218-1.697 1-3 .377-2.324 1.377-2.991 3-2 .236-.747.57-1.58 1-2.5 3.044-.359 3.378-1.026 1-2a4.457 4.457 0 0 0 2-1.5 48.165 48.165 0 0 0-5-2.5v-4a29.517 29.517 0 0 0 4.5-2.5c.507-1.496.007-2.663-1.5-3.5l4-3c-.958-1.147-.625-2.147 1-3a32.367 32.367 0 0 0-3-4.5c2.576-1.383 2.242-2.217-1-2.5 2.432-1.087 2.098-1.587-1-1.5v-3h4c1.235-2.273.902-4.106-1-5.5 1.909-.448 3.076.385 3.5 2.5.772-1.349 1.939-2.182 3.5-2.5-2.554-2.269-2.554-4.602 0-7-.752-.671-1.086-1.504-1-2.5z"/>
  <path fill="#9c9c9c" d="M593.5 730.5a665.67 665.67 0 0 1 45 8c-.086.996.248 1.829 1 2.5-2.554 2.398-2.554 4.731 0 7-1.561.318-2.728 1.151-3.5 2.5-.424-2.115-1.591-2.948-3.5-2.5 1.902 1.394 2.235 3.227 1 5.5h-4v3c3.098-.087 3.432.413 1 1.5 3.242.283 3.576 1.117 1 2.5a32.367 32.367 0 0 1 3 4.5c-1.625.853-1.958 1.853-1 3l-4 3c1.507.837 2.007 2.004 1.5 3.5a29.517 29.517 0 0 1-4.5 2.5v4a48.165 48.165 0 0 1 5 2.5 4.457 4.457 0 0 1-2 1.5c2.378.974 2.044 1.641-1 2a20.79 20.79 0 0 0-1 2.5c-1.623-.991-2.623-.324-3 2 1.218 1.303.885 2.303-1 3 2.798 2.066 2.465 3.566-1 4.5l2 1c-.228.399-.562.565-1 .5a874.691 874.691 0 0 1-41-7c5.667-.164 6-.497 1-1a8.43 8.43 0 0 0-.5-4c-1.087 2.432-1.587 2.098-1.5-1 2.292-.256 4.459.077 6.5 1a12.93 12.93 0 0 0 .5-5c3.58-.47 4.247-1.804 2-4 2.631-1.505 2.297-2.171-1-2-.087-3.098.413-3.432 1.5-1a15.91 15.91 0 0 1 2.5-4.5l-.5-1.5a6.547 6.547 0 0 1-3 3c-.658-1.608-.158-2.775 1.5-3.5-2.432-1.087-2.098-1.587 1-1.5 1.486-3.4 1.32-6.733-.5-10-2.301-1.176-2.634-2.51-1-4 .805 2.401 1.638 2.234 2.5-.5 3.349-.089 3.849-1.256 1.5-3.5-.667 2.667-1.333 2.667-2 0-.654 1.196-1.154 1.196-1.5 0a10.258 10.258 0 0 1 4-1.5c-2.163-.245-3.83-1.245-5-3 2.709-.541 4.709-2.041 6-4.5-.774-1.211-1.607-1.211-2.5 0a22.755 22.755 0 0 1-4-5l-1 2-1-4-1 1c-1.883-1.153-2.716-2.819-2.5-5 3.544-.261 5.378 1.405 5.5 5 1.688-.825 1.855-1.825.5-3a44.093 44.093 0 0 0 3-2z"/>
  <path fill="#c8c8c8" d="M740.5 761.5a17.341 17.341 0 0 1 7 3.5 110.872 110.872 0 0 0 14 11 572.827 572.827 0 0 0 46 10.5c3.141.821 6.475 1.321 10 1.5a6.547 6.547 0 0 0 3 3c-.944 2.719-1.277 5.552-1 8.5h4c-.214 1.644.12 3.144 1 4.5-.949.617-1.782.451-2.5-.5l-1 2c-.284-2.386-1.284-3.052-3-2-1.748-3.411-3.915-4.078-6.5-2l-1-2c-2.961.683-3.295 1.516-1 2.5a4.457 4.457 0 0 0-2 1.5c1.141.925 1.141 1.759 0 2.5h4c-1.54 1.851-3.04 3.018-4.5 3.5-.667-8-1.333-8-2 0l-1-6c-.186 2.536-.686 4.869-1.5 7a582.471 582.471 0 0 0-43.5-7 220.532 220.532 0 0 1-26.5 7c-.111-.617-.444-1.117-1-1.5 2.179-.442 2.845-1.442 2-3-2.536 1.364-4.536 2.864-6 4.5-1.9-.947-3.233-2.447-4-4.5l2-1a10.098 10.098 0 0 0-6-1.5c.214-1.644-.12-3.144-1-4.5l2-1a6.802 6.802 0 0 1-3-1.5c2.023-.643 3.69.191 5 2.5 1.612.72 3.112.554 4.5-.5l1.5 1.5c-.837 1.011-1.17 2.178-1 3.5a22.394 22.394 0 0 0 8-2.5c-3.822-1.693-3.489-3.027 1-4-2.158-.959-2.491-2.459-1-4.5-.318-1.147-.984-1.981-2-2.5 1.981-.605 2.315-1.605 1-3a7.293 7.293 0 0 1 3-2c-.845-1.558-.179-2.558 2-3a14.587 14.587 0 0 1-6-4c1.627.43 3.127.596 4.5.5l1.5-1.5a245.39 245.39 0 0 1-2-8.5 12.403 12.403 0 0 0-4-2.5c2.667-1.333 2.667-2.667 0-4 .608-.87 1.441-1.37 2.5-1.5 1.44.648 2.94.981 4.5 1z"/>
  <path fill="#b1b1b1" d="M668.5 743.5a347.128 347.128 0 0 0 23 4c-1.452.802-3.118 1.302-5 1.5l5 1a20.2 20.2 0 0 0-6 1.5c1.017 2.528 2.184 2.528 3.5 0 1.333 1.333 2.667 1.333 4 0 1.654 1.827 2.488 3.66 2.5 5.5-1.249 1.824-2.415 1.657-3.5-.5a6.978 6.978 0 0 1-3.5 2.5 15.256 15.256 0 0 1 1.5 4.5 3.647 3.647 0 0 1 1.5-1l2.5 3c.805-2.401 1.638-2.234 2.5.5-2.385 2.123-4.551 1.623-6.5-1.5-2.096 1.215-1.929 2.049.5 2.5-2.511.582-4.511-.251-6-2.5 1.347-3.61.68-3.943-2-1a3.647 3.647 0 0 1-1.5-1c-.318 1.561-1.151 2.728-2.5 3.5a47.235 47.235 0 0 1 4 6c.66-.898 1.993-1.232 4-1-.845 1.558-.179 2.558 2 3a15.454 15.454 0 0 1-5 3 15.83 15.83 0 0 1 5.5 3.5l1-2c.5 1.167 1.333 2 2.5 2.5l-2 1c2.437 1.279 2.937 2.779 1.5 4.5-1.685-2.488-3.019-2.155-4 1-2.044-2.616-3.044-2.283-3 1 .889-1.388 1.389-1.222 1.5.5-1.02 2.078-.353 3.745 2 5a11.333 11.333 0 0 0-1.5 3.5c-.424-3.69-1.258-3.857-2.5-.5 1.894 1.101 2.561 2.434 2 4-.753 1.487-1.586 1.654-2.5.5-.833 2.167-2.333 3.667-4.5 4.5l3 1c-.609 2.058-1.609 2.891-3 2.5 5.182 1.276 5.182 1.943 0 2a239.039 239.039 0 0 1-30-6c-.763-.768-1.763-1.268-3-1.5 1.941-.743 3.774-.576 5.5.5 2.543-1.376 2.709-2.543.5-3.5a22.573 22.573 0 0 1 8-4l-6-2c3.832-1.443 5.665-4.276 5.5-8.5l1 1a25.61 25.61 0 0 0 3.5-5.5l-1-1c2.473-1.402 2.473-2.902 0-4.5.193 1.188-.307 2.522-1.5 4a12.93 12.93 0 0 1-.5-5 4.934 4.934 0 0 0 3-.5c.561-1.566-.106-2.899-2-4l2-1c-1.141-.741-1.141-1.575 0-2.5-1.29-.908-2.623-.741-4 .5 2.528.669 2.528 1.502 0 2.5-2.029-1.129-2.363-.629-1 1.5-5.37.653-6.036-.68-2-4-2.764-1.544-2.597-2.711.5-3.5 1.943.459 3.276-.541 4-3l2 2c1.75-2.16 1.583-4.493-.5-7l-1 2c-1.952-1.595-3.952-2.095-6-1.5 2.667-1.333 2.667-2.667 0-4l5-3-2-2a8.905 8.905 0 0 0 4-3c1.612-.72 3.112-.554 4.5.5a2.428 2.428 0 0 0 .5-2z"/>
  <path fill="#bcbcbc" d="M691.5 747.5a234.706 234.706 0 0 1 39 8.5 71.324 71.324 0 0 1 10 5.5 11.187 11.187 0 0 1-4.5-1c-1.059.13-1.892.63-2.5 1.5 2.667 1.333 2.667 2.667 0 4a12.403 12.403 0 0 1 4 2.5 245.39 245.39 0 0 0 2 8.5l-1.5 1.5c-1.373.096-2.873-.07-4.5-.5a14.587 14.587 0 0 0 6 4c-2.179.442-2.845 1.442-2 3a7.293 7.293 0 0 0-3 2c1.315 1.395.981 2.395-1 3 1.016.519 1.682 1.353 2 2.5-1.491 2.041-1.158 3.541 1 4.5-4.489.973-4.822 2.307-1 4a22.394 22.394 0 0 1-8 2.5c-.17-1.322.163-2.489 1-3.5l-1.5-1.5c-1.388 1.054-2.888 1.22-4.5.5-1.31-2.309-2.977-3.143-5-2.5a6.802 6.802 0 0 0 3 1.5l-2 1c.88 1.356 1.214 2.856 1 4.5a10.098 10.098 0 0 1 6 1.5l-2 1c.767 2.053 2.1 3.553 4 4.5 1.464-1.636 3.464-3.136 6-4.5.845 1.558.179 2.558-2 3 .556.383.889.883 1 1.5-17.697 3.583-35.364 3.916-53 1 5.182-.057 5.182-.724 0-2 1.391.391 2.391-.442 3-2.5l-3-1c2.167-.833 3.667-2.333 4.5-4.5.914 1.154 1.747.987 2.5-.5.561-1.566-.106-2.899-2-4 1.242-3.357 2.076-3.19 2.5.5a11.333 11.333 0 0 1 1.5-3.5c-2.353-1.255-3.02-2.922-2-5-.111-1.722-.611-1.888-1.5-.5-.044-3.283.956-3.616 3-1 .981-3.155 2.315-3.488 4-1 1.437-1.721.937-3.221-1.5-4.5l2-1c-1.167-.5-2-1.333-2.5-2.5l-1 2a15.83 15.83 0 0 0-5.5-3.5 15.454 15.454 0 0 0 5-3c-2.179-.442-2.845-1.442-2-3-2.007-.232-3.34.102-4 1a47.235 47.235 0 0 0-4-6c1.349-.772 2.182-1.939 2.5-3.5.414.457.914.791 1.5 1 2.68-2.943 3.347-2.61 2 1 1.489 2.249 3.489 3.082 6 2.5-2.429-.451-2.596-1.285-.5-2.5 1.949 3.123 4.115 3.623 6.5 1.5-.862-2.734-1.695-2.901-2.5-.5l-2.5-3a3.647 3.647 0 0 0-1.5 1 15.256 15.256 0 0 0-1.5-4.5 6.978 6.978 0 0 0 3.5-2.5c1.085 2.157 2.251 2.324 3.5.5-.012-1.84-.846-3.673-2.5-5.5-1.333 1.333-2.667 1.333-4 0-1.316 2.528-2.483 2.528-3.5 0a20.2 20.2 0 0 1 6-1.5l-5-1c1.882-.198 3.548-.698 5-1.5z"/>
  <path fill="#d2d2d2" d="M807.5 786.5c29.545 1.303 57.878 7.803 85 19.5 7.094 5.324 6.427 9.658-2 13-26.952 3.031-53.618 1.364-80-5-2.976-.705-5.642-1.871-8-3.5.814-2.131 1.314-4.464 1.5-7l1 6c.667-8 1.333-8 2 0 1.46-.482 2.96-1.649 4.5-3.5h-4c1.141-.741 1.141-1.575 0-2.5a4.457 4.457 0 0 1 2-1.5c-2.295-.984-1.961-1.817 1-2.5l1 2c2.585-2.078 4.752-1.411 6.5 2 1.716-1.052 2.716-.386 3 2l1-2c.718.951 1.551 1.117 2.5.5-.88-1.356-1.214-2.856-1-4.5h-4c-.277-2.948.056-5.781 1-8.5a6.547 6.547 0 0 1-3-3c-3.525-.179-6.859-.679-10-1.5z"/>
</svg>